<svg width="1024" height="677" viewBox="0 0 1024 677" fill="none" xmlns="http://www.w3.org/2000/svg">
<g clip-path="url(#clip0_1295_449)">
<rect width="1024" height="677" rx="40" fill="url(#paint0_radial_1295_449)"/>
<rect width="1024" height="677" rx="40" fill="#BC7953"/>
<g filter="url(#filter0_f_1295_449)">
<rect x="331.271" y="-158.602" width="615.635" height="892.798" transform="rotate(15 331.271 -158.602)" fill="#E8C4AB"/>
</g>
<g opacity="0.15" clip-path="url(#clip1_1295_449)">
<path d="M234.779 -194.248C232.609 -181.789 232.754 -181.934 213.947 -172.518C203.386 -167.157 202.084 -165.998 198.323 -158.9C195.574 -153.684 193.838 -147.02 192.826 -139.342C190.511 -120.654 188.92 -114.279 184.869 -107.76C181.108 -101.965 180.963 -100.516 180.818 -82.6971C180.674 -65.3125 180.384 -63.2843 176.912 -57.1997C174.164 -52.2741 172.862 -47.3484 172.138 -38.3664C171.56 -31.7023 170.547 -25.6177 169.824 -24.8933C167.364 -22.4305 168.088 27.2605 170.547 36.0977C173.44 45.8041 176.478 47.8323 189.354 48.7016C194.996 49.1362 200.782 50.2952 202.374 51.1644C206.28 53.6272 217.853 48.7016 221.325 43.0516C222.772 40.8785 226.099 35.5182 228.703 31.317C231.452 27.1157 234.2 20.5964 234.924 16.8298C239.264 -6.05996 241.289 -10.2612 252.573 -17.2151C258.504 -21.1266 259.083 -21.9959 262.266 -33.5856C265.448 -44.8856 266.027 -46.0446 269.788 -46.7689C276.877 -48.2176 279.77 -52.7087 281.217 -65.892C281.94 -72.4112 282.953 -78.351 283.532 -79.2202C283.966 -80.0894 284.834 -84.1458 285.557 -88.2023C289.174 -111.961 292.067 -125.579 295.105 -131.954C296.986 -136.01 299.156 -143.688 299.879 -149.048C300.602 -154.264 301.615 -159.189 302.049 -160.059C303.206 -161.797 298.288 -172.662 293.658 -178.892C290.765 -182.804 289.897 -185.701 289.897 -191.206C289.897 -206.128 291.778 -205.114 262.41 -205.114H236.804L234.779 -194.248Z" fill="#FAEADE"/>
<path d="M807.37 -167.447C805.344 -165.854 801.583 -164.55 798.69 -164.55C793.192 -164.55 789.286 -161.507 782.342 -151.511C777.858 -144.847 773.662 -142.239 760.787 -137.748C751.962 -134.561 741.98 -124.855 740.678 -117.901C739.666 -112.83 735.76 -99.0676 733.879 -94.2869C728.092 -79.0753 726.646 -65.7471 730.407 -60.8215C731.709 -59.083 732.577 -54.4471 732.577 -47.2035C732.577 -34.8894 733.156 -33.5856 738.653 -32.1369C741.112 -31.5574 743.572 -29.3843 745.018 -26.7766C747.188 -22.2856 748.201 -22.1407 754.711 -24.7484C756.881 -25.6176 757.17 -24.7484 757.17 -15.6215C757.17 -4.32149 758.762 1.18364 763.246 5.96441C767.442 10.4554 768.744 10.1657 775.832 3.50159C779.16 0.314409 783.21 -2.29328 784.802 -2.29328C790.878 -2.29328 798.979 -8.52277 802.451 -16.0561C808.238 -28.3702 809.684 -33.0061 810.697 -45.0305C811.71 -55.4612 816.484 -77.0471 818.654 -80.6689C819.232 -81.3933 820.1 -85.0151 820.824 -88.9266C824.006 -106.166 825.598 -111.092 831.963 -123.986C838.762 -137.459 838.762 -138.038 838.473 -149.918C838.039 -161.942 836.014 -167.592 831.24 -169.62C828.491 -170.634 824.006 -168.027 822.994 -164.55C821.836 -160.928 816.484 -160.638 816.484 -164.26C816.484 -166.868 813.88 -170.345 811.999 -170.345C811.565 -170.345 809.395 -169.041 807.37 -167.447Z" fill="#FAEADE"/>
<path d="M50.329 -137.893C48.4483 -136.445 46.7123 -136.3 43.6743 -137.314C41.3597 -138.183 36.875 -138.328 33.403 -137.893C30.0757 -137.314 24.1443 -136.734 20.2383 -136.445C15.7537 -136.155 12.4263 -134.996 11.4137 -133.547C10.401 -132.243 7.79701 -131.229 5.48235 -131.229C-0.0149868 -131.229 -5.80166 -127.897 -17.6643 -118.191C-33.1437 -105.297 -37.0497 -101.241 -37.0497 -98.1984C-37.0497 -96.4599 -37.6283 -94.7214 -38.4963 -94.2868C-39.3643 -93.8522 -39.943 -91.3894 -39.943 -89.0714C-39.943 -84.4355 -45.0063 -73.2804 -47.1763 -73.2804C-49.057 -73.2804 -49.7803 -69.9484 -51.5163 -54.4471C-52.8183 -42.5676 -53.6863 -40.1048 -57.1583 -36.3381C-64.1023 -28.8048 -65.983 -24.4586 -66.9957 -13.5932C-67.4297 -7.79837 -69.3103 0.314454 -71.191 4.37086C-74.5183 12.0491 -74.663 18.2786 -72.059 33.0555C-70.757 40.0093 -70.0337 40.8786 -62.6557 44.935C-59.473 46.6734 -58.7497 47.9773 -58.7497 52.758C-58.7497 55.8003 -59.473 58.8427 -60.1963 59.2773C-60.9197 59.7119 -61.643 61.3055 -61.643 62.7542C-61.643 64.2029 -62.945 67.1003 -64.5363 69.1286C-68.7317 74.3439 -68.153 79.7042 -63.0897 84.9196C-60.0517 87.817 -58.7497 90.5696 -58.7497 93.7568C-58.7497 99.4068 -57.303 101.725 -52.8183 104.043C-50.359 105.202 -49.057 107.375 -48.623 110.852C-47.4657 118.82 -36.3263 132.438 -30.829 132.438C-28.9483 132.438 -25.187 134.176 -22.4383 136.204C-17.9537 139.681 -16.6517 139.826 -7.10366 139.246C7.94167 138.088 8.37568 138.667 7.50768 156.486C6.92901 165.613 5.91635 172.422 4.32501 175.175C3.02301 177.493 2.01035 180.245 2.01035 181.114C2.01035 181.839 0.563675 185.461 -1.17232 189.082C-3.92099 194.443 -4.49966 198.934 -5.22299 216.898C-5.80166 230.226 -6.81432 238.918 -7.82699 239.932C-10.7203 242.83 -9.85232 250.508 -6.23566 253.84C-4.35499 255.579 -1.89566 257.027 -0.593658 257.027C0.563675 257.027 4.18035 259.055 7.21835 261.518C10.9797 264.416 13.7283 265.575 15.7537 264.995C17.345 264.561 20.6723 263.836 23.1317 263.257C27.761 262.532 27.761 262.532 30.0757 270.935C34.5603 287.016 33.837 286.291 49.7503 288.754C56.839 289.913 58.141 289.768 61.0343 287.016C62.7703 285.422 64.217 283.249 64.217 282.235C64.217 281.221 65.8083 278.468 67.8337 276.15C69.859 273.832 73.331 268.182 75.7903 263.546C80.4197 254.854 85.3383 247.031 87.9423 244.713C90.691 242.25 95.465 234.862 98.937 228.053C100.673 224.431 103.566 219.94 105.302 217.912C110.366 212.262 115.14 199.368 116.008 189.372C116.876 178.652 113.404 164.454 108.34 157.79C105.447 154.023 101.975 143.448 96.1883 121.138C94.597 115.488 91.125 111.286 85.6277 108.389C75.7903 103.318 75.067 97.6683 81.143 72.3157C86.0617 51.4542 87.3637 20.7414 83.6023 13.3529C82.3003 10.7452 75.6457 3.06702 68.7017 -3.59708L56.2603 -15.7663L55.8263 -26.0522C55.2477 -37.642 57.8517 -43.8714 67.1103 -54.0125C79.841 -67.6304 85.917 -82.4073 85.917 -99.0676C85.917 -108.339 85.1937 -111.382 82.3003 -116.597C80.275 -119.929 78.6837 -123.986 78.6837 -125.434C78.6837 -126.883 75.935 -130.215 72.6077 -132.968C65.3743 -138.762 54.8137 -141.08 50.329 -137.893Z" fill="#FAEADE"/>
<path d="M907.624 -85.5947C905.598 -84.4357 902.705 -82.987 901.114 -82.1177C897.208 -80.3793 892.723 -75.5985 884.911 -65.3126C876.81 -54.5921 874.206 -49.3767 873.627 -43.7267C872.036 -28.0806 869.576 -18.6639 865.96 -14.1729C858.148 -4.32158 858.148 -4.46645 860.028 -0.265171C861.475 2.92201 861.33 3.93611 859.16 6.39893C857.714 7.99252 855.399 9.29637 853.952 9.29637C852.072 9.29637 849.757 12.1938 846.719 18.2784C840.354 30.8823 836.737 35.3733 832.976 35.3733C831.24 35.3733 826.466 37.1117 822.415 39.14C817.062 41.8925 815.037 43.9207 815.037 46.0938C815.037 53.4823 811.854 60.2912 807.08 63.0438C804.476 64.6374 801.872 67.39 801.294 69.1284C800.136 72.3156 800.136 72.3156 799.558 68.8387C799.124 66.6656 799.702 64.6374 801.004 63.6233C803.753 61.5951 809.25 52.613 809.25 50.0053C809.25 48.122 814.314 37.1117 820.245 26.2464C821.402 24.0733 822.994 19.0028 823.572 14.9464C824.296 10.89 825.453 6.97842 826.466 5.96432C827.334 5.09509 828.057 0.169445 828.057 -4.7562C828.057 -15.9113 825.308 -21.1267 819.522 -21.1267C816.339 -21.1267 814.892 -19.9677 812.433 -14.7523C810.697 -11.2754 809.25 -7.50876 809.25 -6.20491C809.25 -4.90107 806.936 -2.1485 804.332 -0.120299C798.834 4.08098 793.916 12.9182 792.469 20.8861C790.733 31.4618 786.827 43.0515 783.934 46.0938C778.581 51.8887 776.411 56.2348 775.398 63.3335C774.53 69.4182 773.952 70.1425 771.492 69.4182C767.586 68.1143 763.391 73.6194 762.089 81.4425C761.655 84.7746 760.642 87.9617 759.919 88.3964C759.196 88.831 758.617 93.0323 758.617 97.6682C758.617 104.767 759.051 106.505 761.51 107.809C763.68 108.968 765.127 108.823 767.442 107.375C771.203 104.622 775.977 95.2053 775.977 90.4246C775.977 85.2092 777.134 84.34 781.185 87.0925C785.67 89.99 787.984 88.9758 791.456 82.3117C796.23 72.8951 797.532 74.4887 797.098 89.5553C796.809 100.566 797.243 104.622 799.413 109.403C801.149 113.314 802.017 118.819 802.017 125.339C802.017 130.699 802.74 135.625 803.464 136.059C804.332 136.494 804.91 138.957 804.91 141.419C804.91 143.882 806.357 148.084 807.948 150.836C810.842 155.472 810.986 156.631 809.54 167.641C808.382 176.623 808.527 183.287 809.974 194.732C811.131 203.135 811.999 210.089 811.999 210.234C812.144 210.523 814.314 213.131 817.062 216.028C820.968 220.375 822.126 223.272 822.994 230.081C824.874 245.727 833.699 249.059 838.618 236.021C840.064 231.964 841.656 227.184 842.09 225.155C842.524 223.127 844.115 219.94 845.562 218.057C847.008 216.173 850.914 206.177 854.097 195.601C857.424 185.171 860.607 175.464 861.475 174.16C862.198 172.712 862.777 169.669 862.777 167.496C862.777 162.571 869.287 153.009 875.508 148.518C877.822 146.925 880.282 143.737 880.716 141.709C881.294 139.536 882.741 136.928 883.754 135.769C884.911 134.61 885.924 132.437 885.924 130.989C885.924 125.773 896.195 125.484 898.076 130.699C901.114 139.246 901.548 141.854 900.39 148.808C898.654 159.963 896.774 166.627 891.71 179.521C885.634 195.167 884.477 197.485 879.992 203.425C875.797 209.075 868.998 227.763 866.972 238.628C866.394 242.395 863.79 249.639 861.475 254.419C856.701 263.981 855.978 269.051 858.726 275.426C859.739 277.599 860.896 288.609 861.33 299.764L862.054 320.191L867.117 326.566C872.036 332.795 872.036 333.085 872.18 346.993C872.18 360.466 873.772 365.681 877.533 365.681C879.848 365.681 893.012 352.498 894.025 349.166C895.038 345.544 903.284 332.071 905.309 330.622C908.492 328.449 908.492 331.491 905.309 344.095C900.969 360.61 898.51 365.681 892.289 371.331C887.66 375.677 887.37 376.401 887.37 385.963C887.37 391.468 886.792 396.249 886.068 396.684C885.49 397.118 884.477 404.362 883.898 412.764C883.32 421.167 882.307 429.714 881.439 431.887C879.269 437.537 878.98 476.363 881.15 478.826C882.018 479.985 883.175 484.766 883.754 489.546C885.2 501.716 887.804 506.207 893.302 506.207C899.956 506.207 902.126 512.871 902.126 533.732C902.126 546.481 902.705 551.262 904.441 554.304C907.479 559.664 909.36 559.375 913.7 553.145C918.04 547.06 920.21 548.799 917.75 556.332C915.002 564.59 916.448 586.466 920.065 590.377C922.235 592.695 923.103 597.041 924.26 608.776C925.562 622.249 925.996 624.277 928.311 624.277C930.192 624.277 931.928 621.525 934.676 613.412C936.846 607.037 940.318 600.373 943.212 597.186C948.275 591.536 953.049 582.699 954.64 576.035C955.219 573.862 957.389 568.791 959.414 564.88C963.754 556.767 967.66 555.173 973.447 558.94C975.328 560.244 979.523 561.258 982.561 561.258C987.48 561.258 989.071 560.389 993.556 555.463C996.449 552.276 998.764 548.799 998.764 547.64C998.764 546.481 999.487 545.322 1000.21 545.032C1001.8 544.598 1007.44 523.736 1007.44 518.521C1007.44 516.927 1009.32 510.553 1011.78 504.468C1014.53 497.08 1016.27 489.546 1016.85 482.013C1018.15 462.021 1019.16 454.922 1021.19 448.258C1023.65 440.725 1029.14 416.241 1029.87 409.867C1030.16 407.404 1031.31 402.913 1032.18 399.581C1033.63 394.8 1033.63 391.613 1031.89 382.921C1030.45 374.953 1030.16 369.013 1031.17 359.596C1032.76 343.66 1029.29 310.05 1025.53 304.255C1023.21 300.778 1022.2 300.489 1013.09 300.489C1001.66 300.489 1001.08 299.764 1001.95 286.581C1002.38 279.772 1002.52 279.482 1007.01 279.048C1013.23 278.468 1017.28 273.108 1024.08 256.448C1028.85 244.858 1029.29 242.685 1028.85 232.544C1028.56 226.459 1027.41 218.491 1026.25 214.725C1024.37 208.495 1024.51 207.191 1027.12 199.658C1030.45 189.662 1033.77 186.909 1037.53 191.11C1039.85 193.718 1040.14 195.891 1039.13 213.566C1038.69 224.286 1037.53 235.731 1036.67 238.918C1035.8 242.105 1034.79 251.522 1034.5 259.925C1034.06 268.327 1033.05 277.454 1032.18 280.207C1029.58 288.464 1030.16 291.651 1034.21 292.666C1036.23 293.1 1038.69 295.273 1039.7 297.446C1041.01 300.199 1042.45 301.068 1045.06 300.778C1049.83 300.199 1050.84 298.171 1050.55 288.899C1050.26 282.38 1051.13 279.193 1055.04 271.514C1059.67 262.532 1059.81 261.373 1059.67 247.61C1059.38 237.759 1058.66 232.109 1057.21 229.936C1053.45 223.996 1055.47 209.075 1061.4 200.382C1063 197.919 1064.15 192.994 1064.44 186.619C1064.73 181.114 1065.74 174.595 1066.61 171.987C1068.64 166.772 1067.19 162.426 1062.42 159.963C1060.1 158.804 1059.52 156.921 1059.52 151.705C1059.52 146.345 1060.39 144.172 1064.01 139.971C1068.35 135.045 1068.49 134.61 1067.62 123.89C1066.18 105.057 1066.03 103.608 1064.15 101.725C1061.26 98.8271 1046.36 99.4066 1041.58 102.449C1036.52 105.781 1035.65 108.534 1037.24 114.908C1039.13 121.717 1038.26 125.194 1034.79 125.194C1031.46 125.194 1029.87 119.978 1031.02 111.866C1032.04 104.187 1029 99.1169 1023.36 99.1169C1021.19 99.1169 1018.58 100.131 1017.57 101.29C1016.56 102.449 1014.68 103.463 1013.37 103.463C1012.07 103.463 1009.18 104.477 1006.86 105.636C1004.69 106.795 1002.24 107.519 1001.66 107.085C1000.93 106.65 999.342 103.028 998.04 99.1169C996.738 95.2053 995.002 91.5835 994.279 91.1489C993.556 90.5694 992.977 78.1105 992.977 63.0438C992.977 37.6912 992.832 35.5182 989.939 31.8964C987.769 29.1438 986.178 28.2746 983.574 28.9989C981.838 29.4335 979.957 29.1438 979.378 28.4194C978.944 27.6951 975.038 28.8541 970.264 31.172C965.635 33.49 961.295 35.3733 960.427 35.3733C959.704 35.5182 957.678 37.2566 956.087 39.2848C947.841 49.8605 944.224 53.1925 941.765 52.3233C939.45 51.4541 939.161 49.4259 939.595 35.663C939.74 27.1156 939.161 17.5541 938.293 14.3669C937.425 11.1797 936.412 6.97842 935.978 4.95021C935.544 2.92201 931.928 -2.58312 927.877 -7.36389C923.971 -11.9998 920.644 -17.36 920.644 -19.2434C920.644 -20.9818 922.958 -27.5011 925.852 -33.7306L931.06 -45.0306L930.047 -61.6908C928.89 -82.8421 926.43 -87.7677 917.316 -87.7677C913.989 -87.7677 909.649 -86.7536 907.624 -85.5947Z" fill="#FAEADE"/>
<path d="M681.654 -67.7753C679.484 -66.3266 675.868 -61.9804 673.842 -57.924C671.672 -54.0125 669.068 -49.2317 668.056 -47.2035C666.898 -45.1753 666.03 -41.1189 666.03 -38.2215C666.03 -35.324 665.452 -31.4125 664.728 -29.5292C664.005 -27.6458 662.992 -24.4586 662.414 -22.1407C661.98 -19.9676 658.652 -15.4766 655.18 -12.1445C651.564 -8.66762 648.67 -5.1907 648.67 -4.1766C648.67 -3.16249 648.092 -1.13429 647.368 0.31443C646.5 1.61828 645.488 5.24007 645.054 8.13751C644.475 11.6144 643.318 13.7875 641.582 14.367C635.94 16.1055 634.204 20.3067 632.034 36.2426C627.404 72.4606 625.379 82.8913 621.328 92.5978C619.882 96.2196 619.014 102.449 619.014 109.982C619.014 120.703 619.448 122.296 623.064 127.077C626.247 131.279 626.97 133.741 626.97 140.261C626.97 147.504 627.549 148.953 632.034 154.023C635.94 158.37 637.097 160.832 637.097 165.323C637.097 171.698 639.122 174.45 643.752 174.45C647.079 174.45 651.564 167.207 651.564 161.846C651.564 158.659 655.759 154.168 658.652 154.168C659.52 154.168 661.98 152.43 663.86 150.402C666.609 147.359 667.477 144.896 667.477 139.826C667.477 132.293 668.056 131.423 680.931 123.745C685.56 120.993 690.19 117.371 691.202 115.777C694.385 110.707 697.712 97.3785 698.436 85.7888C698.87 77.2413 700.027 72.8952 703.065 67.3901C706.537 60.8708 706.826 59.1324 706.103 49.5708C705.235 38.2708 707.116 25.8119 710.154 22.3349C712.468 19.7272 713.626 6.25417 714.638 -26.9215C715.651 -59.8074 713.047 -67.7753 701.04 -68.2099C698.146 -68.3548 693.372 -68.9343 690.624 -69.5138C686.862 -70.2381 684.548 -69.8035 681.654 -67.7753Z" fill="#FAEADE"/>
<path d="M452.647 -36.9178C448.741 -35.9037 445.269 -33.5857 441.508 -29.3844C438.47 -26.0524 436.01 -22.8652 436.01 -22.2857C436.01 -21.7062 432.104 -14.7524 427.33 -6.9293C422.556 1.03865 418.65 8.13737 418.65 9.0066C418.65 10.6002 409.392 17.9887 407.222 17.9887C404.762 17.9887 403.026 22.7694 402.014 32.4758C401.001 41.0233 399.554 47.6874 395.359 60.8707C394.636 63.3335 393.912 72.4604 393.768 81.1528C393.623 99.8412 392.321 103.753 382.628 114.618C372.936 125.484 371.634 128.816 368.74 149.532C365.413 173.001 366.281 187.054 371.634 197.775C373.948 202.121 376.263 207.481 376.842 209.944C377.42 212.262 380.024 219.795 382.484 226.604C385.088 233.413 387.981 242.105 389.138 246.162C394.202 265.43 396.806 277.019 396.95 280.931C397.095 287.305 398.831 289.478 402.882 288.175C409.97 286.001 413.008 280.931 418.072 263.546C420.82 253.84 428.777 243.989 433.84 243.989C435.576 243.989 438.036 245.148 439.193 246.451C444.69 252.826 445.414 256.013 445.558 280.351C445.848 301.648 446.282 305.125 448.886 310.34C452.358 317.149 455.83 319.612 459.302 317.873C460.604 317.149 464.51 311.789 467.982 305.994C471.454 300.199 475.36 294.259 476.662 292.81C477.964 291.362 481.436 284.118 484.474 276.875C487.367 269.486 490.694 261.373 491.852 258.766C493.009 256.158 493.877 251.232 493.877 247.755C493.877 243.409 494.745 240.801 496.77 238.918C498.362 237.469 499.808 236.6 500.098 236.89C505.74 244.713 506.029 246.017 506.463 270.066C506.752 293.245 509.067 308.601 513.986 321.205C514.854 323.523 515.577 327.869 515.577 331.057C515.577 338.01 521.364 347.862 526.572 349.745C528.597 350.614 531.78 350.759 533.805 350.325C539.013 349.021 545.957 339.894 545.957 334.389C545.957 331.926 547.259 325.407 548.85 319.901C550.586 314.396 552.612 307.298 553.48 304.11C555.071 298.75 559.845 289.044 561.87 287.45C562.449 287.016 564.04 283.828 565.487 280.207C567.802 274.557 568.091 269.051 568.236 238.918C568.38 212.986 568.959 203.28 570.406 200.672C572.72 196.471 572.865 136.349 570.55 129.975C569.682 127.801 566.644 122.586 563.896 118.53C559.266 111.866 557.964 110.996 551.02 109.403C546.68 108.389 542.774 106.94 542.34 106.216C536.988 97.813 513.262 131.278 508.344 154.168C507.331 158.514 505.306 164.164 503.859 166.627C501.544 170.539 501.11 174.16 501.11 193.863C501.11 206.322 500.532 216.463 499.953 216.463C498.362 216.463 495.468 199.223 494.456 183.867C493.877 174.885 494.311 167.786 495.758 160.832C497.638 151.995 497.783 149.098 495.758 136.204C494.6 128.091 492.43 119.254 490.839 116.357C487.367 109.548 487.367 107.23 491.128 99.4066C493.877 94.0463 494.166 91.7284 493.154 83.4707C492.575 78.1104 491.852 65.2169 491.562 54.931C490.839 24.7976 487.078 1.03865 480.134 -18.9537C474.347 -35.6139 472.032 -38.5114 464.51 -38.3665C461.182 -38.2216 455.83 -37.6421 452.647 -36.9178Z" fill="#FAEADE"/>
<path d="M246.497 110.997C246.497 112.011 244.472 116.791 242.157 121.572C239.842 126.353 237.817 130.989 237.817 131.713C237.817 132.582 235.936 134.9 233.622 136.929C230.873 139.391 227.256 146.055 222.916 156.921C214.381 178.217 211.343 180.68 201.94 173.436C197.744 170.394 196.442 169.959 194.272 171.263C192.826 172.277 190.8 173.002 189.788 173.002C187.184 173.002 179.95 180.535 179.95 183.288C179.95 184.736 179.372 186.04 178.504 186.33C176.478 187.054 171.415 202.121 171.126 208.64C170.836 214.58 167.509 226.025 162.88 236.745C160.854 241.671 159.986 247.9 159.408 261.663C158.974 271.804 157.961 280.931 157.238 281.945C156.37 282.959 155.212 286.726 154.634 290.348C153.621 297.446 152.753 300.923 148.558 314.252C146.243 321.93 145.954 327.87 146.243 368.868C146.388 408.708 146.822 415.807 148.992 421.746C152.753 432.032 153.91 432.902 165.05 432.902L174.887 433.046L175.755 441.014C177.202 452.749 176.189 455.502 170.836 455.502C166.062 455.502 158.25 461.586 158.25 465.208C158.25 466.367 156.37 471.293 154.055 476.218C147.4 490.85 146.098 495.776 147.834 501.716C151.162 513.305 152.464 527.213 150.728 533.153C148.558 540.396 145.375 544.163 141.758 543.584C138.865 543.149 138.72 541.99 138.286 524.461C137.997 511.567 138.576 503.454 140.022 498.384C141.18 494.327 142.482 482.448 143.06 472.162C143.639 461.731 144.652 452.604 145.52 451.59C146.243 450.721 146.677 447.678 146.388 445.071C146.098 441.449 145.23 440.145 142.916 439.855C141.18 439.566 139.154 437.827 138.286 435.799C137.129 433.481 135.393 432.322 133.078 432.322C128.738 432.322 125.7 438.986 127.002 445.65C128.015 451.155 124.543 461.586 119.48 467.816C116.586 471.293 116.152 473.031 117.02 477.957C117.454 481.144 117.888 486.214 117.744 489.257C117.744 492.299 118.612 498.528 119.914 503.02C122.807 512.871 121.939 521.128 116.731 532.139C114.706 536.485 112.825 543.294 112.536 547.35C112.391 551.407 111.668 558.071 111.234 561.982C110.366 568.502 110.655 569.516 113.982 572.703C118.901 577.339 119.19 586.321 114.706 591.102C110.076 596.027 109.064 603.85 110.944 618.482L112.68 631.521L118.612 633.549C123.964 635.432 125.122 635.287 131.198 632.825C139.154 629.493 141.035 626.016 139.878 616.309C139.01 609.066 139.154 608.776 142.482 609.355C145.664 609.79 145.954 610.514 146.388 619.931C146.822 630.072 149.136 635.143 153.476 635.143C154.489 635.143 157.816 633.549 160.854 631.811C169.1 626.595 174.887 625.871 177.346 629.782C183.567 639.489 184.724 646.587 184.869 673.534C185.014 693.526 185.448 700.48 187.039 702.218C189.209 704.971 199.914 705.55 204.254 703.377C205.556 702.653 209.752 700.769 213.513 699.031C218.142 696.858 222.482 693.091 226.533 687.876C235.792 675.996 236.949 677.155 237.962 699.611C239.119 724.673 242.157 735.249 249.68 740.609C252.862 742.927 256.624 749.881 256.624 753.648C256.624 755.096 254.309 760.746 251.56 766.396C247.076 775.378 246.497 777.552 246.642 787.982C246.642 803.484 248.378 812.755 251.85 817.391C254.454 820.723 255.756 821.303 261.108 820.868C268.486 820.434 280.638 813.769 284.834 808.119C286.425 805.946 290.042 801.31 292.935 797.834C301.036 787.982 304.364 780.159 304.364 770.887C304.364 766.396 304.942 762.485 305.666 762.05C306.244 761.616 307.257 758.573 307.691 755.386C308.125 751.764 310.15 747.708 312.899 744.521C316.371 740.609 317.384 738.002 317.384 733.511C317.384 727.571 321.29 722.211 325.63 722.066C326.642 722.066 330.114 716.561 333.442 709.752C339.084 698.017 339.662 697.437 344.147 697.437C355.865 697.437 362.809 691.208 364.256 679.618C365.268 672.23 365.702 671.216 369.174 670.346C371.344 669.912 373.514 668.753 374.093 667.884C374.672 667.014 375.54 666.725 375.974 667.304C376.408 667.739 374.816 671.071 372.357 674.693C370.042 678.314 368.017 682.661 368.017 684.399C368.017 686.282 365.124 692.512 361.507 698.596C357.022 705.985 354.997 711.055 354.997 714.677C354.852 717.575 353.695 722.5 352.104 725.687C349.066 731.917 348.342 742.782 350.657 748.722C352.248 752.923 356.733 755.676 359.916 754.517C362.954 753.358 368.017 744.955 368.017 741.189C368.017 739.45 370.766 735.394 374.238 731.917C380.748 725.398 383.062 720.182 387.692 701.059C389.428 693.816 391.453 689.469 394.78 685.848C399.554 680.632 402.303 674.837 403.026 668.463C403.316 665.855 404.473 664.696 407.222 664.407C411.272 663.972 413.876 659.191 416.914 646.298C420.386 632.1 418.072 623.698 411.128 625.436C407.077 626.45 402.592 634.853 401.435 644.125L400.567 649.919L396.516 646.732C393.044 643.98 392.176 643.835 390.151 645.573C388.849 646.587 386.968 649.63 385.811 652.093C382.484 660.205 381.037 657.598 381.037 643.4C381.037 632.825 380.458 628.768 378.144 624.277C376.552 621.09 375.25 615.73 375.25 611.963C375.106 599.504 372.646 587.77 368.885 581.685C365.558 576.614 365.268 575.166 366.86 572.413C367.872 570.385 368.451 562.707 368.451 551.117C368.306 531.994 367.294 528.227 357.89 512.002C356.299 509.249 354.997 505.482 354.997 503.744C354.997 498.673 350.512 490.561 347.185 489.691C343.279 488.532 339.662 492.878 337.492 500.846C336.624 504.178 334.454 509.684 332.574 513.016C330.693 516.348 328.812 521.128 328.234 523.591C327.655 525.909 326.642 528.227 325.919 528.662C325.196 529.241 324.617 531.414 324.617 533.587C324.617 535.905 323.749 538.513 322.592 539.382C321.434 540.396 320.132 544.453 319.554 548.654C318.975 552.711 317.962 557.057 317.239 558.361C316.66 559.52 315.648 562.996 315.214 565.894C314.635 569.805 312.176 573.862 306.678 579.657C302.483 584.293 297.564 591.102 295.684 595.013C290.765 605.009 288.161 607.037 282.808 604.864C278.179 602.836 276.877 599.07 276.877 587.335C276.877 580.816 280.928 565.025 284.834 556.187C285.846 553.725 288.45 548.22 290.331 543.873C292.356 539.382 295.539 533.443 297.42 530.69C300.892 525.475 306.389 509.828 310.874 491.72C312.32 486.504 314.056 481.289 315.069 480.13C320.711 472.886 321.145 469.409 317.528 451.88C316.805 447.823 316.082 438.262 316.082 430.439C315.937 415.517 314.49 410.446 308.125 403.637C305.521 400.74 304.942 397.843 304.364 384.804C303.64 370.462 303.351 369.303 300.602 368.868C296.407 368.289 286.57 378.285 282.085 387.702C278.758 394.8 272.392 403.348 270.367 403.348C269.065 403.348 269.644 397.553 271.669 390.599C272.826 386.832 274.562 380.603 275.72 376.691C277.022 371.476 279.192 368.144 283.821 364.232C289.752 358.872 289.897 358.582 289.897 349.455C289.897 344.385 290.765 337.286 291.922 333.664C293.08 330.187 294.382 320.771 294.816 312.658C295.25 304.545 296.262 295.129 297.13 291.507C300.168 279.772 297.13 250.363 291.199 233.123C289.318 227.908 288.595 227.329 283.966 226.894C279.192 226.459 278.613 225.88 276.732 220.375C275.72 217.043 274.418 206.177 273.984 196.326C273.405 181.549 272.826 178.072 270.801 176.768C268.92 175.609 267.618 175.899 264.87 178.507C262.989 180.245 261.253 181.694 260.819 181.694C260.53 181.694 260.24 173.581 260.24 163.73C260.24 146.345 260.096 145.766 256.624 142.868C253.296 140.261 253.007 138.812 252.862 128.236C252.718 121.717 252.139 114.908 251.705 112.88C250.837 109.258 246.497 107.809 246.497 110.997Z" fill="#FAEADE"/>
<path d="M653.155 256.013C648.815 259.2 646.211 262.387 645.343 265.575C644.764 268.182 642.45 273.108 640.424 276.295C638.399 279.627 636.084 284.553 635.506 287.305C633.625 295.853 638.399 326.131 643.028 335.548C643.752 336.996 644.33 339.604 644.33 341.487C644.33 343.371 646.356 347.572 648.815 350.904C651.274 354.381 653.589 359.596 654.023 362.784C654.602 366.985 656.048 369.737 659.376 372.345C670.949 381.762 675 385.818 680.063 392.772C684.403 398.712 686.428 400.45 689.611 400.45C691.781 400.45 693.517 399.726 693.517 399.002C693.517 396.973 698.725 397.118 702.631 399.291C704.367 400.16 709.43 403.637 713.77 406.969C718.11 410.302 724.042 414.068 726.79 415.372C733.011 417.98 756.302 419.863 759.919 417.835C761.366 417.11 763.97 413.054 765.85 408.998C770.335 398.422 769.612 384.225 764.259 377.126C760.642 372.345 751.962 354.816 748.78 346.123C747.912 343.66 746.899 339.025 746.61 335.693C745.742 328.304 740.823 317.584 736.483 313.672C733.156 310.63 722.595 302.082 715.072 296.287C712.613 294.259 708.562 290.058 706.248 286.871C700.75 279.193 686.284 264.271 684.258 264.271C683.535 264.271 680.063 261.663 676.736 258.331C668.345 250.073 661.98 249.494 653.155 256.013Z" fill="#FAEADE"/>
<path d="M34.2709 393.351C26.1696 396.539 21.9743 401.609 20.0936 410.591C19.5149 413.344 18.5023 416.241 17.9236 417.11C17.3449 417.835 16.3323 421.891 15.7536 425.948C14.7409 434.35 16.6216 437.248 23.2763 436.378C27.0376 435.944 27.3269 436.234 26.8929 441.014C24.7229 467.091 24.5783 465.932 28.1949 465.353C31.6669 464.918 41.6489 450.286 43.3849 442.898C43.9636 440.725 47.0016 434.06 50.0396 427.976C57.4176 413.634 59.8769 406.825 59.8769 399.436C59.8769 392.772 59.5876 392.627 48.3036 391.178C43.6743 390.599 39.6236 391.323 34.2709 393.351Z" fill="#FAEADE"/>
<path d="M633.914 414.068C631.6 416.241 629.14 422.036 627.838 428.121C627.26 430.873 625.813 432.177 623.064 432.757C616.41 434.205 615.252 435.799 614.384 444.781C613.372 454.777 611.491 457.385 601.509 462.166C597.458 464.049 593.118 466.802 591.672 468.395C588.055 472.307 583.57 486.359 583.57 493.748C583.57 502.875 580.822 514.754 577.639 520.259C575.324 524.026 574.89 527.213 575.18 539.093C575.324 550.393 574.746 554.884 572.431 561.258C568.236 572.703 565.776 598.78 566.5 624.277C567.223 651.513 568.38 653.976 580.098 653.976C584.294 653.976 588.2 654.555 588.634 655.425C589.936 657.453 596.88 657.163 599.918 654.7C606.138 650.064 614.674 631.376 615.976 619.496C617.133 608.776 620.171 603.126 627.115 598.49C631.166 595.737 632.323 593.854 633.625 586.9C635.506 577.484 638.544 571.979 642.739 570.675C644.62 570.095 645.922 568.067 646.356 565.17C646.79 562.562 647.802 555.898 648.67 550.393C652.287 526.489 657.35 500.557 659.665 493.168C663.282 481.289 663.86 472.162 661.112 466.512C659.81 463.759 658.797 461.007 658.797 460.138C658.797 459.413 657.784 457.964 656.627 456.95C655.18 455.791 654.457 452.459 654.457 446.664C654.457 439.421 653.878 437.682 650.551 434.64C647.947 432.177 645.922 427.976 644.33 421.891C642.594 414.648 641.437 412.62 638.978 412.33C637.386 412.04 635.072 412.909 633.914 414.068Z" fill="#FAEADE"/>
<path d="M73.6202 435.944C71.3056 437.103 67.5442 438.262 65.3742 438.696C62.3362 439.421 60.7449 441.449 57.7069 447.968C55.6816 452.459 52.9329 458.109 51.9202 460.572C50.7629 462.89 49.4609 467.236 49.0269 469.989C48.5929 472.741 46.7122 477.957 44.8316 481.578C32.9689 504.178 33.9816 500.846 33.8369 522.867C33.8369 549.089 37.7429 561.258 46.4229 561.258C51.0522 561.258 55.6816 550.827 56.6942 537.644C57.4176 528.082 57.5622 527.648 66.5316 517.652C71.4502 512.002 78.1049 503.744 81.1429 499.253L86.6402 490.995L87.0742 466.077L87.6529 441.159L83.8916 437.393C79.6962 433.336 79.5516 433.191 73.6202 435.944Z" fill="#FAEADE"/>
<path d="M804.042 487.084C802.451 488.098 796.086 498.528 793.482 504.034C792.758 505.627 790.444 508.525 788.418 510.408C786.393 512.436 784.657 514.609 784.657 515.334C784.657 516.637 782.198 522.722 778.147 531.559C773.084 542.425 770.19 551.696 770.19 557.057C770.19 560.244 769.178 564.445 767.876 566.328C765.416 570.095 765.706 585.596 768.888 612.398C769.756 620.076 770.046 629.493 769.467 633.259C766.14 658.032 767.731 682.371 773.228 690.484C776.845 695.554 776.7 699.611 772.939 705.695C770.046 710.331 769.901 711.635 771.058 728.295C771.782 738.002 772.216 747.853 772.071 750.316C771.637 756.98 775.688 797.109 777.134 800.007C777.858 801.311 778.87 805.512 779.449 809.134C780.751 817.536 787.261 834.776 791.167 839.557C795.362 844.772 798.111 845.352 808.238 843.034C818.798 840.571 824.006 835.645 830.95 821.303C833.41 816.377 836.592 811.162 838.039 809.858C839.63 808.409 842.234 804.063 843.826 800.152C846.14 795.081 848.455 792.184 852.65 789.866C859.16 786.099 862.777 779 862.777 770.018C862.777 766.976 863.79 761.326 865.092 757.414C868.708 745.535 870.3 735.249 871.023 718.009L871.602 701.494L878.112 695.119C881.584 691.498 884.477 688.166 884.477 687.441C884.477 686.862 885.634 685.268 887.081 683.819C892 679.473 895.761 661.509 897.063 635.432C897.642 624.277 897.208 620.8 894.604 613.846C892.868 609.211 890.987 604.864 890.264 603.995C889.685 603.271 888.528 600.228 887.66 597.476C886.792 594.723 884.477 587.769 882.307 582.264C875.942 565.314 870.155 543.439 868.708 530.69C867.406 519.39 866.538 517.796 862.198 517.796C858.726 517.796 849.757 525.62 849.757 528.662C849.757 534.457 843.102 550.537 838.473 555.463C832.542 562.272 830.082 562.562 824.296 557.636L820.1 554.014L819.232 529.096C818.364 502.295 817.062 495.776 811.42 489.691C807.804 485.78 806.646 485.345 804.042 487.084Z" fill="#FAEADE"/>
<path d="M-23.1615 672.23C-23.5955 673.534 -24.0295 676.431 -24.0295 678.749C-24.0295 681.936 -24.7528 682.95 -26.9228 682.95C-28.5142 682.95 -30.2502 684.109 -30.8288 685.413C-31.2628 686.862 -32.8542 690.628 -34.1562 693.816C-35.6028 697.003 -37.1942 703.667 -37.6282 708.737C-38.2068 713.663 -40.0875 722.645 -42.1128 728.585C-47.3208 744.81 -47.6102 747.998 -45.0062 762.05C-41.8235 779.869 -40.3768 783.636 -36.3262 785.809C-34.3008 786.823 -32.7095 788.272 -32.7095 788.852C-32.7095 789.431 -31.6968 790.88 -30.5395 792.184C-27.9355 794.646 -20.9915 793.198 -16.6515 789.286C-14.1922 787.113 -13.7582 787.113 -10.1415 790.01C-7.97151 791.749 -5.80151 793.053 -5.07817 793.053C-2.47417 793.053 0.563826 788.127 0.563826 783.781C0.563826 781.318 1.14249 778.566 1.72116 777.696C2.44449 776.972 4.18049 773.205 5.62716 769.294C8.66516 760.891 7.94183 749.591 3.60183 740.464C2.15516 737.132 -0.0148407 730.613 -0.882841 725.832C-1.89551 721.196 -3.77617 713.518 -5.36751 709.027C-6.81417 704.536 -8.26084 695.844 -8.55017 690.049C-8.98417 681.357 -9.70751 678.314 -12.4562 674.548C-16.2175 669.477 -21.7148 668.318 -23.1615 672.23Z" fill="#FAEADE"/>
</g>
</g>
<defs>
<filter id="filter0_f_1295_449" x="-149.803" y="-408.602" width="1325.73" height="1521.71" filterUnits="userSpaceOnUse" color-interpolation-filters="sRGB">
<feFlood flood-opacity="0" result="BackgroundImageFix"/>
<feBlend mode="normal" in="SourceGraphic" in2="BackgroundImageFix" result="shape"/>
<feGaussianBlur stdDeviation="125" result="effect1_foregroundBlur_1295_449"/>
</filter>
<radialGradient id="paint0_radial_1295_449" cx="0" cy="0" r="1" gradientUnits="userSpaceOnUse" gradientTransform="translate(535.5 368.5) rotate(107.283) scale(665.433 728.24)">
<stop stop-color="#E7C4A9"/>
<stop offset="1" stop-color="#BC7853"/>
</radialGradient>
<clipPath id="clip0_1295_449">
<rect width="1024" height="677" rx="40" fill="white"/>
</clipPath>
<clipPath id="clip1_1295_449">
<rect width="1302" height="1130" fill="white" transform="translate(-168.696 -205.114)"/>
</clipPath>
</defs>
</svg>
