<svg width="1025" height="677" viewBox="0 0 1025 677" fill="none" xmlns="http://www.w3.org/2000/svg">
<g clip-path="url(#clip0_1295_212)">
<rect x="0.304688" width="1024" height="677" rx="40" fill="#BC343E"/>
<g filter="url(#filter0_f_1295_212)">
<rect x="355.685" y="-152.142" width="565.715" height="892.798" transform="rotate(15 355.685 -152.142)" fill="#EAA7AF"/>
</g>
<g opacity="0.1" clip-path="url(#clip1_1295_212)">
<path d="M235.083 -194.249C232.913 -181.79 233.058 -181.934 214.251 -172.518C203.691 -167.157 202.389 -165.999 198.627 -158.9C195.879 -153.684 194.143 -147.02 193.13 -139.342C190.815 -120.654 189.224 -114.279 185.173 -107.76C181.412 -101.965 181.267 -100.516 181.123 -82.6973C180.978 -65.3126 180.689 -63.2844 177.217 -57.1998C174.468 -52.2742 173.166 -47.3485 172.443 -38.3665C171.864 -31.7024 170.851 -25.6178 170.128 -24.8934C167.669 -22.4306 168.392 27.2604 170.851 36.0976C173.745 45.804 176.783 47.8322 189.658 48.7014C195.3 49.1361 201.087 50.295 202.678 51.1643C206.584 53.6271 218.157 48.7014 221.629 43.0514C223.076 40.8784 226.403 35.5181 229.007 31.3168C231.756 27.1156 234.505 20.5963 235.228 16.8297C239.568 -6.06008 241.593 -10.2614 252.877 -17.2152C258.809 -21.1267 259.387 -21.996 262.57 -33.5857C265.753 -44.8857 266.331 -46.0447 270.093 -46.7691C277.181 -48.2178 280.075 -52.7088 281.521 -65.8921C282.245 -72.4114 283.257 -78.3511 283.836 -79.2203C284.27 -80.0896 285.138 -84.146 285.861 -88.2024C289.478 -111.961 292.371 -125.579 295.409 -131.954C297.29 -136.01 299.46 -143.688 300.183 -149.049C300.907 -154.264 301.919 -159.19 302.353 -160.059C303.511 -161.797 298.592 -172.663 293.963 -178.892C291.069 -182.804 290.201 -185.701 290.201 -191.206C290.201 -206.128 292.082 -205.114 262.715 -205.114H237.109L235.083 -194.249Z" fill="#FAEADE"/>
<path d="M807.674 -167.447C805.649 -165.854 801.888 -164.55 798.994 -164.55C793.497 -164.55 789.591 -161.507 782.647 -151.511C778.162 -144.847 773.967 -142.239 761.092 -137.748C752.267 -134.561 742.285 -124.855 740.983 -117.901C739.97 -112.83 736.064 -99.0676 734.184 -94.2869C728.397 -79.0753 726.95 -65.7471 730.712 -60.8215C732.014 -59.083 732.882 -54.4471 732.882 -47.2035C732.882 -34.8894 733.46 -33.5856 738.958 -32.1369C741.417 -31.5574 743.876 -29.3843 745.323 -26.7766C747.493 -22.2856 748.506 -22.1407 755.016 -24.7484C757.186 -25.6176 757.475 -24.7484 757.475 -15.6215C757.475 -4.32149 759.066 1.18364 763.551 5.96441C767.746 10.4554 769.048 10.1657 776.137 3.50159C779.464 0.314409 783.515 -2.29328 785.106 -2.29328C791.182 -2.29328 799.284 -8.52277 802.756 -16.0561C808.542 -28.3702 809.989 -33.0061 811.002 -45.0305C812.014 -55.4612 816.788 -77.0471 818.958 -80.6689C819.537 -81.3933 820.405 -85.0151 821.128 -88.9266C824.311 -106.166 825.902 -111.092 832.268 -123.986C839.067 -137.459 839.067 -138.038 838.778 -149.918C838.344 -161.942 836.318 -167.592 831.544 -169.62C828.796 -170.634 824.311 -168.027 823.298 -164.55C822.141 -160.928 816.788 -160.638 816.788 -164.26C816.788 -166.868 814.184 -170.345 812.304 -170.345C811.87 -170.345 809.7 -169.041 807.674 -167.447Z" fill="#FAEADE"/>
<path d="M50.6339 -137.893C48.7533 -136.445 47.0173 -136.3 43.9793 -137.314C41.6646 -138.183 37.1799 -138.328 33.7079 -137.893C30.3806 -137.314 24.4493 -136.734 20.5433 -136.445C16.0586 -136.155 12.7313 -134.996 11.7186 -133.547C10.7059 -132.243 8.10194 -131.229 5.78728 -131.229C0.289945 -131.229 -5.49673 -127.897 -17.3594 -118.191C-32.8387 -105.297 -36.7447 -101.241 -36.7447 -98.1984C-36.7447 -96.4599 -37.3234 -94.7214 -38.1914 -94.2868C-39.0594 -93.8522 -39.6381 -91.3894 -39.6381 -89.0714C-39.6381 -84.4355 -44.7014 -73.2804 -46.8714 -73.2804C-48.7521 -73.2804 -49.4754 -69.9484 -51.2114 -54.4471C-52.5134 -42.5676 -53.3814 -40.1048 -56.8534 -36.3381C-63.7974 -28.8048 -65.6781 -24.4586 -66.6907 -13.5932C-67.1247 -7.79837 -69.0054 0.314454 -70.8861 4.37086C-74.2134 12.0491 -74.3581 18.2786 -71.7541 33.0555C-70.4521 40.0093 -69.7287 40.8786 -62.3507 44.935C-59.1681 46.6734 -58.4447 47.9773 -58.4447 52.758C-58.4447 55.8003 -59.1681 58.8427 -59.8914 59.2773C-60.6147 59.7119 -61.3381 61.3055 -61.3381 62.7542C-61.3381 64.2029 -62.6401 67.1003 -64.2314 69.1286C-68.4267 74.3439 -67.8481 79.7042 -62.7847 84.9196C-59.7467 87.817 -58.4447 90.5696 -58.4447 93.7568C-58.4447 99.4068 -56.9981 101.725 -52.5134 104.043C-50.0541 105.202 -48.7521 107.375 -48.3181 110.852C-47.1607 118.82 -36.0214 132.438 -30.5241 132.438C-28.6434 132.438 -24.8821 134.176 -22.1334 136.204C-17.6487 139.681 -16.3467 139.826 -6.79873 139.246C8.24661 138.088 8.68061 138.667 7.81261 156.486C7.23394 165.613 6.22128 172.422 4.62994 175.175C3.32794 177.493 2.31528 180.245 2.31528 181.114C2.31528 181.839 0.868607 185.461 -0.867393 189.082C-3.61606 194.443 -4.19473 198.934 -4.91806 216.898C-5.49673 230.226 -6.50939 238.918 -7.52206 239.932C-10.4154 242.83 -9.54739 250.508 -5.93073 253.84C-4.05006 255.579 -1.59073 257.027 -0.288726 257.027C0.868607 257.027 4.48528 259.055 7.52328 261.518C11.2846 264.416 14.0333 265.575 16.0586 264.995C17.6499 264.561 20.9773 263.836 23.4366 263.257C28.0659 262.532 28.0659 262.532 30.3806 270.935C34.8653 287.016 34.1419 286.291 50.0553 288.754C57.1439 289.913 58.4459 289.768 61.3393 287.016C63.0753 285.422 64.5219 283.249 64.5219 282.235C64.5219 281.221 66.1133 278.468 68.1386 276.15C70.1639 273.832 73.6359 268.182 76.0953 263.546C80.7246 254.854 85.6433 247.031 88.2473 244.713C90.9959 242.25 95.7699 234.862 99.2419 228.053C100.978 224.431 103.871 219.94 105.607 217.912C110.671 212.262 115.445 199.368 116.313 189.372C117.181 178.652 113.709 164.454 108.645 157.79C105.752 154.023 102.28 143.448 96.4933 121.138C94.9019 115.488 91.4299 111.286 85.9326 108.389C76.0953 103.318 75.3719 97.6683 81.4479 72.3157C86.3666 51.4542 87.6686 20.7414 83.9073 13.3529C82.6053 10.7452 75.9506 3.06702 69.0066 -3.59708L56.5653 -15.7663L56.1313 -26.0522C55.5526 -37.642 58.1566 -43.8714 67.4153 -54.0125C80.1459 -67.6304 86.2219 -82.4073 86.2219 -99.0676C86.2219 -108.339 85.4986 -111.382 82.6053 -116.597C80.5799 -119.929 78.9886 -123.986 78.9886 -125.434C78.9886 -126.883 76.2399 -130.215 72.9126 -132.968C65.6793 -138.762 55.1186 -141.08 50.6339 -137.893Z" fill="#FAEADE"/>
<path d="M907.929 -85.5947C905.903 -84.4357 903.01 -82.987 901.419 -82.1177C897.513 -80.3793 893.028 -75.5985 885.216 -65.3126C877.115 -54.5921 874.511 -49.3767 873.932 -43.7267C872.341 -28.0806 869.881 -18.6639 866.265 -14.1729C858.453 -4.32158 858.453 -4.46645 860.333 -0.265171C861.78 2.92201 861.635 3.93611 859.465 6.39893C858.019 7.99252 855.704 9.29637 854.257 9.29637C852.377 9.29637 850.062 12.1938 847.024 18.2784C840.659 30.8823 837.042 35.3733 833.281 35.3733C831.545 35.3733 826.771 37.1117 822.72 39.14C817.367 41.8925 815.342 43.9207 815.342 46.0938C815.342 53.4823 812.159 60.2912 807.385 63.0438C804.781 64.6374 802.177 67.39 801.599 69.1284C800.441 72.3156 800.441 72.3156 799.863 68.8387C799.429 66.6656 800.007 64.6374 801.309 63.6233C804.058 61.5951 809.555 52.613 809.555 50.0053C809.555 48.122 814.619 37.1117 820.55 26.2464C821.707 24.0733 823.299 19.0028 823.877 14.9464C824.601 10.89 825.758 6.97842 826.771 5.96432C827.639 5.09509 828.362 0.169445 828.362 -4.7562C828.362 -15.9113 825.613 -21.1267 819.827 -21.1267C816.644 -21.1267 815.197 -19.9677 812.738 -14.7523C811.002 -11.2754 809.555 -7.50876 809.555 -6.20491C809.555 -4.90107 807.241 -2.1485 804.637 -0.120299C799.139 4.08098 794.221 12.9182 792.774 20.8861C791.038 31.4618 787.132 43.0515 784.239 46.0938C778.886 51.8887 776.716 56.2348 775.703 63.3335C774.835 69.4182 774.257 70.1425 771.797 69.4182C767.891 68.1143 763.696 73.6194 762.394 81.4425C761.96 84.7746 760.947 87.9617 760.224 88.3964C759.501 88.831 758.922 93.0323 758.922 97.6682C758.922 104.767 759.356 106.505 761.815 107.809C763.985 108.968 765.432 108.823 767.747 107.375C771.508 104.622 776.282 95.2053 776.282 90.4246C776.282 85.2092 777.439 84.34 781.49 87.0925C785.975 89.99 788.289 88.9758 791.761 82.3117C796.535 72.8951 797.837 74.4887 797.403 89.5553C797.114 100.566 797.548 104.622 799.718 109.403C801.454 113.314 802.322 118.819 802.322 125.339C802.322 130.699 803.045 135.625 803.769 136.059C804.637 136.494 805.215 138.957 805.215 141.419C805.215 143.882 806.662 148.084 808.253 150.836C811.147 155.472 811.291 156.631 809.845 167.641C808.687 176.623 808.832 183.287 810.279 194.732C811.436 203.135 812.304 210.089 812.304 210.234C812.449 210.523 814.619 213.131 817.367 216.028C821.273 220.375 822.431 223.272 823.299 230.081C825.179 245.727 834.004 249.059 838.923 236.021C840.369 231.964 841.961 227.184 842.395 225.155C842.829 223.127 844.42 219.94 845.867 218.057C847.313 216.173 851.219 206.177 854.402 195.601C857.729 185.171 860.912 175.464 861.78 174.16C862.503 172.712 863.082 169.669 863.082 167.496C863.082 162.571 869.592 153.009 875.813 148.518C878.127 146.925 880.587 143.737 881.021 141.709C881.599 139.536 883.046 136.928 884.059 135.769C885.216 134.61 886.229 132.437 886.229 130.989C886.229 125.773 896.5 125.484 898.381 130.699C901.419 139.246 901.853 141.854 900.695 148.808C898.959 159.963 897.079 166.627 892.015 179.521C885.939 195.167 884.782 197.485 880.297 203.425C876.102 209.075 869.303 227.763 867.277 238.628C866.699 242.395 864.095 249.639 861.78 254.419C857.006 263.981 856.283 269.051 859.031 275.426C860.044 277.599 861.201 288.609 861.635 299.764L862.359 320.191L867.422 326.566C872.341 332.795 872.341 333.085 872.485 346.993C872.485 360.466 874.077 365.681 877.838 365.681C880.153 365.681 893.317 352.498 894.33 349.166C895.343 345.544 903.589 332.071 905.614 330.622C908.797 328.449 908.797 331.491 905.614 344.095C901.274 360.61 898.815 365.681 892.594 371.331C887.965 375.677 887.675 376.401 887.675 385.963C887.675 391.468 887.097 396.249 886.373 396.684C885.795 397.118 884.782 404.362 884.203 412.764C883.625 421.167 882.612 429.714 881.744 431.887C879.574 437.537 879.285 476.363 881.455 478.826C882.323 479.985 883.48 484.766 884.059 489.546C885.505 501.716 888.109 506.207 893.607 506.207C900.261 506.207 902.431 512.871 902.431 533.732C902.431 546.481 903.01 551.262 904.746 554.304C907.784 559.664 909.665 559.375 914.005 553.145C918.345 547.06 920.515 548.799 918.055 556.332C915.307 564.59 916.753 586.466 920.37 590.377C922.54 592.695 923.408 597.041 924.565 608.776C925.867 622.249 926.301 624.277 928.616 624.277C930.497 624.277 932.233 621.525 934.981 613.412C937.151 607.037 940.623 600.373 943.517 597.186C948.58 591.536 953.354 582.699 954.945 576.035C955.524 573.862 957.694 568.791 959.719 564.88C964.059 556.767 967.965 555.173 973.752 558.94C975.633 560.244 979.828 561.258 982.866 561.258C987.785 561.258 989.376 560.389 993.861 555.463C996.754 552.276 999.069 548.799 999.069 547.64C999.069 546.481 999.792 545.322 1000.52 545.032C1002.11 544.598 1007.75 523.736 1007.75 518.521C1007.75 516.927 1009.63 510.553 1012.09 504.468C1014.84 497.08 1016.57 489.546 1017.15 482.013C1018.45 462.021 1019.47 454.922 1021.49 448.258C1023.95 440.725 1029.45 416.241 1030.17 409.867C1030.46 407.404 1031.62 402.913 1032.49 399.581C1033.93 394.8 1033.93 391.613 1032.2 382.921C1030.75 374.953 1030.46 369.013 1031.47 359.596C1033.07 343.66 1029.59 310.05 1025.83 304.255C1023.52 300.778 1022.5 300.489 1013.39 300.489C1001.96 300.489 1001.38 299.764 1002.25 286.581C1002.69 279.772 1002.83 279.482 1007.31 279.048C1013.54 278.468 1017.59 273.108 1024.39 256.448C1029.16 244.858 1029.59 242.685 1029.16 232.544C1028.87 226.459 1027.71 218.491 1026.56 214.725C1024.67 208.495 1024.82 207.191 1027.42 199.658C1030.75 189.662 1034.08 186.909 1037.84 191.11C1040.15 193.718 1040.44 195.891 1039.43 213.566C1039 224.286 1037.84 235.731 1036.97 238.918C1036.1 242.105 1035.09 251.522 1034.8 259.925C1034.37 268.327 1033.35 277.454 1032.49 280.207C1029.88 288.464 1030.46 291.651 1034.51 292.666C1036.54 293.1 1039 295.273 1040.01 297.446C1041.31 300.199 1042.76 301.068 1045.36 300.778C1050.14 300.199 1051.15 298.171 1050.86 288.899C1050.57 282.38 1051.44 279.193 1055.34 271.514C1059.97 262.532 1060.12 261.373 1059.97 247.61C1059.68 237.759 1058.96 232.109 1057.51 229.936C1053.75 223.996 1055.78 209.075 1061.71 200.382C1063.3 197.919 1064.46 192.994 1064.75 186.619C1065.04 181.114 1066.05 174.595 1066.92 171.987C1068.94 166.772 1067.5 162.426 1062.72 159.963C1060.41 158.804 1059.83 156.921 1059.83 151.705C1059.83 146.345 1060.7 144.172 1064.31 139.971C1068.65 135.045 1068.8 134.61 1067.93 123.89C1066.48 105.057 1066.34 103.608 1064.46 101.725C1061.56 98.8271 1046.66 99.4066 1041.89 102.449C1036.83 105.781 1035.96 108.534 1037.55 114.908C1039.43 121.717 1038.56 125.194 1035.09 125.194C1031.76 125.194 1030.17 119.978 1031.33 111.866C1032.34 104.187 1029.3 99.1169 1023.66 99.1169C1021.49 99.1169 1018.89 100.131 1017.88 101.29C1016.86 102.449 1014.98 103.463 1013.68 103.463C1012.38 103.463 1009.48 104.477 1007.17 105.636C1005 106.795 1002.54 107.519 1001.96 107.085C1001.24 106.65 999.647 103.028 998.345 99.1169C997.043 95.2053 995.307 91.5835 994.584 91.1489C993.861 90.5694 993.282 78.1105 993.282 63.0438C993.282 37.6912 993.137 35.5182 990.244 31.8964C988.074 29.1438 986.483 28.2746 983.879 28.9989C982.143 29.4335 980.262 29.1438 979.683 28.4194C979.249 27.6951 975.343 28.8541 970.569 31.172C965.94 33.49 961.6 35.3733 960.732 35.3733C960.009 35.5182 957.983 37.2566 956.392 39.2848C948.146 49.8605 944.529 53.1925 942.07 52.3233C939.755 51.4541 939.466 49.4259 939.9 35.663C940.045 27.1156 939.466 17.5541 938.598 14.3669C937.73 11.1797 936.717 6.97842 936.283 4.95021C935.849 2.92201 932.233 -2.58312 928.182 -7.36389C924.276 -11.9998 920.949 -17.36 920.949 -19.2434C920.949 -20.9818 923.263 -27.5011 926.157 -33.7306L931.365 -45.0306L930.352 -61.6908C929.195 -82.8421 926.735 -87.7677 917.621 -87.7677C914.294 -87.7677 909.954 -86.7536 907.929 -85.5947Z" fill="#FAEADE"/>
<path d="M681.959 -67.7754C679.789 -66.3267 676.172 -61.9806 674.147 -57.9241C671.977 -54.0126 669.373 -49.2318 668.36 -47.2036C667.203 -45.1754 666.335 -41.119 666.335 -38.2216C666.335 -35.3242 665.756 -31.4126 665.033 -29.5293C664.31 -27.6459 663.297 -24.4588 662.718 -22.1408C662.284 -19.9677 658.957 -15.4767 655.485 -12.1447C651.868 -8.66774 648.975 -5.19082 648.975 -4.17672C648.975 -3.16261 648.396 -1.13441 647.673 0.314308C646.805 1.61815 645.792 5.23995 645.358 8.13738C644.78 11.6143 643.622 13.7874 641.886 14.3669C636.244 16.1053 634.508 20.3066 632.338 36.2425C627.709 72.4605 625.684 82.8912 621.633 92.5976C620.186 96.2194 619.318 102.449 619.318 109.982C619.318 120.703 619.752 122.296 623.369 127.077C626.552 131.278 627.275 133.741 627.275 140.26C627.275 147.504 627.854 148.953 632.338 154.023C636.244 158.369 637.402 160.832 637.402 165.323C637.402 171.698 639.427 174.45 644.056 174.45C647.384 174.45 651.868 167.207 651.868 161.846C651.868 158.659 656.064 154.168 658.957 154.168C659.825 154.168 662.284 152.43 664.165 150.401C666.914 147.359 667.782 144.896 667.782 139.826C667.782 132.293 668.36 131.423 681.236 123.745C685.865 120.993 690.494 117.371 691.507 115.777C694.69 110.707 698.017 97.3784 698.74 85.7887C699.174 77.2412 700.332 72.8951 703.37 67.3899C706.842 60.8707 707.131 59.1323 706.408 49.5707C705.54 38.2707 707.42 25.8117 710.458 22.3348C712.773 19.7271 713.93 6.25405 714.943 -26.9216C715.956 -59.8075 713.352 -67.7754 701.344 -68.21C698.451 -68.3549 693.677 -68.9344 690.928 -69.5139C687.167 -70.2383 684.852 -69.8036 681.959 -67.7754Z" fill="#FAEADE"/>
<path d="M452.952 -36.9176C449.046 -35.9035 445.574 -33.5856 441.812 -29.3843C438.774 -26.0523 436.315 -22.8651 436.315 -22.2856C436.315 -21.7061 432.409 -14.7523 427.635 -6.92918C422.861 1.03877 418.955 8.13749 418.955 9.00672C418.955 10.6003 409.696 17.9888 407.526 17.9888C405.067 17.9888 403.331 22.7695 402.318 32.476C401.306 41.0234 399.859 47.6875 395.664 60.8708C394.94 63.3336 394.217 72.4606 394.072 81.1529C393.928 99.8413 392.626 103.753 382.933 114.618C373.24 125.484 371.938 128.816 369.045 149.532C365.718 173.002 366.586 187.054 371.938 197.775C374.253 202.121 376.568 207.481 377.146 209.944C377.725 212.262 380.329 219.795 382.788 226.604C385.392 233.413 388.286 242.105 389.443 246.162C394.506 265.43 397.11 277.02 397.255 280.931C397.4 287.305 399.136 289.479 403.186 288.175C410.275 286.002 413.313 280.931 418.376 263.546C421.125 253.84 429.082 243.989 434.145 243.989C435.881 243.989 438.34 245.148 439.498 246.452C444.995 252.826 445.718 256.013 445.863 280.352C446.152 301.648 446.586 305.125 449.19 310.34C452.662 317.149 456.134 319.612 459.606 317.873C460.908 317.149 464.814 311.789 468.286 305.994C471.758 300.199 475.664 294.259 476.966 292.811C478.268 291.362 481.74 284.118 484.778 276.875C487.672 269.486 490.999 261.373 492.156 258.766C493.314 256.158 494.182 251.232 494.182 247.755C494.182 243.409 495.05 240.802 497.075 238.918C498.666 237.47 500.113 236.6 500.402 236.89C506.044 244.713 506.334 246.017 506.768 270.066C507.057 293.245 509.372 308.602 514.29 321.205C515.158 323.523 515.882 327.87 515.882 331.057C515.882 338.011 521.668 347.862 526.876 349.745C528.902 350.614 532.084 350.759 534.11 350.325C539.318 349.021 546.262 339.894 546.262 334.389C546.262 331.926 547.564 325.407 549.155 319.902C550.891 314.396 552.916 307.298 553.784 304.111C555.376 298.75 560.15 289.044 562.175 287.45C562.754 287.016 564.345 283.829 565.792 280.207C568.106 274.557 568.396 269.052 568.54 238.918C568.685 212.986 569.264 203.28 570.71 200.672C573.025 196.471 573.17 136.349 570.855 129.975C569.987 127.802 566.949 122.586 564.2 118.53C559.571 111.866 558.269 110.996 551.325 109.403C546.985 108.389 543.079 106.94 542.645 106.216C537.292 97.8131 513.567 131.279 508.648 154.168C507.636 158.514 505.61 164.164 504.164 166.627C501.849 170.539 501.415 174.161 501.415 193.863C501.415 206.322 500.836 216.463 500.258 216.463C498.666 216.463 495.773 199.223 494.76 183.867C494.182 174.885 494.616 167.786 496.062 160.832C497.943 151.995 498.088 149.098 496.062 136.204C494.905 128.091 492.735 119.254 491.144 116.357C487.672 109.548 487.672 107.23 491.433 99.4067C494.182 94.0465 494.471 91.7285 493.458 83.4708C492.88 78.1106 492.156 65.217 491.867 54.9311C491.144 24.7977 487.382 1.03877 480.438 -18.9535C474.652 -35.6138 472.337 -38.5112 464.814 -38.3664C461.487 -38.2215 456.134 -37.642 452.952 -36.9176Z" fill="#FAEADE"/>
<path d="M246.802 110.997C246.802 112.011 244.776 116.792 242.462 121.572C240.147 126.353 238.122 130.989 238.122 131.713C238.122 132.583 236.241 134.9 233.926 136.929C231.178 139.392 227.561 146.056 223.221 156.921C214.686 178.217 211.648 180.68 202.244 173.436C198.049 170.394 196.747 169.959 194.577 171.263C193.13 172.277 191.105 173.002 190.092 173.002C187.488 173.002 180.255 180.535 180.255 183.288C180.255 184.736 179.676 186.04 178.808 186.33C176.783 187.054 171.72 202.121 171.43 208.64C171.141 214.58 167.814 226.025 163.184 236.745C161.159 241.671 160.291 247.9 159.712 261.663C159.278 271.804 158.266 280.931 157.542 281.945C156.674 282.959 155.517 286.726 154.938 290.348C153.926 297.447 153.058 300.924 148.862 314.252C146.548 321.93 146.258 327.87 146.548 368.868C146.692 408.708 147.126 415.807 149.296 421.747C153.058 432.032 154.215 432.902 165.354 432.902L175.192 433.047L176.06 441.015C177.506 452.749 176.494 455.502 171.141 455.502C166.367 455.502 158.555 461.586 158.555 465.208C158.555 466.367 156.674 471.293 154.36 476.218C147.705 490.85 146.403 495.776 148.139 501.716C151.466 513.306 152.768 527.213 151.032 533.153C148.862 540.397 145.68 544.163 142.063 543.584C139.17 543.149 139.025 541.99 138.591 524.461C138.302 511.567 138.88 503.454 140.327 498.384C141.484 494.327 142.786 482.448 143.365 472.162C143.944 461.731 144.956 452.604 145.824 451.59C146.548 450.721 146.982 447.679 146.692 445.071C146.403 441.449 145.535 440.145 143.22 439.856C141.484 439.566 139.459 437.827 138.591 435.799C137.434 433.481 135.698 432.322 133.383 432.322C129.043 432.322 126.005 438.986 127.307 445.65C128.32 451.156 124.848 461.586 119.784 467.816C116.891 471.293 116.457 473.031 117.325 477.957C117.759 481.144 118.193 486.215 118.048 489.257C118.048 492.299 118.916 498.529 120.218 503.02C123.112 512.871 122.244 521.129 117.036 532.139C115.01 536.485 113.13 543.294 112.84 547.35C112.696 551.407 111.972 558.071 111.538 561.982C110.67 568.502 110.96 569.516 114.287 572.703C119.206 577.339 119.495 586.321 115.01 591.102C110.381 596.027 109.368 603.85 111.249 618.482L112.985 631.521L118.916 633.549C124.269 635.432 125.426 635.288 131.502 632.825C139.459 629.493 141.34 626.016 140.182 616.309C139.314 609.066 139.459 608.776 142.786 609.356C145.969 609.79 146.258 610.514 146.692 619.931C147.126 630.072 149.441 635.143 153.781 635.143C154.794 635.143 158.121 633.549 161.159 631.811C169.405 626.595 175.192 625.871 177.651 629.782C183.872 639.489 185.029 646.588 185.174 673.534C185.318 693.526 185.752 700.48 187.344 702.218C189.514 704.971 200.219 705.55 204.559 703.377C205.861 702.653 210.056 700.77 213.818 699.031C218.447 696.858 222.787 693.091 226.838 687.876C236.096 675.997 237.254 677.156 238.266 699.611C239.424 724.673 242.462 735.249 249.984 740.609C253.167 742.927 256.928 749.881 256.928 753.648C256.928 755.097 254.614 760.747 251.865 766.397C247.38 775.379 246.802 777.552 246.946 787.982C246.946 803.484 248.682 812.755 252.154 817.391C254.758 820.723 256.06 821.303 261.413 820.868C268.791 820.434 280.943 813.77 285.138 808.12C286.73 805.947 290.346 801.311 293.24 797.834C301.341 787.982 304.668 780.159 304.668 770.888C304.668 766.397 305.247 762.485 305.97 762.05C306.549 761.616 307.562 758.573 307.996 755.386C308.43 751.764 310.455 747.708 313.204 744.521C316.676 740.609 317.688 738.002 317.688 733.511C317.688 727.571 321.594 722.211 325.934 722.066C326.947 722.066 330.419 716.561 333.746 709.752C339.388 698.017 339.967 697.438 344.452 697.438C356.17 697.438 363.114 691.208 364.56 679.618C365.573 672.23 366.007 671.216 369.479 670.347C371.649 669.912 373.819 668.753 374.398 667.884C374.976 667.014 375.844 666.725 376.278 667.304C376.712 667.739 375.121 671.071 372.662 674.693C370.347 678.314 368.322 682.661 368.322 684.399C368.322 686.282 365.428 692.512 361.812 698.597C357.327 705.985 355.302 711.056 355.302 714.677C355.157 717.575 354 722.5 352.408 725.688C349.37 731.917 348.647 742.782 350.962 748.722C352.553 752.923 357.038 755.676 360.22 754.517C363.258 753.358 368.322 744.955 368.322 741.189C368.322 739.45 371.07 735.394 374.542 731.917C381.052 725.398 383.367 720.182 387.996 701.059C389.732 693.816 391.758 689.47 395.085 685.848C399.859 680.632 402.608 674.838 403.331 668.463C403.62 665.856 404.778 664.697 407.526 664.407C411.577 663.972 414.181 659.191 417.219 646.298C420.691 632.1 418.376 623.698 411.432 625.436C407.382 626.45 402.897 634.853 401.74 644.125L400.872 649.92L396.821 646.732C393.349 643.98 392.481 643.835 390.456 645.573C389.154 646.588 387.273 649.63 386.116 652.093C382.788 660.206 381.342 657.598 381.342 643.4C381.342 632.825 380.763 628.768 378.448 624.277C376.857 621.09 375.555 615.73 375.555 611.963C375.41 599.504 372.951 587.77 369.19 581.685C365.862 576.615 365.573 575.166 367.164 572.413C368.177 570.385 368.756 562.707 368.756 551.117C368.611 531.994 367.598 528.227 358.195 512.002C356.604 509.249 355.302 505.482 355.302 503.744C355.302 498.673 350.817 490.561 347.49 489.691C343.584 488.532 339.967 492.879 337.797 500.847C336.929 504.179 334.759 509.684 332.878 513.016C330.998 516.348 329.117 521.129 328.538 523.591C327.96 525.909 326.947 528.227 326.224 528.662C325.5 529.241 324.922 531.415 324.922 533.588C324.922 535.906 324.054 538.513 322.896 539.382C321.739 540.397 320.437 544.453 319.858 548.654C319.28 552.711 318.267 557.057 317.544 558.361C316.965 559.52 315.952 562.997 315.518 565.894C314.94 569.806 312.48 573.862 306.983 579.657C302.788 584.293 297.869 591.102 295.988 595.013C291.07 605.009 288.466 607.038 283.113 604.865C278.484 602.836 277.182 599.07 277.182 587.335C277.182 580.816 281.232 565.025 285.138 556.188C286.151 553.725 288.755 548.22 290.636 543.873C292.661 539.382 295.844 533.443 297.724 530.69C301.196 525.475 306.694 509.829 311.178 491.72C312.625 486.504 314.361 481.289 315.374 480.13C321.016 472.886 321.45 469.409 317.833 451.88C317.11 447.823 316.386 438.262 316.386 430.439C316.242 415.517 314.795 410.447 308.43 403.638C305.826 400.74 305.247 397.843 304.668 384.804C303.945 370.462 303.656 369.303 300.907 368.868C296.712 368.289 286.874 378.285 282.39 387.702C279.062 394.8 272.697 403.348 270.672 403.348C269.37 403.348 269.948 397.553 271.974 390.599C273.131 386.832 274.867 380.603 276.024 376.691C277.326 371.476 279.496 368.144 284.126 364.232C290.057 358.872 290.202 358.582 290.202 349.456C290.202 344.385 291.07 337.286 292.227 333.665C293.384 330.188 294.686 320.771 295.12 312.658C295.554 304.545 296.567 295.129 297.435 291.507C300.473 279.772 297.435 250.363 291.504 233.124C289.623 227.908 288.9 227.329 284.27 226.894C279.496 226.459 278.918 225.88 277.037 220.375C276.024 217.043 274.722 206.177 274.288 196.326C273.71 181.549 273.131 178.072 271.106 176.768C269.225 175.609 267.923 175.899 265.174 178.507C263.294 180.245 261.558 181.694 261.124 181.694C260.834 181.694 260.545 173.581 260.545 163.73C260.545 146.345 260.4 145.766 256.928 142.868C253.601 140.261 253.312 138.812 253.167 128.236C253.022 121.717 252.444 114.908 252.01 112.88C251.142 109.258 246.802 107.809 246.802 110.997Z" fill="#FAEADE"/>
<path d="M653.46 256.013C649.12 259.2 646.516 262.387 645.648 265.575C645.069 268.182 642.754 273.108 640.729 276.295C638.704 279.627 636.389 284.553 635.81 287.305C633.93 295.853 638.704 326.131 643.333 335.548C644.056 336.996 644.635 339.604 644.635 341.487C644.635 343.371 646.66 347.572 649.12 350.904C651.579 354.381 653.894 359.596 654.328 362.784C654.906 366.985 656.353 369.737 659.68 372.345C671.254 381.762 675.304 385.818 680.368 392.772C684.708 398.712 686.733 400.45 689.916 400.45C692.086 400.45 693.822 399.726 693.822 399.002C693.822 396.973 699.03 397.118 702.936 399.291C704.672 400.16 709.735 403.637 714.075 406.969C718.415 410.302 724.346 414.068 727.095 415.372C733.316 417.98 756.607 419.863 760.224 417.835C761.67 417.11 764.274 413.054 766.155 408.998C770.64 398.422 769.916 384.225 764.564 377.126C760.947 372.345 752.267 354.816 749.084 346.123C748.216 343.66 747.204 339.025 746.914 335.693C746.046 328.304 741.128 317.584 736.788 313.672C733.46 310.63 722.9 302.082 715.377 296.287C712.918 294.259 708.867 290.058 706.552 286.871C701.055 279.193 686.588 264.271 684.563 264.271C683.84 264.271 680.368 261.663 677.04 258.331C668.65 250.073 662.284 249.494 653.46 256.013Z" fill="#FAEADE"/>
<path d="M34.5756 393.351C26.4743 396.539 22.2789 401.609 20.3983 410.591C19.8196 413.344 18.8069 416.241 18.2283 417.11C17.6496 417.835 16.6369 421.891 16.0583 425.948C15.0456 434.35 16.9263 437.248 23.5809 436.378C27.3423 435.944 27.6316 436.234 27.1976 441.014C25.0276 467.091 24.8829 465.932 28.4996 465.353C31.9716 464.918 41.9536 450.286 43.6896 442.898C44.2683 440.725 47.3063 434.06 50.3443 427.976C57.7223 413.634 60.1816 406.825 60.1816 399.436C60.1816 392.772 59.8923 392.627 48.6083 391.178C43.9789 390.599 39.9283 391.323 34.5756 393.351Z" fill="#FAEADE"/>
<path d="M634.219 414.068C631.904 416.241 629.445 422.036 628.143 428.121C627.564 430.873 626.118 432.177 623.369 432.757C616.714 434.205 615.557 435.799 614.689 444.781C613.676 454.777 611.796 457.385 601.814 462.166C597.763 464.049 593.423 466.802 591.976 468.395C588.36 472.307 583.875 486.359 583.875 493.748C583.875 502.875 581.126 514.754 577.944 520.259C575.629 524.026 575.195 527.213 575.484 539.093C575.629 550.393 575.05 554.884 572.736 561.258C568.54 572.703 566.081 598.78 566.804 624.277C567.528 651.513 568.685 653.976 580.403 653.976C584.598 653.976 588.504 654.555 588.938 655.425C590.24 657.453 597.184 657.163 600.222 654.7C606.443 650.064 614.978 631.376 616.28 619.496C617.438 608.776 620.476 603.126 627.42 598.49C631.47 595.737 632.628 593.854 633.93 586.9C635.81 577.484 638.848 571.979 643.044 570.675C644.924 570.095 646.226 568.067 646.66 565.17C647.094 562.562 648.107 555.898 648.975 550.393C652.592 526.489 657.655 500.557 659.97 493.168C663.586 481.289 664.165 472.162 661.416 466.512C660.114 463.759 659.102 461.007 659.102 460.138C659.102 459.413 658.089 457.964 656.932 456.95C655.485 455.791 654.762 452.459 654.762 446.664C654.762 439.421 654.183 437.682 650.856 434.64C648.252 432.177 646.226 427.976 644.635 421.891C642.899 414.648 641.742 412.62 639.282 412.33C637.691 412.04 635.376 412.909 634.219 414.068Z" fill="#FAEADE"/>
<path d="M73.9249 435.944C71.6103 437.103 67.8489 438.262 65.6789 438.696C62.6409 439.421 61.0496 441.449 58.0116 447.968C55.9863 452.459 53.2376 458.109 52.2249 460.572C51.0676 462.89 49.7656 467.236 49.3316 469.989C48.8976 472.741 47.0169 477.957 45.1363 481.578C33.2736 504.178 34.2863 500.846 34.1416 522.867C34.1416 549.089 38.0476 561.258 46.7276 561.258C51.3569 561.258 55.9863 550.827 56.9989 537.644C57.7223 528.082 57.8669 527.648 66.8363 517.651C71.7549 512.001 78.4096 503.744 81.4476 499.253L86.9449 490.995L87.3789 466.077L87.9576 441.159L84.1963 437.392C80.0009 433.336 79.8563 433.191 73.9249 435.944Z" fill="#FAEADE"/>
<path d="M804.347 487.084C802.756 488.098 796.391 498.528 793.787 504.034C793.063 505.627 790.749 508.525 788.723 510.408C786.698 512.436 784.962 514.609 784.962 515.334C784.962 516.637 782.503 522.722 778.452 531.559C773.389 542.425 770.495 551.696 770.495 557.057C770.495 560.244 769.483 564.445 768.181 566.328C765.721 570.095 766.011 585.596 769.193 612.398C770.061 620.076 770.351 629.493 769.772 633.259C766.445 658.032 768.036 682.371 773.533 690.484C777.15 695.554 777.005 699.611 773.244 705.695C770.351 710.331 770.206 711.635 771.363 728.295C772.087 738.002 772.521 747.853 772.376 750.316C771.942 756.98 775.993 797.109 777.439 800.007C778.163 801.311 779.175 805.512 779.754 809.134C781.056 817.536 787.566 834.776 791.472 839.557C795.667 844.772 798.416 845.352 808.543 843.034C819.103 840.571 824.311 835.645 831.255 821.303C833.715 816.377 836.897 811.162 838.344 809.858C839.935 808.409 842.539 804.063 844.131 800.152C846.445 795.081 848.76 792.184 852.955 789.866C859.465 786.099 863.082 779 863.082 770.018C863.082 766.976 864.095 761.326 865.397 757.414C869.013 745.535 870.605 735.249 871.328 718.009L871.907 701.494L878.417 695.119C881.889 691.498 884.782 688.166 884.782 687.441C884.782 686.862 885.939 685.268 887.386 683.819C892.305 679.473 896.066 661.509 897.368 635.432C897.947 624.277 897.513 620.8 894.909 613.846C893.173 609.211 891.292 604.864 890.569 603.995C889.99 603.271 888.833 600.228 887.965 597.476C887.097 594.723 884.782 587.769 882.612 582.264C876.247 565.314 870.46 543.439 869.013 530.69C867.711 519.39 866.843 517.796 862.503 517.796C859.031 517.796 850.062 525.62 850.062 528.662C850.062 534.457 843.407 550.537 838.778 555.463C832.847 562.272 830.387 562.562 824.601 557.636L820.405 554.014L819.537 529.096C818.669 502.295 817.367 495.776 811.725 489.691C808.109 485.78 806.951 485.345 804.347 487.084Z" fill="#FAEADE"/>
<path d="M-22.8568 672.23C-23.2908 673.534 -23.7248 676.431 -23.7248 678.749C-23.7248 681.936 -24.4482 682.95 -26.6182 682.95C-28.2095 682.95 -29.9455 684.109 -30.5242 685.413C-30.9582 686.862 -32.5495 690.628 -33.8515 693.816C-35.2981 697.003 -36.8895 703.667 -37.3235 708.737C-37.9021 713.663 -39.7828 722.645 -41.8081 728.585C-47.0161 744.81 -47.3055 747.998 -44.7015 762.05C-41.5188 779.869 -40.0721 783.636 -36.0215 785.809C-33.9961 786.823 -32.4048 788.272 -32.4048 788.852C-32.4048 789.431 -31.3921 790.88 -30.2348 792.184C-27.6308 794.646 -20.6868 793.198 -16.3468 789.286C-13.8875 787.113 -13.4535 787.113 -9.83682 790.01C-7.66682 791.749 -5.49682 793.053 -4.77349 793.053C-2.16949 793.053 0.868513 788.127 0.868513 783.781C0.868513 781.318 1.44718 778.566 2.02585 777.696C2.74918 776.972 4.48518 773.205 5.93185 769.294C8.96985 760.891 8.24651 749.591 3.90651 740.464C2.45985 737.132 0.289847 730.613 -0.578153 725.832C-1.59082 721.196 -3.47149 713.518 -5.06282 709.027C-6.50949 704.536 -7.95615 695.844 -8.24549 690.049C-8.67949 681.357 -9.40282 678.314 -12.1515 674.548C-15.9128 669.477 -21.4102 668.318 -22.8568 672.23Z" fill="#FAEADE"/>
</g>
</g>
<defs>
<filter id="filter0_f_1295_212" x="-125.388" y="-402.142" width="1277.51" height="1508.79" filterUnits="userSpaceOnUse" color-interpolation-filters="sRGB">
<feFlood flood-opacity="0" result="BackgroundImageFix"/>
<feBlend mode="normal" in="SourceGraphic" in2="BackgroundImageFix" result="shape"/>
<feGaussianBlur stdDeviation="125" result="effect1_foregroundBlur_1295_212"/>
</filter>
<clipPath id="clip0_1295_212">
<rect x="0.304688" width="1024" height="677" rx="40" fill="white"/>
</clipPath>
<clipPath id="clip1_1295_212">
<rect width="1302" height="1130" fill="white" transform="translate(-168.392 -205.114)"/>
</clipPath>
</defs>
</svg>
