<svg width="1025" height="677" viewBox="0 0 1025 677" fill="none" xmlns="http://www.w3.org/2000/svg">
<g clip-path="url(#clip0_1295_327)">
<rect x="0.305664" width="1024" height="677" rx="40" fill="#D7C5A3"/>
<g filter="url(#filter0_f_1295_327)">
<rect x="355.686" y="-152.142" width="565.715" height="892.798" transform="rotate(15 355.686 -152.142)" fill="#F2ECE1"/>
</g>
<g opacity="0.3" clip-path="url(#clip1_1295_327)">
<path d="M235.084 -194.249C232.914 -181.79 233.059 -181.934 214.252 -172.518C203.692 -167.157 202.39 -165.999 198.628 -158.9C195.88 -153.684 194.144 -147.02 193.131 -139.342C190.816 -120.654 189.225 -114.279 185.174 -107.76C181.413 -101.965 181.268 -100.516 181.124 -82.6973C180.979 -65.3126 180.69 -63.2844 177.218 -57.1998C174.469 -52.2742 173.167 -47.3485 172.444 -38.3665C171.865 -31.7024 170.852 -25.6178 170.129 -24.8934C167.67 -22.4306 168.393 27.2604 170.852 36.0976C173.746 45.804 176.784 47.8322 189.659 48.7014C195.301 49.1361 201.088 50.295 202.679 51.1643C206.585 53.6271 218.158 48.7014 221.63 43.0514C223.077 40.8784 226.404 35.5181 229.008 31.3168C231.757 27.1156 234.506 20.5963 235.229 16.8297C239.569 -6.06008 241.594 -10.2614 252.878 -17.2152C258.81 -21.1267 259.388 -21.996 262.571 -33.5857C265.754 -44.8857 266.332 -46.0447 270.094 -46.7691C277.182 -48.2178 280.076 -52.7088 281.522 -65.8921C282.246 -72.4114 283.258 -78.3511 283.837 -79.2203C284.271 -80.0896 285.139 -84.146 285.862 -88.2024C289.479 -111.961 292.372 -125.579 295.41 -131.954C297.291 -136.01 299.461 -143.688 300.184 -149.049C300.908 -154.264 301.92 -159.19 302.354 -160.059C303.512 -161.797 298.593 -172.663 293.964 -178.892C291.07 -182.804 290.202 -185.701 290.202 -191.206C290.202 -206.128 292.083 -205.114 262.716 -205.114H237.11L235.084 -194.249Z" fill="#FAEADE"/>
<path d="M807.675 -167.447C805.65 -165.854 801.889 -164.55 798.995 -164.55C793.498 -164.55 789.592 -161.507 782.648 -151.511C778.163 -144.847 773.968 -142.239 761.093 -137.748C752.268 -134.561 742.286 -124.855 740.984 -117.901C739.971 -112.83 736.065 -99.0676 734.185 -94.2869C728.398 -79.0753 726.951 -65.7471 730.713 -60.8215C732.015 -59.083 732.883 -54.4471 732.883 -47.2035C732.883 -34.8894 733.461 -33.5856 738.959 -32.1369C741.418 -31.5574 743.877 -29.3843 745.324 -26.7766C747.494 -22.2856 748.507 -22.1407 755.017 -24.7484C757.187 -25.6176 757.476 -24.7484 757.476 -15.6215C757.476 -4.32149 759.067 1.18364 763.552 5.96441C767.747 10.4554 769.049 10.1657 776.138 3.50159C779.465 0.314409 783.516 -2.29328 785.107 -2.29328C791.183 -2.29328 799.285 -8.52277 802.757 -16.0561C808.543 -28.3702 809.99 -33.0061 811.003 -45.0305C812.015 -55.4612 816.789 -77.0471 818.959 -80.6689C819.538 -81.3933 820.406 -85.0151 821.129 -88.9266C824.312 -106.166 825.903 -111.092 832.269 -123.986C839.068 -137.459 839.068 -138.038 838.779 -149.918C838.345 -161.942 836.319 -167.592 831.545 -169.62C828.797 -170.634 824.312 -168.027 823.299 -164.55C822.142 -160.928 816.789 -160.638 816.789 -164.26C816.789 -166.868 814.185 -170.345 812.305 -170.345C811.871 -170.345 809.701 -169.041 807.675 -167.447Z" fill="#FAEADE"/>
<path d="M50.6349 -137.893C48.7543 -136.445 47.0183 -136.3 43.9803 -137.314C41.6656 -138.183 37.1809 -138.328 33.7089 -137.893C30.3816 -137.314 24.4503 -136.734 20.5443 -136.445C16.0596 -136.155 12.7323 -134.996 11.7196 -133.547C10.7069 -132.243 8.10292 -131.229 5.78825 -131.229C0.290921 -131.229 -5.49575 -127.897 -17.3584 -118.191C-32.8377 -105.297 -36.7437 -101.241 -36.7437 -98.1984C-36.7437 -96.4599 -37.3224 -94.7214 -38.1904 -94.2868C-39.0584 -93.8522 -39.6371 -91.3894 -39.6371 -89.0714C-39.6371 -84.4355 -44.7004 -73.2804 -46.8704 -73.2804C-48.7511 -73.2804 -49.4744 -69.9484 -51.2104 -54.4471C-52.5124 -42.5676 -53.3804 -40.1048 -56.8524 -36.3381C-63.7964 -28.8048 -65.6771 -24.4586 -66.6897 -13.5932C-67.1237 -7.79837 -69.0044 0.314454 -70.8851 4.37086C-74.2124 12.0491 -74.3571 18.2786 -71.7531 33.0555C-70.4511 40.0093 -69.7277 40.8786 -62.3497 44.935C-59.1671 46.6734 -58.4437 47.9773 -58.4437 52.758C-58.4437 55.8003 -59.1671 58.8427 -59.8904 59.2773C-60.6137 59.7119 -61.3371 61.3055 -61.3371 62.7542C-61.3371 64.2029 -62.6391 67.1003 -64.2304 69.1286C-68.4257 74.3439 -67.8471 79.7042 -62.7837 84.9196C-59.7457 87.817 -58.4437 90.5696 -58.4437 93.7568C-58.4437 99.4068 -56.9971 101.725 -52.5124 104.043C-50.0531 105.202 -48.7511 107.375 -48.3171 110.852C-47.1597 118.82 -36.0204 132.438 -30.5231 132.438C-28.6424 132.438 -24.8811 134.176 -22.1324 136.204C-17.6477 139.681 -16.3457 139.826 -6.79775 139.246C8.24758 138.088 8.68159 138.667 7.81359 156.486C7.23492 165.613 6.22225 172.422 4.63092 175.175C3.32892 177.493 2.31625 180.245 2.31625 181.114C2.31625 181.839 0.869584 185.461 -0.866416 189.082C-3.61508 194.443 -4.19375 198.934 -4.91708 216.898C-5.49575 230.226 -6.50842 238.918 -7.52108 239.932C-10.4144 242.83 -9.54642 250.508 -5.92975 253.84C-4.04908 255.579 -1.58975 257.027 -0.28775 257.027C0.869584 257.027 4.48625 259.055 7.52425 261.518C11.2856 264.416 14.0343 265.575 16.0596 264.995C17.6509 264.561 20.9783 263.836 23.4376 263.257C28.0669 262.532 28.0669 262.532 30.3816 270.935C34.8663 287.016 34.1429 286.291 50.0563 288.754C57.1449 289.913 58.4469 289.768 61.3403 287.016C63.0763 285.422 64.5229 283.249 64.5229 282.235C64.5229 281.221 66.1143 278.468 68.1396 276.15C70.1649 273.832 73.6369 268.182 76.0962 263.546C80.7256 254.854 85.6442 247.031 88.2482 244.713C90.9969 242.25 95.7709 234.862 99.2429 228.053C100.979 224.431 103.872 219.94 105.608 217.912C110.672 212.262 115.446 199.368 116.314 189.372C117.182 178.652 113.71 164.454 108.646 157.79C105.753 154.023 102.281 143.448 96.4942 121.138C94.9029 115.488 91.4309 111.286 85.9336 108.389C76.0962 103.318 75.3729 97.6683 81.4489 72.3157C86.3676 51.4542 87.6696 20.7414 83.9082 13.3529C82.6062 10.7452 75.9516 3.06702 69.0076 -3.59708L56.5663 -15.7663L56.1323 -26.0522C55.5536 -37.642 58.1576 -43.8714 67.4163 -54.0125C80.1469 -67.6304 86.2229 -82.4073 86.2229 -99.0676C86.2229 -108.339 85.4996 -111.382 82.6062 -116.597C80.5809 -119.929 78.9896 -123.986 78.9896 -125.434C78.9896 -126.883 76.2409 -130.215 72.9136 -132.968C65.6803 -138.762 55.1196 -141.08 50.6349 -137.893Z" fill="#FAEADE"/>
<path d="M907.929 -85.5947C905.904 -84.4357 903.011 -82.987 901.419 -82.1177C897.513 -80.3793 893.029 -75.5985 885.217 -65.3126C877.115 -54.5921 874.511 -49.3767 873.933 -43.7267C872.341 -28.0806 869.882 -18.6639 866.265 -14.1729C858.454 -4.32158 858.454 -4.46645 860.334 -0.265171C861.781 2.92201 861.636 3.93611 859.466 6.39893C858.02 7.99252 855.705 9.29637 854.258 9.29637C852.378 9.29637 850.063 12.1938 847.025 18.2784C840.66 30.8823 837.043 35.3733 833.282 35.3733C831.546 35.3733 826.772 37.1117 822.721 39.14C817.368 41.8925 815.343 43.9207 815.343 46.0938C815.343 53.4823 812.16 60.2912 807.386 63.0438C804.782 64.6374 802.178 67.39 801.6 69.1284C800.442 72.3156 800.442 72.3156 799.864 68.8387C799.43 66.6656 800.008 64.6374 801.31 63.6233C804.059 61.5951 809.556 52.613 809.556 50.0053C809.556 48.122 814.62 37.1117 820.551 26.2464C821.708 24.0733 823.3 19.0028 823.878 14.9464C824.602 10.89 825.759 6.97842 826.772 5.96432C827.64 5.09509 828.363 0.169445 828.363 -4.7562C828.363 -15.9113 825.614 -21.1267 819.828 -21.1267C816.645 -21.1267 815.198 -19.9677 812.739 -14.7523C811.003 -11.2754 809.556 -7.50876 809.556 -6.20491C809.556 -4.90107 807.242 -2.1485 804.638 -0.120299C799.14 4.08098 794.222 12.9182 792.775 20.8861C791.039 31.4618 787.133 43.0515 784.24 46.0938C778.887 51.8887 776.717 56.2348 775.704 63.3335C774.836 69.4182 774.258 70.1425 771.798 69.4182C767.892 68.1143 763.697 73.6194 762.395 81.4425C761.961 84.7746 760.948 87.9617 760.225 88.3964C759.502 88.831 758.923 93.0323 758.923 97.6682C758.923 104.767 759.357 106.505 761.816 107.809C763.986 108.968 765.433 108.823 767.748 107.375C771.509 104.622 776.283 95.2053 776.283 90.4246C776.283 85.2092 777.44 84.34 781.491 87.0925C785.976 89.99 788.29 88.9758 791.762 82.3117C796.536 72.8951 797.838 74.4887 797.404 89.5553C797.115 100.566 797.549 104.622 799.719 109.403C801.455 113.314 802.323 118.819 802.323 125.339C802.323 130.699 803.046 135.625 803.77 136.059C804.638 136.494 805.216 138.957 805.216 141.419C805.216 143.882 806.663 148.084 808.254 150.836C811.148 155.472 811.292 156.631 809.846 167.641C808.688 176.623 808.833 183.287 810.28 194.732C811.437 203.135 812.305 210.089 812.305 210.234C812.45 210.523 814.62 213.131 817.368 216.028C821.274 220.375 822.432 223.272 823.3 230.081C825.18 245.727 834.005 249.059 838.924 236.021C840.37 231.964 841.962 227.184 842.396 225.155C842.83 223.127 844.421 219.94 845.868 218.057C847.314 216.173 851.22 206.177 854.403 195.601C857.73 185.171 860.913 175.464 861.781 174.16C862.504 172.712 863.083 169.669 863.083 167.496C863.083 162.571 869.593 153.009 875.813 148.518C878.128 146.925 880.587 143.737 881.021 141.709C881.6 139.536 883.047 136.928 884.059 135.769C885.217 134.61 886.229 132.437 886.229 130.989C886.229 125.773 896.501 125.484 898.381 130.699C901.419 139.246 901.853 141.854 900.696 148.808C898.96 159.963 897.079 166.627 892.016 179.521C885.94 195.167 884.783 197.485 880.298 203.425C876.103 209.075 869.303 227.763 867.278 238.628C866.699 242.395 864.096 249.639 861.781 254.419C857.007 263.981 856.284 269.051 859.032 275.426C860.045 277.599 861.202 288.609 861.636 299.764L862.36 320.191L867.423 326.566C872.341 332.795 872.341 333.085 872.486 346.993C872.486 360.466 874.077 365.681 877.839 365.681C880.153 365.681 893.318 352.498 894.331 349.166C895.343 345.544 903.589 332.071 905.615 330.622C908.797 328.449 908.797 331.491 905.615 344.095C901.275 360.61 898.815 365.681 892.595 371.331C887.965 375.677 887.676 376.401 887.676 385.963C887.676 391.468 887.097 396.249 886.374 396.684C885.795 397.118 884.783 404.362 884.204 412.764C883.625 421.167 882.613 429.714 881.745 431.887C879.575 437.537 879.285 476.363 881.455 478.826C882.323 479.985 883.481 484.766 884.059 489.546C885.506 501.716 888.11 506.207 893.607 506.207C900.262 506.207 902.432 512.871 902.432 533.732C902.432 546.481 903.011 551.262 904.747 554.304C907.785 559.664 909.665 559.375 914.005 553.145C918.345 547.06 920.515 548.799 918.056 556.332C915.307 564.59 916.754 586.466 920.371 590.377C922.541 592.695 923.409 597.041 924.566 608.776C925.868 622.249 926.302 624.277 928.617 624.277C930.497 624.277 932.233 621.525 934.982 613.412C937.152 607.037 940.624 600.373 943.517 597.186C948.581 591.536 953.355 582.699 954.946 576.035C955.525 573.862 957.695 568.791 959.72 564.88C964.06 556.767 967.966 555.173 973.753 558.94C975.633 560.244 979.829 561.258 982.867 561.258C987.785 561.258 989.377 560.389 993.861 555.463C996.755 552.276 999.069 548.799 999.069 547.64C999.069 546.481 999.793 545.322 1000.52 545.032C1002.11 544.598 1007.75 523.736 1007.75 518.521C1007.75 516.927 1009.63 510.553 1012.09 504.468C1014.84 497.08 1016.57 489.546 1017.15 482.013C1018.45 462.021 1019.47 454.922 1021.49 448.258C1023.95 440.725 1029.45 416.241 1030.17 409.867C1030.46 407.404 1031.62 402.913 1032.49 399.581C1033.93 394.8 1033.93 391.613 1032.2 382.921C1030.75 374.953 1030.46 369.013 1031.47 359.596C1033.07 343.66 1029.59 310.05 1025.83 304.255C1023.52 300.778 1022.51 300.489 1013.39 300.489C1001.96 300.489 1001.38 299.764 1002.25 286.581C1002.69 279.772 1002.83 279.482 1007.32 279.048C1013.54 278.468 1017.59 273.108 1024.39 256.448C1029.16 244.858 1029.59 242.685 1029.16 232.544C1028.87 226.459 1027.71 218.491 1026.56 214.725C1024.68 208.495 1024.82 207.191 1027.42 199.658C1030.75 189.662 1034.08 186.909 1037.84 191.11C1040.15 193.718 1040.44 195.891 1039.43 213.566C1039 224.286 1037.84 235.731 1036.97 238.918C1036.1 242.105 1035.09 251.522 1034.8 259.925C1034.37 268.327 1033.36 277.454 1032.49 280.207C1029.88 288.464 1030.46 291.651 1034.51 292.666C1036.54 293.1 1039 295.273 1040.01 297.446C1041.31 300.199 1042.76 301.068 1045.36 300.778C1050.14 300.199 1051.15 298.171 1050.86 288.899C1050.57 282.38 1051.44 279.193 1055.34 271.514C1059.97 262.532 1060.12 261.373 1059.97 247.61C1059.68 237.759 1058.96 232.109 1057.51 229.936C1053.75 223.996 1055.78 209.075 1061.71 200.382C1063.3 197.919 1064.46 192.994 1064.75 186.619C1065.04 181.114 1066.05 174.595 1066.92 171.987C1068.94 166.772 1067.5 162.426 1062.72 159.963C1060.41 158.804 1059.83 156.921 1059.83 151.705C1059.83 146.345 1060.7 144.172 1064.31 139.971C1068.65 135.045 1068.8 134.61 1067.93 123.89C1066.48 105.057 1066.34 103.608 1064.46 101.725C1061.57 98.8271 1046.66 99.4066 1041.89 102.449C1036.83 105.781 1035.96 108.534 1037.55 114.908C1039.43 121.717 1038.56 125.194 1035.09 125.194C1031.76 125.194 1030.17 119.978 1031.33 111.866C1032.34 104.187 1029.3 99.1169 1023.66 99.1169C1021.49 99.1169 1018.89 100.131 1017.88 101.29C1016.86 102.449 1014.98 103.463 1013.68 103.463C1012.38 103.463 1009.49 104.477 1007.17 105.636C1005 106.795 1002.54 107.519 1001.96 107.085C1001.24 106.65 999.648 103.028 998.346 99.1169C997.044 95.2053 995.308 91.5835 994.585 91.1489C993.861 90.5694 993.283 78.1105 993.283 63.0438C993.283 37.6912 993.138 35.5182 990.245 31.8964C988.075 29.1438 986.483 28.2746 983.879 28.9989C982.143 29.4335 980.263 29.1438 979.684 28.4194C979.25 27.6951 975.344 28.8541 970.57 31.172C965.941 33.49 961.601 35.3733 960.733 35.3733C960.009 35.5182 957.984 37.2566 956.393 39.2848C948.147 49.8605 944.53 53.1925 942.071 52.3233C939.756 51.4541 939.467 49.4259 939.901 35.663C940.045 27.1156 939.467 17.5541 938.599 14.3669C937.731 11.1797 936.718 6.97842 936.284 4.95021C935.85 2.92201 932.233 -2.58312 928.183 -7.36389C924.277 -11.9998 920.949 -17.36 920.949 -19.2434C920.949 -20.9818 923.264 -27.5011 926.157 -33.7306L931.365 -45.0306L930.353 -61.6908C929.195 -82.8421 926.736 -87.7677 917.622 -87.7677C914.295 -87.7677 909.955 -86.7536 907.929 -85.5947Z" fill="#FAEADE"/>
<path d="M681.96 -67.7754C679.79 -66.3267 676.173 -61.9806 674.148 -57.9241C671.978 -54.0126 669.374 -49.2318 668.361 -47.2036C667.204 -45.1754 666.336 -41.119 666.336 -38.2216C666.336 -35.3242 665.757 -31.4126 665.034 -29.5293C664.311 -27.6459 663.298 -24.4588 662.719 -22.1408C662.285 -19.9677 658.958 -15.4767 655.486 -12.1447C651.869 -8.66774 648.976 -5.19082 648.976 -4.17672C648.976 -3.16261 648.397 -1.13441 647.674 0.314308C646.806 1.61815 645.793 5.23995 645.359 8.13738C644.781 11.6143 643.623 13.7874 641.887 14.3669C636.245 16.1053 634.509 20.3066 632.339 36.2425C627.71 72.4605 625.685 82.8912 621.634 92.5976C620.187 96.2194 619.319 102.449 619.319 109.982C619.319 120.703 619.753 122.296 623.37 127.077C626.553 131.278 627.276 133.741 627.276 140.26C627.276 147.504 627.855 148.953 632.339 154.023C636.245 158.369 637.403 160.832 637.403 165.323C637.403 171.698 639.428 174.45 644.057 174.45C647.385 174.45 651.869 167.207 651.869 161.846C651.869 158.659 656.065 154.168 658.958 154.168C659.826 154.168 662.285 152.43 664.166 150.401C666.915 147.359 667.783 144.896 667.783 139.826C667.783 132.293 668.361 131.423 681.237 123.745C685.866 120.993 690.495 117.371 691.508 115.777C694.691 110.707 698.018 97.3784 698.741 85.7887C699.175 77.2412 700.333 72.8951 703.371 67.3899C706.843 60.8707 707.132 59.1323 706.409 49.5707C705.541 38.2707 707.421 25.8117 710.459 22.3348C712.774 19.7271 713.931 6.25405 714.944 -26.9216C715.957 -59.8075 713.353 -67.7754 701.345 -68.21C698.452 -68.3549 693.678 -68.9344 690.929 -69.5139C687.168 -70.2383 684.853 -69.8036 681.96 -67.7754Z" fill="#FAEADE"/>
<path d="M452.953 -36.9176C449.047 -35.9035 445.575 -33.5856 441.813 -29.3843C438.775 -26.0523 436.316 -22.8651 436.316 -22.2856C436.316 -21.7061 432.41 -14.7523 427.636 -6.92918C422.862 1.03877 418.956 8.13749 418.956 9.00672C418.956 10.6003 409.697 17.9888 407.527 17.9888C405.068 17.9888 403.332 22.7695 402.319 32.476C401.307 41.0234 399.86 47.6875 395.665 60.8708C394.941 63.3336 394.218 72.4606 394.073 81.1529C393.929 99.8413 392.627 103.753 382.934 114.618C373.241 125.484 371.939 128.816 369.046 149.532C365.719 173.002 366.587 187.054 371.939 197.775C374.254 202.121 376.569 207.481 377.147 209.944C377.726 212.262 380.33 219.795 382.789 226.604C385.393 233.413 388.287 242.105 389.444 246.162C394.507 265.43 397.111 277.02 397.256 280.931C397.401 287.305 399.137 289.479 403.187 288.175C410.276 286.002 413.314 280.931 418.377 263.546C421.126 253.84 429.083 243.989 434.146 243.989C435.882 243.989 438.341 245.148 439.499 246.452C444.996 252.826 445.719 256.013 445.864 280.352C446.153 301.648 446.587 305.125 449.191 310.34C452.663 317.149 456.135 319.612 459.607 317.873C460.909 317.149 464.815 311.789 468.287 305.994C471.759 300.199 475.665 294.259 476.967 292.811C478.269 291.362 481.741 284.118 484.779 276.875C487.673 269.486 491 261.373 492.157 258.766C493.315 256.158 494.183 251.232 494.183 247.755C494.183 243.409 495.051 240.802 497.076 238.918C498.667 237.47 500.114 236.6 500.403 236.89C506.045 244.713 506.335 246.017 506.769 270.066C507.058 293.245 509.373 308.602 514.291 321.205C515.159 323.523 515.883 327.87 515.883 331.057C515.883 338.011 521.669 347.862 526.877 349.745C528.903 350.614 532.085 350.759 534.111 350.325C539.319 349.021 546.263 339.894 546.263 334.389C546.263 331.926 547.565 325.407 549.156 319.902C550.892 314.396 552.917 307.298 553.785 304.111C555.377 298.75 560.151 289.044 562.176 287.45C562.755 287.016 564.346 283.829 565.793 280.207C568.107 274.557 568.397 269.052 568.541 238.918C568.686 212.986 569.265 203.28 570.711 200.672C573.026 196.471 573.171 136.349 570.856 129.975C569.988 127.802 566.95 122.586 564.201 118.53C559.572 111.866 558.27 110.996 551.326 109.403C546.986 108.389 543.08 106.94 542.646 106.216C537.293 97.8131 513.568 131.279 508.649 154.168C507.637 158.514 505.611 164.164 504.165 166.627C501.85 170.539 501.416 174.161 501.416 193.863C501.416 206.322 500.837 216.463 500.259 216.463C498.667 216.463 495.774 199.223 494.761 183.867C494.183 174.885 494.617 167.786 496.063 160.832C497.944 151.995 498.089 149.098 496.063 136.204C494.906 128.091 492.736 119.254 491.145 116.357C487.673 109.548 487.673 107.23 491.434 99.4067C494.183 94.0465 494.472 91.7285 493.459 83.4708C492.881 78.1106 492.157 65.217 491.868 54.9311C491.145 24.7977 487.383 1.03877 480.439 -18.9535C474.653 -35.6138 472.338 -38.5112 464.815 -38.3664C461.488 -38.2215 456.135 -37.642 452.953 -36.9176Z" fill="#FAEADE"/>
<path d="M246.802 110.997C246.802 112.011 244.777 116.792 242.462 121.572C240.148 126.353 238.122 130.989 238.122 131.713C238.122 132.583 236.242 134.9 233.927 136.929C231.178 139.392 227.562 146.056 223.222 156.921C214.686 178.217 211.648 180.68 202.245 173.436C198.05 170.394 196.748 169.959 194.578 171.263C193.131 172.277 191.106 173.002 190.093 173.002C187.489 173.002 180.256 180.535 180.256 183.288C180.256 184.736 179.677 186.04 178.809 186.33C176.784 187.054 171.721 202.121 171.431 208.64C171.142 214.58 167.815 226.025 163.185 236.745C161.16 241.671 160.292 247.9 159.713 261.663C159.279 271.804 158.267 280.931 157.543 281.945C156.675 282.959 155.518 286.726 154.939 290.348C153.927 297.447 153.059 300.924 148.863 314.252C146.549 321.93 146.259 327.87 146.549 368.868C146.693 408.708 147.127 415.807 149.297 421.747C153.059 432.032 154.216 432.902 165.355 432.902L175.193 433.047L176.061 441.015C177.507 452.749 176.495 455.502 171.142 455.502C166.368 455.502 158.556 461.586 158.556 465.208C158.556 466.367 156.675 471.293 154.361 476.218C147.706 490.85 146.404 495.776 148.14 501.716C151.467 513.306 152.769 527.213 151.033 533.153C148.863 540.397 145.681 544.163 142.064 543.584C139.171 543.149 139.026 541.99 138.592 524.461C138.303 511.567 138.881 503.454 140.328 498.384C141.485 494.327 142.787 482.448 143.366 472.162C143.945 461.731 144.957 452.604 145.825 451.59C146.549 450.721 146.983 447.679 146.693 445.071C146.404 441.449 145.536 440.145 143.221 439.856C141.485 439.566 139.46 437.827 138.592 435.799C137.435 433.481 135.699 432.322 133.384 432.322C129.044 432.322 126.006 438.986 127.308 445.65C128.321 451.156 124.849 461.586 119.785 467.816C116.892 471.293 116.458 473.031 117.326 477.957C117.76 481.144 118.194 486.215 118.049 489.257C118.049 492.299 118.917 498.529 120.219 503.02C123.113 512.871 122.245 521.129 117.037 532.139C115.011 536.485 113.131 543.294 112.841 547.35C112.697 551.407 111.973 558.071 111.539 561.982C110.671 568.502 110.961 569.516 114.288 572.703C119.207 577.339 119.496 586.321 115.011 591.102C110.382 596.027 109.369 603.85 111.25 618.482L112.986 631.521L118.917 633.549C124.27 635.432 125.427 635.288 131.503 632.825C139.46 629.493 141.341 626.016 140.183 616.309C139.315 609.066 139.46 608.776 142.787 609.356C145.97 609.79 146.259 610.514 146.693 619.931C147.127 630.072 149.442 635.143 153.782 635.143C154.795 635.143 158.122 633.549 161.16 631.811C169.406 626.595 175.193 625.871 177.652 629.782C183.873 639.489 185.03 646.588 185.175 673.534C185.319 693.526 185.753 700.48 187.345 702.218C189.515 704.971 200.22 705.55 204.56 703.377C205.862 702.653 210.057 700.77 213.818 699.031C218.448 696.858 222.788 693.091 226.838 687.876C236.097 675.997 237.254 677.156 238.267 699.611C239.424 724.673 242.462 735.249 249.985 740.609C253.168 742.927 256.929 749.881 256.929 753.648C256.929 755.097 254.614 760.747 251.866 766.397C247.381 775.379 246.802 777.552 246.947 787.982C246.947 803.484 248.683 812.755 252.155 817.391C254.759 820.723 256.061 821.303 261.414 820.868C268.792 820.434 280.944 813.77 285.139 808.12C286.73 805.947 290.347 801.311 293.24 797.834C301.342 787.982 304.669 780.159 304.669 770.888C304.669 766.397 305.248 762.485 305.971 762.05C306.55 761.616 307.562 758.573 307.996 755.386C308.43 751.764 310.456 747.708 313.204 744.521C316.676 740.609 317.689 738.002 317.689 733.511C317.689 727.571 321.595 722.211 325.935 722.066C326.948 722.066 330.42 716.561 333.747 709.752C339.389 698.017 339.968 697.438 344.452 697.438C356.17 697.438 363.114 691.208 364.561 679.618C365.574 672.23 366.008 671.216 369.48 670.347C371.65 669.912 373.82 668.753 374.398 667.884C374.977 667.014 375.845 666.725 376.279 667.304C376.713 667.739 375.122 671.071 372.662 674.693C370.348 678.314 368.322 682.661 368.322 684.399C368.322 686.282 365.429 692.512 361.812 698.597C357.328 705.985 355.302 711.056 355.302 714.677C355.158 717.575 354 722.5 352.409 725.688C349.371 731.917 348.648 742.782 350.962 748.722C352.554 752.923 357.038 755.676 360.221 754.517C363.259 753.358 368.322 744.955 368.322 741.189C368.322 739.45 371.071 735.394 374.543 731.917C381.053 725.398 383.368 720.182 387.997 701.059C389.733 693.816 391.758 689.47 395.086 685.848C399.86 680.632 402.608 674.838 403.332 668.463C403.621 665.856 404.778 664.697 407.527 664.407C411.578 663.972 414.182 659.191 417.22 646.298C420.692 632.1 418.377 623.698 411.433 625.436C407.382 626.45 402.898 634.853 401.74 644.125L400.872 649.92L396.822 646.732C393.35 643.98 392.482 643.835 390.456 645.573C389.154 646.588 387.274 649.63 386.116 652.093C382.789 660.206 381.342 657.598 381.342 643.4C381.342 632.825 380.764 628.768 378.449 624.277C376.858 621.09 375.556 615.73 375.556 611.963C375.411 599.504 372.952 587.77 369.19 581.685C365.863 576.615 365.574 575.166 367.165 572.413C368.178 570.385 368.756 562.707 368.756 551.117C368.612 531.994 367.599 528.227 358.196 512.002C356.604 509.249 355.302 505.482 355.302 503.744C355.302 498.673 350.818 490.561 347.49 489.691C343.584 488.532 339.968 492.879 337.798 500.847C336.93 504.179 334.76 509.684 332.879 513.016C330.998 516.348 329.118 521.129 328.539 523.591C327.96 525.909 326.948 528.227 326.224 528.662C325.501 529.241 324.922 531.415 324.922 533.588C324.922 535.906 324.054 538.513 322.897 539.382C321.74 540.397 320.438 544.453 319.859 548.654C319.28 552.711 318.268 557.057 317.544 558.361C316.966 559.52 315.953 562.997 315.519 565.894C314.94 569.806 312.481 573.862 306.984 579.657C302.788 584.293 297.87 591.102 295.989 595.013C291.07 605.009 288.466 607.038 283.114 604.865C278.484 602.836 277.182 599.07 277.182 587.335C277.182 580.816 281.233 565.025 285.139 556.188C286.152 553.725 288.756 548.22 290.636 543.873C292.662 539.382 295.844 533.443 297.725 530.69C301.197 525.475 306.694 509.829 311.179 491.72C312.626 486.504 314.362 481.289 315.374 480.13C321.016 472.886 321.45 469.409 317.834 451.88C317.11 447.823 316.387 438.262 316.387 430.439C316.242 415.517 314.796 410.447 308.43 403.638C305.826 400.74 305.248 397.843 304.669 384.804C303.946 370.462 303.656 369.303 300.908 368.868C296.712 368.289 286.875 378.285 282.39 387.702C279.063 394.8 272.698 403.348 270.672 403.348C269.37 403.348 269.949 397.553 271.974 390.599C273.132 386.832 274.868 380.603 276.025 376.691C277.327 371.476 279.497 368.144 284.126 364.232C290.058 358.872 290.202 358.582 290.202 349.456C290.202 344.385 291.07 337.286 292.228 333.665C293.385 330.188 294.687 320.771 295.121 312.658C295.555 304.545 296.568 295.129 297.436 291.507C300.474 279.772 297.436 250.363 291.504 233.124C289.624 227.908 288.9 227.329 284.271 226.894C279.497 226.459 278.918 225.88 277.038 220.375C276.025 217.043 274.723 206.177 274.289 196.326C273.71 181.549 273.132 178.072 271.106 176.768C269.226 175.609 267.924 175.899 265.175 178.507C263.294 180.245 261.558 181.694 261.124 181.694C260.835 181.694 260.546 173.581 260.546 163.73C260.546 146.345 260.401 145.766 256.929 142.868C253.602 140.261 253.312 138.812 253.168 128.236C253.023 121.717 252.444 114.908 252.01 112.88C251.142 109.258 246.802 107.809 246.802 110.997Z" fill="#FAEADE"/>
<path d="M653.461 256.013C649.121 259.2 646.517 262.387 645.649 265.575C645.07 268.182 642.755 273.108 640.73 276.295C638.705 279.627 636.39 284.553 635.811 287.305C633.931 295.853 638.705 326.131 643.334 335.548C644.057 336.996 644.636 339.604 644.636 341.487C644.636 343.371 646.661 347.572 649.121 350.904C651.58 354.381 653.895 359.596 654.329 362.784C654.907 366.985 656.354 369.737 659.681 372.345C671.255 381.762 675.305 385.818 680.369 392.772C684.709 398.712 686.734 400.45 689.917 400.45C692.087 400.45 693.823 399.726 693.823 399.002C693.823 396.973 699.031 397.118 702.937 399.291C704.673 400.16 709.736 403.637 714.076 406.969C718.416 410.302 724.347 414.068 727.096 415.372C733.317 417.98 756.608 419.863 760.225 417.835C761.671 417.11 764.275 413.054 766.156 408.998C770.641 398.422 769.917 384.225 764.565 377.126C760.948 372.345 752.268 354.816 749.085 346.123C748.217 343.66 747.205 339.025 746.915 335.693C746.047 328.304 741.129 317.584 736.789 313.672C733.461 310.63 722.901 302.082 715.378 296.287C712.919 294.259 708.868 290.058 706.553 286.871C701.056 279.193 686.589 264.271 684.564 264.271C683.841 264.271 680.369 261.663 677.041 258.331C668.651 250.073 662.285 249.494 653.461 256.013Z" fill="#FAEADE"/>
<path d="M34.5766 393.351C26.4753 396.539 22.2799 401.609 20.3993 410.591C19.8206 413.344 18.8079 416.241 18.2293 417.11C17.6506 417.835 16.6379 421.891 16.0593 425.948C15.0466 434.35 16.9273 437.248 23.5819 436.378C27.3433 435.944 27.6326 436.234 27.1986 441.014C25.0286 467.091 24.8839 465.932 28.5006 465.353C31.9726 464.918 41.9546 450.286 43.6906 442.898C44.2693 440.725 47.3073 434.06 50.3453 427.976C57.7233 413.634 60.1826 406.825 60.1826 399.436C60.1826 392.772 59.8933 392.627 48.6093 391.178C43.9799 390.599 39.9293 391.323 34.5766 393.351Z" fill="#FAEADE"/>
<path d="M634.22 414.068C631.905 416.241 629.446 422.036 628.144 428.121C627.565 430.873 626.119 432.177 623.37 432.757C616.715 434.205 615.558 435.799 614.69 444.781C613.677 454.777 611.797 457.385 601.815 462.166C597.764 464.049 593.424 466.802 591.977 468.395C588.361 472.307 583.876 486.359 583.876 493.748C583.876 502.875 581.127 514.754 577.945 520.259C575.63 524.026 575.196 527.213 575.485 539.093C575.63 550.393 575.051 554.884 572.737 561.258C568.541 572.703 566.082 598.78 566.805 624.277C567.529 651.513 568.686 653.976 580.404 653.976C584.599 653.976 588.505 654.555 588.939 655.425C590.241 657.453 597.185 657.163 600.223 654.7C606.444 650.064 614.979 631.376 616.281 619.496C617.439 608.776 620.477 603.126 627.421 598.49C631.471 595.737 632.629 593.854 633.931 586.9C635.811 577.484 638.849 571.979 643.045 570.675C644.925 570.095 646.227 568.067 646.661 565.17C647.095 562.562 648.108 555.898 648.976 550.393C652.593 526.489 657.656 500.557 659.971 493.168C663.587 481.289 664.166 472.162 661.417 466.512C660.115 463.759 659.103 461.007 659.103 460.138C659.103 459.413 658.09 457.964 656.933 456.95C655.486 455.791 654.763 452.459 654.763 446.664C654.763 439.421 654.184 437.682 650.857 434.64C648.253 432.177 646.227 427.976 644.636 421.891C642.9 414.648 641.743 412.62 639.283 412.33C637.692 412.04 635.377 412.909 634.22 414.068Z" fill="#FAEADE"/>
<path d="M73.9259 435.944C71.6112 437.103 67.8499 438.262 65.6799 438.696C62.6419 439.421 61.0506 441.449 58.0126 447.968C55.9872 452.459 53.2386 458.109 52.2259 460.572C51.0686 462.89 49.7666 467.236 49.3326 469.989C48.8986 472.741 47.0179 477.957 45.1372 481.578C33.2746 504.178 34.2872 500.846 34.1426 522.867C34.1426 549.089 38.0486 561.258 46.7286 561.258C51.3579 561.258 55.9872 550.827 56.9999 537.644C57.7232 528.082 57.8679 527.648 66.8372 517.651C71.7559 512.001 78.4106 503.744 81.4486 499.253L86.9459 490.995L87.3799 466.077L87.9586 441.159L84.1972 437.392C80.0019 433.336 79.8572 433.191 73.9259 435.944Z" fill="#FAEADE"/>
<path d="M804.348 487.084C802.757 488.098 796.392 498.528 793.788 504.034C793.064 505.627 790.75 508.525 788.724 510.408C786.699 512.436 784.963 514.609 784.963 515.334C784.963 516.637 782.504 522.722 778.453 531.559C773.39 542.425 770.496 551.696 770.496 557.057C770.496 560.244 769.484 564.445 768.182 566.328C765.722 570.095 766.012 585.596 769.194 612.398C770.062 620.076 770.352 629.493 769.773 633.259C766.446 658.032 768.037 682.371 773.534 690.484C777.151 695.554 777.006 699.611 773.245 705.695C770.352 710.331 770.207 711.635 771.364 728.295C772.088 738.002 772.522 747.853 772.377 750.316C771.943 756.98 775.994 797.109 777.44 800.007C778.164 801.311 779.176 805.512 779.755 809.134C781.057 817.536 787.567 834.776 791.473 839.557C795.668 844.772 798.417 845.352 808.544 843.034C819.104 840.571 824.312 835.645 831.256 821.303C833.716 816.377 836.898 811.162 838.345 809.858C839.936 808.409 842.54 804.063 844.132 800.152C846.446 795.081 848.761 792.184 852.956 789.866C859.466 786.099 863.083 779 863.083 770.018C863.083 766.976 864.096 761.326 865.398 757.414C869.014 745.535 870.606 735.249 871.329 718.009L871.908 701.494L878.418 695.119C881.89 691.498 884.783 688.166 884.783 687.441C884.783 686.862 885.94 685.268 887.387 683.819C892.306 679.473 896.067 661.509 897.369 635.432C897.948 624.277 897.514 620.8 894.91 613.846C893.174 609.211 891.293 604.864 890.57 603.995C889.991 603.271 888.834 600.228 887.966 597.476C887.098 594.723 884.783 587.769 882.613 582.264C876.248 565.314 870.461 543.439 869.014 530.69C867.712 519.39 866.844 517.796 862.504 517.796C859.032 517.796 850.063 525.62 850.063 528.662C850.063 534.457 843.408 550.537 838.779 555.463C832.848 562.272 830.388 562.562 824.602 557.636L820.406 554.014L819.538 529.096C818.67 502.295 817.368 495.776 811.726 489.691C808.11 485.78 806.952 485.345 804.348 487.084Z" fill="#FAEADE"/>
<path d="M-22.8558 672.23C-23.2898 673.534 -23.7238 676.431 -23.7238 678.749C-23.7238 681.936 -24.4472 682.95 -26.6172 682.95C-28.2085 682.95 -29.9445 684.109 -30.5232 685.413C-30.9572 686.862 -32.5485 690.628 -33.8505 693.816C-35.2972 697.003 -36.8885 703.667 -37.3225 708.737C-37.9012 713.663 -39.7818 722.645 -41.8072 728.585C-47.0152 744.81 -47.3045 747.998 -44.7005 762.05C-41.5178 779.869 -40.0712 783.636 -36.0205 785.809C-33.9952 786.823 -32.4038 788.272 -32.4038 788.852C-32.4038 789.431 -31.3912 790.88 -30.2338 792.184C-27.6298 794.646 -20.6858 793.198 -16.3458 789.286C-13.8865 787.113 -13.4525 787.113 -9.83584 790.01C-7.66584 791.749 -5.49584 793.053 -4.77251 793.053C-2.16851 793.053 0.86949 788.127 0.86949 783.781C0.86949 781.318 1.44816 778.566 2.02682 777.696C2.75016 776.972 4.48616 773.205 5.93282 769.294C8.97082 760.891 8.24749 749.591 3.90749 740.464C2.46082 737.132 0.290823 730.613 -0.577177 725.832C-1.58984 721.196 -3.47051 713.518 -5.06184 709.027C-6.50851 704.536 -7.95518 695.844 -8.24451 690.049C-8.67851 681.357 -9.40184 678.314 -12.1505 674.548C-15.9118 669.477 -21.4092 668.318 -22.8558 672.23Z" fill="#FAEADE"/>
</g>
</g>
<defs>
<filter id="filter0_f_1295_327" x="-125.387" y="-402.142" width="1277.51" height="1508.79" filterUnits="userSpaceOnUse" color-interpolation-filters="sRGB">
<feFlood flood-opacity="0" result="BackgroundImageFix"/>
<feBlend mode="normal" in="SourceGraphic" in2="BackgroundImageFix" result="shape"/>
<feGaussianBlur stdDeviation="125" result="effect1_foregroundBlur_1295_327"/>
</filter>
<clipPath id="clip0_1295_327">
<rect x="0.305664" width="1024" height="677" rx="40" fill="white"/>
</clipPath>
<clipPath id="clip1_1295_327">
<rect width="1302" height="1130" fill="white" transform="translate(-168.391 -205.114)"/>
</clipPath>
</defs>
</svg>
