<svg width="1920" height="316" viewBox="0 0 1920 316" fill="none" xmlns="http://www.w3.org/2000/svg">
<path d="M1834 153.102C1765.94 154.632 1752.69 83.3973 1684.67 85.6016C1632.43 87.2942 1618.03 128.2 1566 132.102C1513.94 136.006 1486.61 90.9176 1437.33 104.102C1392.64 116.059 1427.9 147.183 1399.33 175.602C1381.61 193.234 1347.92 187.252 1331.33 206.102C1306.74 234.051 1295.64 284.832 1252.67 290.602C1157.56 303.372 1218.93 151.944 1126 132.102C1051.62 116.221 1013.97 177.104 936.667 175.602C875.463 174.412 847.187 144.71 786 143.102C729.002 141.604 699.602 166.608 642.667 164.102C587.099 161.656 559.895 119.887 506.667 132.102C466.139 141.401 467.524 178.653 426.667 187.102C402.823 192.032 387.046 181.829 363.333 187.102C295.291 202.232 360.303 315.102 289.333 315.102C208.667 315.102 287.744 175.463 198 152.602C120.587 132.881 0 203.602 0 203.602V0H1920V132.102C1920 132.102 1869.3 152.308 1834 153.102Z" fill="#FAEADE"/>
</svg>
