<svg width="559" height="232" viewBox="0 0 559 232" fill="none" xmlns="http://www.w3.org/2000/svg">
<path fill-rule="evenodd" clip-rule="evenodd" d="M541 17H17V214H541V17ZM81.4227 88.95L77.8227 107.85H76.3227L72.7227 88.95L64.6227 44.25L42.2727 44.1L66.7227 145.5V186H86.6727V145.95L111.273 44.1L89.3727 44.25L81.4227 88.95ZM159.177 51.15C154.177 45.75 146.977 43.05 137.577 43.05C128.277 43.05 121.127 45.75 116.127 51.15C111.127 56.55 108.627 64.15 108.627 73.95V156.3C108.627 166.2 111.127 173.85 116.127 179.25C121.127 184.65 128.277 187.35 137.577 187.35C146.877 187.35 154.077 184.65 159.177 179.25C164.277 173.85 166.827 166.2 166.827 156.3V73.95C166.827 64.15 164.277 56.55 159.177 51.15ZM146.727 70.95V159.3C146.727 162.5 145.877 165.1 144.177 167.1C142.577 169 140.427 169.95 137.727 169.95C135.127 169.95 132.977 169 131.277 167.1C129.577 165.1 128.727 162.5 128.727 159.3V70.95C128.727 67.75 129.577 65.2 131.277 63.3C132.977 61.4 135.177 60.45 137.877 60.45C140.577 60.45 142.727 61.4 144.327 63.3C145.927 65.2 146.727 67.75 146.727 70.95ZM231.847 161.55V44.25H212.047V160.2C212.047 166.7 209.297 169.95 203.797 169.95C201.397 169.95 199.397 169.15 197.797 167.55C196.297 165.95 195.547 163.5 195.547 160.2V44.25H175.597V161.85C175.597 170.15 178.047 176.5 182.947 180.9C187.847 185.2 194.747 187.35 203.647 187.35C212.647 187.35 219.597 185.15 224.497 180.75C229.397 176.35 231.847 169.95 231.847 161.55ZM281.717 186H301.517L290.867 125.1C296.467 119.9 299.267 112.8 299.267 103.8V72.3C299.267 63.1 296.767 56.15 291.767 51.45C286.867 46.65 279.917 44.25 270.917 44.25H241.967V186H261.917V133.65H273.767L281.717 186ZM267.917 116.7H262.067V61.5H267.917C275.317 61.5 279.017 65.55 279.017 73.65V104.4C279.017 112.6 275.317 116.7 267.917 116.7ZM344.041 91.8H363.691V67.05C363.691 59.75 361.241 53.95 356.341 49.65C351.541 45.25 344.591 43.05 335.491 43.05C326.091 43.05 318.941 45.5 314.041 50.4C309.241 55.2 306.841 61.25 306.841 68.55V92.7C306.841 99.6 308.291 105.05 311.191 109.05C314.091 113.05 318.691 116.2 324.991 118.5L335.941 122.4C341.941 124.9 344.941 128.8 344.941 134.1V161.1C344.941 163.6 344.091 165.7 342.391 167.4C340.791 169.1 338.691 169.95 336.091 169.95C333.191 169.95 330.941 169.1 329.341 167.4C327.841 165.6 327.091 163.35 327.091 160.65V133.05H307.291V162.15C307.291 169.85 309.841 176 314.941 180.6C320.141 185.1 327.191 187.35 336.091 187.35C344.891 187.35 351.891 184.9 357.091 180C362.391 175 365.041 168.3 365.041 159.9V131.1C365.041 123.7 363.391 118.1 360.091 114.3C356.791 110.5 351.691 107.2 344.791 104.4L334.441 100.35C331.641 99.05 329.641 97.7 328.441 96.3C327.341 94.8 326.791 92.7 326.791 90V67.8C326.791 65.7 327.491 63.95 328.891 62.55C330.391 61.15 332.491 60.45 335.191 60.45C341.091 60.45 344.041 63.3 344.041 69V91.8ZM418.536 168.75H392.886V121.5H416.136V104.55H392.886V61.5H418.236V44.25H372.936V186H418.536V168.75ZM469.93 168.75H445.48V44.25H425.53V186H469.93V168.75ZM491.482 61.5H516.082V44.25H471.532V186H491.482V121.8H514.282V104.55H491.482V61.5Z" fill="#FED775"/>
</svg>
