<svg width="374" height="187" viewBox="0 0 374 187" fill="none" xmlns="http://www.w3.org/2000/svg">
<path fill-rule="evenodd" clip-rule="evenodd" d="M110.866 13.4503C96.9803 13.4503 71.0928 32.8301 71.0849 47.353C71.089 53.7863 77.9614 60.1666 85.7835 67.4286L85.7836 67.4287C96.1184 77.0235 108.111 88.1574 108.111 102.986C108.111 135.873 72.1571 161.467 41.1525 161.467C23.5994 161.467 0 144.662 0 130.375C0 116.088 17.765 95.8675 34.8194 95.8675C41.2771 95.8675 47.5977 104.046 47.8471 110.354V110.366C47.8471 110.566 47.6725 110.728 47.4731 110.728C22.7267 112.598 21.6546 127.857 25.1951 136.646C32.2388 154.174 87.0298 122.347 87.0298 105.143C87.0298 88.2635 74.973 78.6098 64.3673 70.1179C56.0401 63.4505 48.6075 57.4993 48.6075 49.3294C48.6075 24.1343 77.6673 0.17334 106.054 0.17334C127.908 0.17334 137.545 14.3729 137.545 27.8992C137.545 41.4255 121.176 60.2502 108.086 60.2502C97.9007 60.2502 90.1589 48.7061 90.9568 48.3944C102.95 45.1905 121.351 31.5145 121.351 20.7059C121.351 15.7941 116.863 13.4503 110.866 13.4503ZM302.905 108.56C303.391 106.952 302.219 106.167 301.122 106.915C294.752 111.291 292.732 111.478 291.56 111.478C290.326 111.478 293.866 98.3378 300.137 81.8818L300.162 81.8195C300.785 80.4406 301.398 79.0792 301.995 77.7536L301.996 77.753C305.791 69.3236 308.934 62.3441 309.936 61.5362C324.31 50.0419 344.144 13.0035 344.144 9.55019C344.144 7.70513 336.752 0.187733 331.428 0.187733C326.105 0.187733 311.631 21.7177 298.23 45.6911C284.329 67.8568 269.993 96.9665 269.993 111.316C269.993 115.056 280.34 128.794 285.638 128.794C286.524 128.794 287.945 128.133 289.727 127.011C293.43 124.667 296.597 121.601 299.115 118.035C300.249 116.439 301.085 114.644 301.646 112.774L302.917 108.56H302.905ZM330.394 18.6509C330.718 18.6509 330.967 18.8005 331.104 19.0747C331.419 19.6961 325.887 28.4542 321.259 35.7824L321.258 35.7828L321.257 35.7858L321.255 35.7886L321.254 35.7899C318.919 39.4863 316.815 42.818 315.808 44.5566C315.135 45.716 313.389 44.7685 314 43.5717C316.805 38.0615 329.758 18.6509 330.394 18.6509ZM354.281 64.3331C357.398 59.2342 360.577 54.7338 363.681 51.268C363.706 49.2235 352.685 43.1522 347.25 43.1522C343.447 47.1291 338.099 54.447 332.527 63.3109C328.55 63.1613 325.57 63.0615 324.436 63.0615C319.225 63.0615 311.371 77.0865 311.371 78.1586C311.371 78.4952 311.819 78.5825 312.231 78.5825C314.413 78.5825 318.651 78.3955 323.875 78.0963C321.207 83.0082 318.639 88.0821 316.345 93.0937C312.318 101.421 308.653 113.639 308.304 114.823C307.257 118.937 306.646 122.727 306.646 125.981C306.646 129.721 316.993 143.459 322.291 143.459C328.637 143.459 346.589 122.926 349.83 118.227C350.74 116.818 350.778 110.809 349.656 107.892C349.481 107.43 349.045 107.779 349.02 107.817C345.679 111.42 330.657 126.143 328.213 126.143C326.318 126.143 335.556 99.5016 347.424 76.5878C358.707 75.8024 368.493 75.042 369.615 74.8924C372.407 74.5184 373.991 67.2877 373.991 66.1283C373.991 65.5922 364.79 64.9315 354.268 64.3331H354.281ZM166.22 121.858C177.103 121.858 207.584 74.5966 207.584 59.5618C207.584 55.2982 196.725 44.3026 191.577 44.3026C186.702 44.3026 175.158 54.6873 166.269 63.9127C167.092 61.9055 167.716 59.7862 167.716 58.0409C167.716 51.5208 160.647 44.7265 154.538 44.0159C149.527 55.4353 126.9 70.0712 113.373 75.5939C113.872 77.3393 116.802 82.8745 119.432 82.8745C123.047 82.8745 133.033 79.0597 138.344 76.3918C130.465 95.578 105.943 148.113 102.079 153.934C106.217 158.684 117.113 164.793 121.938 164.793C122.971 164.828 134.704 136.732 145.375 111.177L145.376 111.177L145.461 110.972C146.094 109.457 146.723 107.951 147.345 106.461C151.708 114.839 157.543 121.845 166.232 121.845L166.22 121.858ZM154.613 89.0829C162.779 78.0499 183.773 56.4077 187.089 56.4077C190.517 56.3953 166.93 100.59 160.472 100.59C157.967 100.59 153.878 95.5032 152.606 93.8576L154.613 89.0829ZM244.899 131.014C275.28 133.158 303.081 139.616 308.155 143.244H308.167C311.546 145.65 313.877 151.958 313.877 155.062C305.038 153.367 271.054 148.455 235.686 147.383C222.596 169.524 209.382 186.84 200.219 186.84C176.195 186.84 143.445 153.417 143.445 148.206C143.445 145.425 148.756 134.766 150.826 134.343C163.616 131.712 194.259 130.416 221.624 130.303C226.885 120.978 232.27 110.793 237.369 100.795C231.51 107.19 215.104 122.699 210.591 122.699C206.078 122.699 198.71 112.538 198.71 107.464C198.71 103.291 209.815 79.4786 217.725 62.5193C221.391 54.6583 224.371 48.2696 225.239 45.9914C230.687 45.9914 242.742 51.1027 242.742 54.1072C242.742 56.3702 236.145 71.5104 230.653 84.115C226.403 93.8687 222.815 102.104 223.456 101.68C224.256 101.155 227.966 97.794 232.222 93.9395C236.657 89.9214 241.685 85.3671 244.625 82.9301C248.971 73.9947 253.399 65.5024 256.871 58.8441C260.191 52.4783 262.636 47.7889 263.3 45.9914C268.748 45.9914 281.476 51.19 280.803 54.1072C280.055 57.4233 263.674 96.2196 244.899 131.014ZM166.858 150.3C166.858 151.846 186.256 167.703 193.088 167.703C197.027 167.703 203.747 159.475 211.501 147.295C188.874 147.757 166.858 149.527 166.858 150.3Z" fill="#F9E9DD"/>
</svg>
