<svg width="1024" height="677" viewBox="0 0 1024 677" fill="none" xmlns="http://www.w3.org/2000/svg">
<g clip-path="url(#clip0_2232_3616)">
<rect x="-0.000488281" y="0.00244141" width="1024" height="677" rx="40" fill="url(#paint0_radial_2232_3616)"/>
<rect x="-0.000488281" y="0.00244141" width="1024" height="677" rx="40" fill="#F04F23"/>
<g filter="url(#filter0_f_2232_3616)">
<rect x="331.27" y="-158.6" width="615.635" height="892.798" transform="rotate(15 331.27 -158.6)" fill="#F9B68F"/>
</g>
<g opacity="0.15" clip-path="url(#clip1_2232_3616)">
<path d="M234.778 -194.246C232.608 -181.787 232.753 -181.932 213.946 -172.515C203.386 -167.155 202.084 -165.996 198.322 -158.897C195.574 -153.682 193.838 -147.018 192.825 -139.34C190.51 -120.651 188.919 -114.277 184.868 -107.758C181.107 -101.963 180.962 -100.514 180.818 -82.6948C180.673 -65.3102 180.384 -63.282 176.912 -57.1974C174.163 -52.2717 172.861 -47.3461 172.138 -38.3641C171.559 -31.6999 170.546 -25.6153 169.823 -24.891C167.364 -22.4282 168.087 27.2629 170.546 36.1C173.44 45.8065 176.478 47.8347 189.353 48.7039C194.995 49.1385 200.782 50.2975 202.373 51.1667C206.279 53.6295 217.852 48.7039 221.324 43.0539C222.771 40.8808 226.098 35.5206 228.702 31.3193C231.451 27.118 234.2 20.5988 234.923 16.8321C239.263 -6.05764 241.288 -10.2589 252.572 -17.2128C258.504 -21.1243 259.082 -21.9935 262.265 -33.5833C265.448 -44.8833 266.026 -46.0423 269.788 -46.7666C276.876 -48.2153 279.77 -52.7064 281.216 -65.8897C281.94 -72.4089 282.952 -78.3487 283.531 -79.2179C283.965 -80.0871 284.833 -84.1435 285.556 -88.1999C289.173 -111.959 292.066 -125.577 295.104 -131.951C296.985 -136.008 299.155 -143.686 299.878 -149.046C300.602 -154.261 301.614 -159.187 302.048 -160.056C303.206 -161.795 298.287 -172.66 293.658 -178.89C290.764 -182.801 289.896 -185.699 289.896 -191.204C289.896 -206.126 291.777 -205.111 262.41 -205.111H236.804L234.778 -194.246Z" fill="#FAEADE"/>
<path d="M807.369 -167.445C805.344 -165.851 801.582 -164.547 798.689 -164.547C793.192 -164.547 789.286 -161.505 782.342 -151.509C777.857 -144.845 773.662 -142.237 760.786 -137.746C751.962 -134.559 741.98 -124.853 740.678 -117.899C739.665 -112.828 735.759 -99.0654 733.878 -94.2847C728.092 -79.0731 726.645 -65.7449 730.406 -60.8193C731.708 -59.0808 732.576 -54.4449 732.576 -47.2013C732.576 -34.8872 733.155 -33.5834 738.652 -32.1347C741.112 -31.5552 743.571 -29.3821 745.018 -26.7744C747.188 -22.2834 748.2 -22.1385 754.71 -24.7462C756.88 -25.6154 757.17 -24.7462 757.17 -15.6193C757.17 -4.31929 758.761 1.18584 763.246 5.9666C767.441 10.4576 768.743 10.1679 775.832 3.50379C779.159 0.316606 783.21 -2.29109 784.801 -2.29109C790.877 -2.29109 798.978 -8.52057 802.45 -16.0539C808.237 -28.368 809.684 -33.0039 810.696 -45.0283C811.709 -55.459 816.483 -77.0449 818.653 -80.6667C819.232 -81.3911 820.1 -85.0129 820.823 -88.9244C824.006 -106.164 825.597 -111.09 831.962 -123.983C838.762 -137.456 838.762 -138.036 838.472 -149.915C838.038 -161.94 836.013 -167.59 831.239 -169.618C828.49 -170.632 824.006 -168.024 822.993 -164.547C821.836 -160.926 816.483 -160.636 816.483 -164.258C816.483 -166.865 813.879 -170.342 811.998 -170.342C811.564 -170.342 809.394 -169.038 807.369 -167.445Z" fill="#FAEADE"/>
<path d="M50.3283 -137.891C48.4476 -136.442 46.7116 -136.297 43.6736 -137.312C41.3589 -138.181 36.8743 -138.326 33.4023 -137.891C30.0749 -137.312 24.1436 -136.732 20.2376 -136.442C15.7529 -136.153 12.4256 -134.994 11.4129 -133.545C10.4003 -132.241 7.79628 -131.227 5.48161 -131.227C-0.0157166 -131.227 -5.80239 -127.895 -17.6651 -118.188C-33.1444 -105.295 -37.0504 -101.238 -37.0504 -98.1962C-37.0504 -96.4577 -37.6291 -94.7192 -38.4971 -94.2846C-39.3651 -93.85 -39.9437 -91.3872 -39.9437 -89.0692C-39.9437 -84.4333 -45.0071 -73.2782 -47.1771 -73.2782C-49.0577 -73.2782 -49.7811 -69.9462 -51.5171 -54.4449C-52.8191 -42.5654 -53.6871 -40.1026 -57.1591 -36.3359C-64.1031 -28.8026 -65.9837 -24.4564 -66.9964 -13.591C-67.4304 -7.79617 -69.3111 0.31665 -71.1917 4.37305C-74.5191 12.0513 -74.6637 18.2808 -72.0597 33.0577C-70.7577 40.0115 -70.0344 40.8808 -62.6564 44.9372C-59.4737 46.6756 -58.7504 47.9795 -58.7504 52.7602C-58.7504 55.8026 -59.4737 58.8448 -60.1971 59.2795C-60.9204 59.7141 -61.6437 61.3077 -61.6437 62.7564C-61.6437 64.2051 -62.9457 67.1025 -64.5371 69.1308C-68.7324 74.3461 -68.1537 79.7064 -63.0904 84.9218C-60.0524 87.8192 -58.7504 90.5718 -58.7504 93.759C-58.7504 99.409 -57.3037 101.727 -52.8191 104.045C-50.3597 105.204 -49.0577 107.377 -48.6237 110.854C-47.4664 118.822 -36.3271 132.44 -30.8297 132.44C-28.9491 132.44 -25.1877 134.178 -22.4391 136.206C-17.9544 139.683 -16.6524 139.828 -7.10439 139.249C7.94094 138.09 8.37495 138.669 7.50695 156.488C6.92828 165.615 5.91561 172.424 4.32428 175.177C3.02228 177.495 2.00961 180.247 2.00961 181.117C2.00961 181.841 0.562943 185.463 -1.17306 189.085C-3.92172 194.445 -4.50039 198.936 -5.22372 216.9C-5.80239 230.228 -6.81506 238.92 -7.82772 239.935C-10.7211 242.832 -9.85306 250.51 -6.23639 253.842C-4.35572 255.581 -1.89639 257.029 -0.594391 257.029C0.562943 257.029 4.17961 259.058 7.21761 261.52C10.979 264.418 13.7276 265.577 15.7529 264.997C17.3443 264.563 20.6716 263.838 23.1309 263.259C27.7603 262.535 27.7603 262.535 30.0749 270.937C34.5596 287.018 33.8363 286.294 49.7496 288.756C56.8383 289.915 58.1403 289.77 61.0336 287.018C62.7696 285.424 64.2163 283.251 64.2163 282.237C64.2163 281.223 65.8076 278.47 67.8329 276.153C69.8583 273.835 73.3303 268.185 75.7896 263.549C80.4189 254.856 85.3376 247.033 87.9416 244.715C90.6903 242.253 95.4643 234.864 98.9363 228.055C100.672 224.433 103.566 219.942 105.302 217.914C110.365 212.264 115.139 199.37 116.007 189.374C116.875 178.654 113.403 164.456 108.34 157.792C105.446 154.026 101.974 143.45 96.1876 121.14C94.5963 115.49 91.1243 111.288 85.6269 108.391C75.7896 103.32 75.0663 97.6705 81.1423 72.3179C86.0609 51.4564 87.3629 20.7436 83.6016 13.3551C82.2996 10.7474 75.6449 3.06921 68.7009 -3.59488L56.2596 -15.7641L55.8256 -26.05C55.2469 -37.6398 57.8509 -43.8692 67.1096 -54.0103C79.8403 -67.6282 85.9163 -82.4052 85.9163 -99.0654C85.9163 -108.337 85.1929 -111.379 82.2996 -116.595C80.2743 -119.927 78.6829 -123.983 78.6829 -125.432C78.6829 -126.881 75.9343 -130.213 72.6069 -132.965C65.3736 -138.76 54.8129 -141.078 50.3283 -137.891Z" fill="#FAEADE"/>
<path d="M907.623 -85.5925C905.598 -84.4335 902.704 -82.9847 901.113 -82.1155C897.207 -80.3771 892.722 -75.5963 884.91 -65.3104C876.809 -54.5899 874.205 -49.3745 873.626 -43.7245C872.035 -28.0784 869.576 -18.6617 865.959 -14.1707C858.147 -4.3194 858.147 -4.46423 860.028 -0.263C861.474 2.92419 861.33 3.93829 859.16 6.40112C857.713 7.99469 855.398 9.29858 853.952 9.29858C852.071 9.29858 849.756 12.196 846.718 18.2806C840.353 30.8845 836.736 35.3755 832.975 35.3755C831.239 35.3755 826.465 37.114 822.414 39.1422C817.062 41.8947 815.036 43.9229 815.036 46.096C815.036 53.4844 811.854 60.2935 807.08 63.046C804.476 64.6396 801.872 67.3922 801.293 69.1306C800.136 72.3178 800.136 72.3178 799.557 68.8409C799.123 66.6678 799.702 64.6396 801.004 63.6255C803.752 61.5973 809.25 52.6152 809.25 50.0075C809.25 48.1242 814.313 37.114 820.244 26.2485C821.402 24.0755 822.993 19.0049 823.572 14.9485C824.295 10.8922 825.452 6.98059 826.465 5.96649C827.333 5.09729 828.056 0.171631 828.056 -4.75403C828.056 -15.9091 825.308 -21.1245 819.521 -21.1245C816.338 -21.1245 814.892 -19.9655 812.432 -14.7501C810.696 -11.2733 809.25 -7.50659 809.25 -6.2027C809.25 -4.89886 806.935 -2.1463 804.331 -0.118103C798.834 4.08319 793.915 12.9203 792.468 20.8883C790.732 31.4639 786.826 43.0537 783.933 46.096C778.58 51.8909 776.41 56.237 775.398 63.3358C774.53 69.4203 773.951 70.1447 771.492 69.4203C767.586 68.1165 763.39 73.6216 762.088 81.4447C761.654 84.7768 760.642 87.9639 759.918 88.3986C759.195 88.8332 758.616 93.0345 758.616 97.6703C758.616 104.769 759.05 106.508 761.51 107.811C763.68 108.97 765.126 108.826 767.441 107.377C771.202 104.624 775.976 95.2075 775.976 90.4268C775.976 85.2114 777.134 84.3422 781.184 87.0947C785.669 89.9921 787.984 88.978 791.456 82.314C796.23 72.8973 797.532 74.4908 797.098 89.5576C796.808 100.568 797.242 104.624 799.412 109.405C801.148 113.316 802.016 118.822 802.016 125.341C802.016 130.701 802.74 135.627 803.463 136.061C804.331 136.496 804.91 138.959 804.91 141.422C804.91 143.884 806.356 148.086 807.948 150.838C810.841 155.474 810.986 156.633 809.539 167.643C808.382 176.625 808.526 183.29 809.973 194.734C811.13 203.137 811.998 210.091 811.998 210.236C812.143 210.525 814.313 213.133 817.062 216.031C820.968 220.377 822.125 223.274 822.993 230.083C824.874 245.729 833.698 249.061 838.617 236.023C840.064 231.966 841.655 227.186 842.089 225.158C842.523 223.129 844.114 219.942 845.561 218.059C847.008 216.175 850.914 206.179 854.096 195.604C857.424 185.173 860.606 175.466 861.474 174.163C862.198 172.714 862.776 169.672 862.776 167.499C862.776 162.573 869.286 153.011 875.507 148.52C877.822 146.927 880.281 143.74 880.715 141.711C881.294 139.538 882.74 136.931 883.753 135.772C884.91 134.613 885.923 132.44 885.923 130.991C885.923 125.775 896.194 125.486 898.075 130.701C901.113 139.249 901.547 141.856 900.39 148.81C898.654 159.965 896.773 166.629 891.71 179.523C885.634 195.169 884.476 197.487 879.992 203.427C875.796 209.077 868.997 227.765 866.972 238.631C866.393 242.397 863.789 249.641 861.474 254.422C856.7 263.983 855.977 269.054 858.726 275.428C859.738 277.601 860.896 288.611 861.33 299.767L862.053 320.193L867.116 326.568C872.035 332.797 872.035 333.087 872.18 346.995C872.18 360.468 873.771 365.683 877.532 365.683C879.847 365.683 893.012 352.5 894.024 349.168C895.037 345.546 903.283 332.073 905.308 330.624C908.491 328.451 908.491 331.493 905.308 344.097C900.968 360.613 898.509 365.683 892.288 371.333C887.659 375.679 887.37 376.404 887.37 385.965C887.37 391.47 886.791 396.251 886.068 396.686C885.489 397.12 884.476 404.364 883.898 412.766C883.319 421.169 882.306 429.716 881.438 431.89C879.268 437.54 878.979 476.365 881.149 478.828C882.017 479.987 883.174 484.768 883.753 489.549C885.2 501.718 887.804 506.209 893.301 506.209C899.956 506.209 902.126 512.873 902.126 533.734C902.126 546.483 902.704 551.264 904.44 554.306C907.478 559.666 909.359 559.377 913.699 553.147C918.039 547.063 920.209 548.801 917.75 556.334C915.001 564.592 916.448 586.468 920.064 590.379C922.234 592.697 923.102 597.043 924.26 608.778C925.562 622.251 925.996 624.279 928.31 624.279C930.191 624.279 931.927 621.527 934.676 613.414C936.846 607.04 940.318 600.375 943.211 597.188C948.274 591.538 953.048 582.701 954.64 576.037C955.218 573.864 957.388 568.793 959.414 564.882C963.754 556.769 967.66 555.175 973.446 558.942C975.327 560.246 979.522 561.26 982.56 561.26C987.479 561.26 989.07 560.391 993.555 555.465C996.448 552.278 998.763 548.801 998.763 547.642C998.763 546.483 999.486 545.324 1000.21 545.034C1001.8 544.6 1007.44 523.738 1007.44 518.523C1007.44 516.929 1009.32 510.555 1011.78 504.47C1014.53 497.082 1016.27 489.549 1016.85 482.015C1018.15 462.023 1019.16 454.924 1021.19 448.26C1023.65 440.727 1029.14 416.243 1029.87 409.869C1030.16 407.406 1031.31 402.915 1032.18 399.583C1033.63 394.802 1033.63 391.615 1031.89 382.923C1030.44 374.955 1030.16 369.015 1031.17 359.599C1032.76 343.663 1029.29 310.052 1025.53 304.258C1023.21 300.781 1022.2 300.491 1013.08 300.491C1001.66 300.491 1001.08 299.767 1001.95 286.583C1002.38 279.774 1002.52 279.484 1007.01 279.05C1013.23 278.47 1017.28 273.11 1024.08 256.45C1028.85 244.86 1029.29 242.687 1028.85 232.546C1028.56 226.461 1027.41 218.493 1026.25 214.727C1024.37 208.497 1024.51 207.193 1027.12 199.66C1030.44 189.664 1033.77 186.911 1037.53 191.113C1039.85 193.72 1040.14 195.893 1039.12 213.568C1038.69 224.288 1037.53 235.733 1036.67 238.92C1035.8 242.108 1034.78 251.524 1034.5 259.927C1034.06 268.329 1033.05 277.456 1032.18 280.209C1029.58 288.466 1030.16 291.654 1034.21 292.668C1036.23 293.102 1038.69 295.275 1039.7 297.449C1041.01 300.201 1042.45 301.07 1045.06 300.781C1049.83 300.201 1050.84 298.173 1050.55 288.901C1050.26 282.382 1051.13 279.195 1055.04 271.517C1059.67 262.534 1059.81 261.375 1059.67 247.613C1059.38 237.761 1058.65 232.111 1057.21 229.938C1053.45 223.999 1055.47 209.077 1061.4 200.384C1062.99 197.922 1064.15 192.996 1064.44 186.622C1064.73 181.117 1065.74 174.597 1066.61 171.99C1068.64 166.774 1067.19 162.428 1062.42 159.965C1060.1 158.806 1059.52 156.923 1059.52 151.708C1059.52 146.347 1060.39 144.174 1064.01 139.973C1068.35 135.047 1068.49 134.613 1067.62 123.892C1066.18 105.059 1066.03 103.61 1064.15 101.727C1061.26 98.8293 1046.36 99.4088 1041.58 102.451C1036.52 105.783 1035.65 108.536 1037.24 114.91C1039.12 121.719 1038.26 125.196 1034.78 125.196C1031.46 125.196 1029.87 119.981 1031.02 111.868C1032.04 104.19 1029 99.1191 1023.36 99.1191C1021.19 99.1191 1018.58 100.133 1017.57 101.292C1016.56 102.451 1014.68 103.465 1013.37 103.465C1012.07 103.465 1009.18 104.479 1006.86 105.638C1004.69 106.797 1002.23 107.522 1001.66 107.087C1000.93 106.652 999.342 103.031 998.04 99.1191C996.738 95.2075 995.002 91.5858 994.278 91.1511C993.555 90.5717 992.976 78.1127 992.976 63.046C992.976 37.6934 992.831 35.5204 989.938 31.8986C987.768 29.146 986.177 28.2768 983.573 29.0011C981.837 29.4357 979.956 29.146 979.378 28.4216C978.944 27.6973 975.038 28.8563 970.264 31.1742C965.634 33.4921 961.294 35.3755 960.426 35.3755C959.703 35.5204 957.678 37.2588 956.086 39.287C947.84 49.8627 944.224 53.1947 941.764 52.3255C939.45 51.4562 939.16 49.428 939.594 35.6652C939.739 27.1178 939.16 17.5563 938.292 14.3691C937.424 11.1819 936.412 6.98059 935.978 4.95239C935.544 2.92419 931.927 -2.58093 927.876 -7.36169C923.97 -11.9976 920.643 -17.3578 920.643 -19.2411C920.643 -20.9796 922.958 -27.4988 925.851 -33.7283L931.059 -45.0284L930.046 -61.6886C928.889 -82.8399 926.43 -87.7655 917.316 -87.7655C913.988 -87.7655 909.648 -86.7514 907.623 -85.5925Z" fill="#FAEADE"/>
<path d="M681.654 -67.773C679.484 -66.3243 675.868 -61.9781 673.842 -57.9217C671.672 -54.0102 669.068 -49.2294 668.056 -47.2012C666.898 -45.173 666.03 -41.1166 666.03 -38.2191C666.03 -35.3217 665.452 -31.4102 664.728 -29.5268C664.005 -27.6435 662.992 -24.4563 662.414 -22.1384C661.98 -19.9653 658.652 -15.4743 655.18 -12.1422C651.564 -8.6653 648.67 -5.18839 648.67 -4.17427C648.67 -3.16017 648.092 -1.13197 647.368 0.316757C646.5 1.62059 645.488 5.24239 645.054 8.13983C644.475 11.6167 643.318 13.7898 641.582 14.3693C635.94 16.1078 634.204 20.3091 632.034 36.2449C627.404 72.4629 625.379 82.8937 621.328 92.6001C619.882 96.2219 619.014 102.451 619.014 109.985C619.014 120.705 619.448 122.299 623.064 127.08C626.247 131.281 626.97 133.744 626.97 140.263C626.97 147.506 627.549 148.955 632.034 154.026C635.94 158.372 637.097 160.835 637.097 165.326C637.097 171.7 639.122 174.453 643.752 174.453C647.079 174.453 651.564 167.209 651.564 161.849C651.564 158.662 655.759 154.171 658.652 154.171C659.52 154.171 661.98 152.432 663.86 150.404C666.609 147.362 667.477 144.899 667.477 139.828C667.477 132.295 668.056 131.426 680.931 123.748C685.56 120.995 690.19 117.373 691.202 115.78C694.385 110.709 697.712 97.3808 698.436 85.7911C698.87 77.2437 700.027 72.8975 703.065 67.3924C706.537 60.8732 706.826 59.1347 706.103 49.5732C705.235 38.2732 707.116 25.8142 710.154 22.3373C712.468 19.7296 713.626 6.2565 714.638 -26.9191C715.651 -59.805 713.047 -67.773 701.04 -68.2076C698.146 -68.3525 693.372 -68.932 690.624 -69.5114C686.862 -70.2358 684.548 -69.8012 681.654 -67.773Z" fill="#FAEADE"/>
<path d="M452.646 -36.9157C448.74 -35.9016 445.268 -33.5836 441.507 -29.3824C438.469 -26.0503 436.01 -22.8631 436.01 -22.2836C436.01 -21.7041 432.104 -14.7503 427.33 -6.92722C422.556 1.04071 418.65 8.13943 418.65 9.00867C418.65 10.6023 409.391 17.9907 407.221 17.9907C404.762 17.9907 403.026 22.7715 402.013 32.4779C401 41.0253 399.554 47.6895 395.358 60.8728C394.635 63.3356 393.912 72.4625 393.767 81.1548C393.622 99.8433 392.32 103.755 382.628 114.62C372.935 125.486 371.633 128.818 368.74 149.534C365.412 173.004 366.28 187.056 371.633 197.777C373.948 202.123 376.262 207.483 376.841 209.946C377.42 212.264 380.024 219.797 382.483 226.606C385.087 233.415 387.98 242.107 389.138 246.164C394.201 265.432 396.805 277.022 396.95 280.933C397.094 287.307 398.83 289.48 402.881 288.177C409.97 286.004 413.008 280.933 418.071 263.548C420.82 253.842 428.776 243.991 433.84 243.991C435.576 243.991 438.035 245.15 439.192 246.454C444.69 252.828 445.413 256.015 445.558 280.354C445.847 301.65 446.281 305.127 448.885 310.342C452.357 317.151 455.829 319.614 459.301 317.875C460.603 317.151 464.509 311.791 467.981 305.996C471.453 300.201 475.359 294.261 476.661 292.813C477.963 291.364 481.435 284.12 484.473 276.877C487.366 269.488 490.694 261.375 491.851 258.768C493.008 256.16 493.876 251.234 493.876 247.757C493.876 243.411 494.744 240.804 496.77 238.92C498.361 237.472 499.808 236.602 500.097 236.892C505.739 244.715 506.028 246.019 506.462 270.068C506.752 293.247 509.066 308.604 513.985 321.207C514.853 323.525 515.577 327.872 515.577 331.059C515.577 338.013 521.363 347.864 526.571 349.747C528.597 350.616 531.779 350.761 533.805 350.327C539.013 349.023 545.957 339.896 545.957 334.391C545.957 331.928 547.258 325.409 548.85 319.904C550.586 314.398 552.611 307.3 553.479 304.113C555.071 298.752 559.845 289.046 561.87 287.452C562.449 287.018 564.04 283.83 565.487 280.209C567.801 274.559 568.09 269.054 568.235 238.92C568.38 212.988 568.959 203.282 570.405 200.674C572.72 196.473 572.865 136.351 570.55 129.977C569.682 127.804 566.644 122.588 563.895 118.532C559.266 111.868 557.964 110.998 551.02 109.405C546.68 108.391 542.774 106.942 542.34 106.218C536.987 97.8151 513.262 131.28 508.343 154.17C507.33 158.516 505.305 164.166 503.858 166.629C501.544 170.541 501.11 174.163 501.11 193.865C501.11 206.324 500.531 216.465 499.952 216.465C498.361 216.465 495.468 199.225 494.455 183.869C493.876 174.887 494.31 167.788 495.757 160.834C497.638 151.997 497.783 149.1 495.757 136.206C494.6 128.093 492.43 119.256 490.838 116.359C487.366 109.55 487.366 107.232 491.128 99.4087C493.876 94.0484 494.166 91.7305 493.153 83.4728C492.574 78.1125 491.851 65.2189 491.562 54.933C490.838 24.7997 487.077 1.04071 480.133 -18.9516C474.346 -35.6118 472.032 -38.5093 464.509 -38.3644C461.182 -38.2195 455.829 -37.64 452.646 -36.9157Z" fill="#FAEADE"/>
<path d="M246.496 110.999C246.496 112.013 244.471 116.794 242.156 121.574C239.842 126.355 237.816 130.991 237.816 131.716C237.816 132.585 235.936 134.903 233.621 136.931C230.872 139.394 227.256 146.058 222.916 156.923C214.38 178.219 211.342 180.682 201.939 173.439C197.744 170.396 196.442 169.962 194.272 171.266C192.825 172.28 190.8 173.004 189.787 173.004C187.183 173.004 179.95 180.537 179.95 183.29C179.95 184.739 179.371 186.042 178.503 186.332C176.478 187.057 171.414 202.123 171.125 208.642C170.836 214.582 167.508 226.027 162.879 236.747C160.854 241.673 159.986 247.903 159.407 261.665C158.973 271.806 157.96 280.933 157.237 281.948C156.369 282.962 155.212 286.728 154.633 290.35C153.62 297.449 152.752 300.926 148.557 314.254C146.242 321.932 145.953 327.872 146.242 368.871C146.387 408.71 146.821 415.809 148.991 421.749C152.752 432.035 153.91 432.904 165.049 432.904L174.886 433.049L175.754 441.017C177.201 452.751 176.188 455.504 170.836 455.504C166.062 455.504 158.25 461.589 158.25 465.21C158.25 466.369 156.369 471.295 154.054 476.221C147.4 490.853 146.098 495.778 147.834 501.718C151.161 513.308 152.463 527.215 150.727 533.155C148.557 540.399 145.374 544.165 141.758 543.586C138.864 543.151 138.72 541.992 138.286 524.463C137.996 511.569 138.575 503.456 140.022 498.386C141.179 494.33 142.481 482.45 143.06 472.164C143.638 461.733 144.651 452.606 145.519 451.592C146.242 450.723 146.676 447.681 146.387 445.073C146.098 441.451 145.23 440.147 142.915 439.858C141.179 439.568 139.154 437.83 138.286 435.801C137.128 433.483 135.392 432.324 133.078 432.324C128.738 432.324 125.7 438.988 127.002 445.653C128.014 451.158 124.542 461.589 119.479 467.818C116.586 471.295 116.152 473.033 117.02 477.959C117.454 481.146 117.888 486.217 117.743 489.259C117.743 492.301 118.611 498.531 119.913 503.022C122.806 512.873 121.938 521.131 116.73 532.141C114.705 536.487 112.824 543.296 112.535 547.353C112.39 551.409 111.667 558.073 111.233 561.985C110.365 568.504 110.654 569.518 113.982 572.705C118.9 577.341 119.19 586.323 114.705 591.104C110.076 596.03 109.063 603.853 110.944 618.485L112.68 631.523L118.611 633.551C123.964 635.435 125.121 635.29 131.197 632.827C139.154 629.495 141.034 626.018 139.877 616.312C139.009 609.068 139.154 608.778 142.481 609.358C145.664 609.792 145.953 610.517 146.387 619.933C146.821 630.074 149.136 635.145 153.476 635.145C154.488 635.145 157.816 633.551 160.854 631.813C169.1 626.597 174.886 625.873 177.346 629.785C183.566 639.491 184.724 646.59 184.868 673.536C185.013 693.528 185.447 700.482 187.038 702.221C189.208 704.973 199.914 705.553 204.254 703.379C205.556 702.655 209.751 700.772 213.512 699.033C218.142 696.86 222.482 693.094 226.532 687.878C235.791 675.999 236.948 677.158 237.961 699.613C239.118 724.676 242.156 735.251 249.679 740.612C252.862 742.929 256.623 749.883 256.623 753.65C256.623 755.099 254.308 760.749 251.56 766.399C247.075 775.381 246.496 777.554 246.641 787.985C246.641 803.486 248.377 812.758 251.849 817.394C254.453 820.726 255.755 821.305 261.108 820.871C268.486 820.436 280.638 813.772 284.833 808.122C286.424 805.949 290.041 801.313 292.934 797.836C301.036 787.985 304.363 780.162 304.363 770.89C304.363 766.399 304.942 762.487 305.665 762.053C306.244 761.618 307.256 758.576 307.69 755.388C308.124 751.767 310.15 747.71 312.898 744.523C316.37 740.612 317.383 738.004 317.383 733.513C317.383 727.573 321.289 722.213 325.629 722.068C326.642 722.068 330.114 716.563 333.441 709.754C339.083 698.019 339.662 697.44 344.146 697.44C355.864 697.44 362.808 691.21 364.255 679.621C365.268 672.232 365.702 671.218 369.174 670.349C371.344 669.914 373.514 668.755 374.092 667.886C374.671 667.017 375.539 666.727 375.973 667.306C376.407 667.741 374.816 671.073 372.356 674.695C370.042 678.317 368.016 682.663 368.016 684.401C368.016 686.285 365.123 692.514 361.506 698.599C357.022 705.987 354.996 711.058 354.996 714.679C354.852 717.577 353.694 722.503 352.103 725.69C349.065 731.919 348.342 742.785 350.656 748.724C352.248 752.926 356.732 755.678 359.915 754.519C362.953 753.36 368.016 744.958 368.016 741.191C368.016 739.453 370.765 735.396 374.237 731.919C380.747 725.4 383.062 720.185 387.691 701.062C389.427 693.818 391.452 689.472 394.78 685.85C399.554 680.635 402.302 674.84 403.026 668.465C403.315 665.858 404.472 664.699 407.221 664.409C411.272 663.974 413.876 659.194 416.914 646.3C420.386 632.103 418.071 623.7 411.127 625.438C407.076 626.453 402.592 634.855 401.434 644.127L400.566 649.922L396.516 646.735C393.044 643.982 392.176 643.837 390.15 645.576C388.848 646.59 386.968 649.632 385.81 652.095C382.483 660.208 381.036 657.6 381.036 643.403C381.036 632.827 380.458 628.771 378.143 624.28C376.552 621.092 375.25 615.732 375.25 611.965C375.105 599.506 372.646 587.772 368.884 581.687C365.557 576.617 365.268 575.168 366.859 572.415C367.872 570.387 368.45 562.709 368.45 551.119C368.306 531.996 367.293 528.23 357.89 512.004C356.298 509.251 354.996 505.485 354.996 503.746C354.996 498.676 350.512 490.563 347.184 489.694C343.278 488.535 339.662 492.881 337.492 500.849C336.624 504.181 334.454 509.686 332.573 513.018C330.692 516.35 328.812 521.131 328.233 523.594C327.654 525.912 326.642 528.23 325.918 528.664C325.195 529.244 324.616 531.417 324.616 533.59C324.616 535.908 323.748 538.515 322.591 539.385C321.434 540.399 320.132 544.455 319.553 548.656C318.974 552.713 317.962 557.059 317.238 558.363C316.66 559.522 315.647 562.999 315.213 565.896C314.634 569.808 312.175 573.864 306.678 579.659C302.482 584.295 297.564 591.104 295.683 595.015C290.764 605.012 288.16 607.04 282.808 604.867C278.178 602.838 276.876 599.072 276.876 587.337C276.876 580.818 280.927 565.027 284.833 556.19C285.846 553.727 288.45 548.222 290.33 543.876C292.356 539.385 295.538 533.445 297.419 530.692C300.891 525.477 306.388 509.831 310.873 491.722C312.32 486.506 314.056 481.291 315.068 480.132C320.71 472.888 321.144 469.412 317.528 451.882C316.804 447.826 316.081 438.264 316.081 430.441C315.936 415.519 314.49 410.449 308.124 403.64C305.52 400.742 304.942 397.845 304.363 384.806C303.64 370.464 303.35 369.305 300.602 368.871C296.406 368.291 286.569 378.287 282.084 387.704C278.757 394.803 272.392 403.35 270.366 403.35C269.064 403.35 269.643 397.555 271.668 390.601C272.826 386.835 274.562 380.605 275.719 376.694C277.021 371.478 279.191 368.146 283.82 364.235C289.752 358.874 289.896 358.585 289.896 349.458C289.896 344.387 290.764 337.289 291.922 333.667C293.079 330.19 294.381 320.773 294.815 312.66C295.249 304.547 296.262 295.131 297.13 291.509C300.168 279.774 297.13 250.365 291.198 233.126C289.318 227.91 288.594 227.331 283.965 226.896C279.191 226.462 278.612 225.882 276.732 220.377C275.719 217.045 274.417 206.18 273.983 196.328C273.404 181.551 272.826 178.074 270.8 176.771C268.92 175.612 267.618 175.901 264.869 178.509C262.988 180.248 261.252 181.696 260.818 181.696C260.529 181.696 260.24 173.583 260.24 163.732C260.24 146.348 260.095 145.768 256.623 142.871C253.296 140.263 253.006 138.814 252.862 128.239C252.717 121.719 252.138 114.91 251.704 112.882C250.836 109.26 246.496 107.812 246.496 110.999Z" fill="#FAEADE"/>
<path d="M653.155 256.015C648.815 259.202 646.211 262.389 645.343 265.577C644.764 268.184 642.449 273.11 640.424 276.297C638.399 279.629 636.084 284.555 635.505 287.307C633.625 295.855 638.399 326.133 643.028 335.55C643.751 336.998 644.33 339.606 644.33 341.489C644.33 343.373 646.355 347.574 648.815 350.906C651.274 354.383 653.589 359.598 654.023 362.786C654.601 366.987 656.048 369.739 659.375 372.347C670.949 381.764 674.999 385.82 680.063 392.774C684.403 398.714 686.428 400.452 689.611 400.452C691.781 400.452 693.517 399.728 693.517 399.003C693.517 396.975 698.725 397.12 702.631 399.293C704.367 400.162 709.43 403.639 713.77 406.971C718.11 410.303 724.041 414.07 726.79 415.374C733.011 417.982 756.302 419.865 759.919 417.837C761.365 417.112 763.969 413.056 765.85 409C770.335 398.424 769.611 384.227 764.259 377.128C760.642 372.347 751.962 354.818 748.779 346.125C747.911 343.662 746.899 339.027 746.609 335.695C745.741 328.306 740.823 317.586 736.483 313.674C733.155 310.632 722.595 302.084 715.072 296.289C712.613 294.261 708.562 290.06 706.247 286.873C700.75 279.195 686.283 264.273 684.258 264.273C683.535 264.273 680.063 261.665 676.735 258.333C668.345 250.075 661.979 249.496 653.155 256.015Z" fill="#FAEADE"/>
<path d="M34.2704 393.354C26.1691 396.541 21.9738 401.612 20.0931 410.594C19.5144 413.346 18.5018 416.244 17.9231 417.113C17.3444 417.837 16.3318 421.894 15.7531 425.95C14.7404 434.353 16.6211 437.25 23.2758 436.381C27.0371 435.946 27.3264 436.236 26.8924 441.017C24.7224 467.094 24.5778 465.935 28.1944 465.355C31.6664 464.921 41.6484 450.289 43.3844 442.9C43.9631 440.727 47.0011 434.063 50.0391 427.978C57.4171 413.636 59.8764 406.827 59.8764 399.439C59.8764 392.774 59.5871 392.63 48.3031 391.181C43.6738 390.601 39.6231 391.326 34.2704 393.354Z" fill="#FAEADE"/>
<path d="M633.914 414.07C631.6 416.243 629.14 422.038 627.838 428.123C627.26 430.875 625.813 432.179 623.064 432.759C616.41 434.207 615.252 435.801 614.384 444.783C613.372 454.779 611.491 457.387 601.509 462.168C597.458 464.051 593.118 466.804 591.672 468.397C588.055 472.309 583.57 486.361 583.57 493.75C583.57 502.877 580.822 514.756 577.639 520.261C575.324 524.028 574.89 527.215 575.18 539.095C575.324 550.395 574.746 554.886 572.431 561.26C568.236 572.705 565.776 598.782 566.5 624.279C567.223 651.515 568.38 653.978 580.098 653.978C584.294 653.978 588.2 654.557 588.634 655.427C589.936 657.455 596.88 657.165 599.918 654.702C606.138 650.066 614.674 631.378 615.976 619.498C617.133 608.778 620.171 603.128 627.115 598.492C631.166 595.739 632.323 593.856 633.625 586.902C635.506 577.486 638.544 571.98 642.739 570.677C644.62 570.097 645.922 568.069 646.356 565.172C646.79 562.564 647.802 555.9 648.67 550.395C652.287 526.491 657.35 500.559 659.665 493.17C663.282 481.291 663.86 472.164 661.112 466.514C659.81 463.761 658.797 461.009 658.797 460.139C658.797 459.415 657.784 457.966 656.627 456.952C655.18 455.793 654.457 452.461 654.457 446.666C654.457 439.423 653.878 437.684 650.551 434.642C647.947 432.179 645.922 427.978 644.33 421.893C642.594 414.65 641.437 412.622 638.978 412.332C637.386 412.042 635.072 412.911 633.914 414.07Z" fill="#FAEADE"/>
<path d="M73.6198 435.946C71.3051 437.105 67.5438 438.264 65.3738 438.699C62.3358 439.423 60.7444 441.451 57.7064 447.971C55.6811 452.462 52.9324 458.112 51.9198 460.574C50.7624 462.892 49.4604 467.238 49.0264 469.991C48.5924 472.744 46.7118 477.959 44.8311 481.581C32.9684 504.181 33.9811 500.849 33.8364 522.869C33.8364 549.091 37.7424 561.26 46.4224 561.26C51.0518 561.26 55.6811 550.829 56.6938 537.646C57.4171 528.085 57.5618 527.65 66.5311 517.654C71.4498 512.004 78.1044 503.746 81.1424 499.255L86.6398 490.997L87.0738 466.079L87.6524 441.162L83.8911 437.395C79.6958 433.338 79.5511 433.194 73.6198 435.946Z" fill="#FAEADE"/>
<path d="M804.042 487.086C802.45 488.1 796.085 498.531 793.481 504.036C792.758 505.629 790.443 508.527 788.418 510.41C786.392 512.438 784.656 514.611 784.656 515.336C784.656 516.64 782.197 522.724 778.146 531.561C773.083 542.427 770.19 551.699 770.19 557.059C770.19 560.246 769.177 564.447 767.875 566.331C765.416 570.097 765.705 585.599 768.888 612.4C769.756 620.078 770.045 629.495 769.466 633.261C766.139 658.035 767.73 682.373 773.228 690.486C776.844 695.556 776.7 699.613 772.938 705.697C770.045 710.333 769.9 711.637 771.058 728.297C771.781 738.004 772.215 747.855 772.07 750.318C771.636 756.982 775.687 797.111 777.134 800.009C777.857 801.313 778.87 805.514 779.448 809.136C780.75 817.538 787.26 834.778 791.166 839.559C795.362 844.774 798.11 845.354 808.237 843.036C818.798 840.573 824.006 835.647 830.95 821.305C833.409 816.379 836.592 811.164 838.038 809.86C839.63 808.411 842.234 804.065 843.825 800.154C846.14 795.083 848.454 792.186 852.65 789.868C859.16 786.101 862.776 779.002 862.776 770.02C862.776 766.978 863.789 761.328 865.091 757.417C868.708 745.537 870.299 735.251 871.022 718.011L871.601 701.496L878.111 695.122C881.583 691.5 884.476 688.168 884.476 687.443C884.476 686.864 885.634 685.27 887.08 683.822C891.999 679.476 895.76 661.511 897.062 635.435C897.641 624.279 897.207 620.802 894.603 613.849C892.867 609.213 890.986 604.867 890.263 603.997C889.684 603.273 888.527 600.231 887.659 597.478C886.791 594.726 884.476 587.772 882.306 582.267C875.941 565.317 870.154 543.441 868.708 530.692C867.406 519.392 866.538 517.799 862.198 517.799C858.726 517.799 849.756 525.622 849.756 528.664C849.756 534.459 843.102 550.54 838.472 555.465C832.541 562.274 830.082 562.564 824.295 557.638L820.1 554.017L819.232 529.099C818.364 502.297 817.062 495.778 811.42 489.694C807.803 485.782 806.646 485.347 804.042 487.086Z" fill="#FAEADE"/>
<path d="M-23.162 672.232C-23.596 673.536 -24.03 676.433 -24.03 678.751C-24.03 681.938 -24.7533 682.952 -26.9233 682.952C-28.5147 682.952 -30.2507 684.111 -30.8293 685.415C-31.2633 686.864 -32.8547 690.631 -34.1567 693.818C-35.6033 697.005 -37.1947 703.669 -37.6287 708.74C-38.2073 713.665 -40.088 722.647 -42.1133 728.587C-47.3213 744.813 -47.6107 748 -45.0067 762.052C-41.824 779.872 -40.3773 783.638 -36.3267 785.811C-34.3013 786.825 -32.71 788.274 -32.71 788.854C-32.71 789.433 -31.6973 790.882 -30.54 792.186C-27.936 794.649 -20.992 793.2 -16.652 789.288C-14.1927 787.115 -13.7587 787.115 -10.142 790.013C-7.972 791.751 -5.80199 793.055 -5.07866 793.055C-2.47466 793.055 0.563339 788.129 0.563339 783.783C0.563339 781.32 1.14201 778.568 1.72067 777.699C2.444 776.974 4.18 773.208 5.62667 769.296C8.66467 760.893 7.94134 749.593 3.60134 740.467C2.15467 737.134 -0.0153275 730.615 -0.883327 725.834C-1.896 721.199 -3.77666 713.52 -5.368 709.029C-6.81466 704.538 -8.26133 695.846 -8.55066 690.051C-8.98466 681.359 -9.708 678.317 -12.4567 674.55C-16.218 669.479 -21.7153 668.32 -23.162 672.232Z" fill="#FAEADE"/>
</g>
</g>
<defs>
<filter id="filter0_f_2232_3616" x="-149.803" y="-408.6" width="1325.73" height="1521.71" filterUnits="userSpaceOnUse" color-interpolation-filters="sRGB">
<feFlood flood-opacity="0" result="BackgroundImageFix"/>
<feBlend mode="normal" in="SourceGraphic" in2="BackgroundImageFix" result="shape"/>
<feGaussianBlur stdDeviation="125" result="effect1_foregroundBlur_2232_3616"/>
</filter>
<radialGradient id="paint0_radial_2232_3616" cx="0" cy="0" r="1" gradientUnits="userSpaceOnUse" gradientTransform="translate(535.499 368.502) rotate(107.283) scale(665.433 728.24)">
<stop stop-color="#E7C4A9"/>
<stop offset="1" stop-color="#BC7853"/>
</radialGradient>
<clipPath id="clip0_2232_3616">
<rect width="1024" height="677" fill="white" transform="translate(-0.000488281 0.00244141)"/>
</clipPath>
<clipPath id="clip1_2232_3616">
<rect width="1302" height="1130" fill="white" transform="translate(-168.697 -205.111)"/>
</clipPath>
</defs>
</svg>
