<svg width="1024" height="677" viewBox="0 0 1024 677" fill="none" xmlns="http://www.w3.org/2000/svg">
<g clip-path="url(#clip0_2236_161)">
<rect y="0.00244141" width="1024" height="677" rx="40" fill="url(#paint0_radial_2236_161)"/>
<rect y="0.00244141" width="1024" height="677" rx="40" fill="#3284C6"/>
<g filter="url(#filter0_f_2236_161)">
<rect x="331.271" y="-158.6" width="615.635" height="892.798" transform="rotate(15 331.271 -158.6)" fill="#AED5F5"/>
</g>
<g opacity="0.15" clip-path="url(#clip1_2236_161)">
<path d="M234.779 -194.246C232.609 -181.787 232.753 -181.932 213.947 -172.515C203.386 -167.155 202.084 -165.996 198.323 -158.897C195.574 -153.682 193.838 -147.018 192.825 -139.34C190.511 -120.651 188.919 -114.277 184.869 -107.758C181.107 -101.963 180.963 -100.514 180.818 -82.6948C180.673 -65.3102 180.384 -63.282 176.912 -57.1974C174.163 -52.2717 172.861 -47.3461 172.138 -38.364C171.559 -31.6999 170.547 -25.6153 169.823 -24.891C167.364 -22.4282 168.087 27.2629 170.547 36.1C173.44 45.8065 176.478 47.8347 189.353 48.7039C194.995 49.1385 200.782 50.2975 202.373 51.1667C206.279 53.6295 217.853 48.7039 221.325 43.0539C222.771 40.8808 226.099 35.5206 228.703 31.3193C231.451 27.118 234.2 20.5988 234.923 16.8321C239.263 -6.05764 241.289 -10.2589 252.573 -17.2128C258.504 -21.1243 259.083 -21.9935 262.265 -33.5833C265.448 -44.8833 266.027 -46.0423 269.788 -46.7666C276.877 -48.2153 279.77 -52.7064 281.217 -65.8897C281.94 -72.4089 282.953 -78.3487 283.531 -79.2179C283.965 -80.0871 284.833 -84.1435 285.557 -88.1999C289.173 -111.959 292.067 -125.577 295.105 -131.951C296.985 -136.008 299.155 -143.686 299.879 -149.046C300.602 -154.261 301.615 -159.187 302.049 -160.056C303.206 -161.795 298.287 -172.66 293.658 -178.89C290.765 -182.801 289.897 -185.699 289.897 -191.204C289.897 -206.126 291.777 -205.111 262.41 -205.111H236.804L234.779 -194.246Z" fill="#FAEADE"/>
<path d="M807.37 -167.445C805.344 -165.851 801.583 -164.547 798.69 -164.547C793.192 -164.547 789.286 -161.505 782.342 -151.509C777.858 -144.845 773.662 -142.237 760.787 -137.746C751.962 -134.559 741.98 -124.853 740.678 -117.899C739.666 -112.828 735.76 -99.0654 733.879 -94.2847C728.092 -79.0731 726.646 -65.7449 730.407 -60.8193C731.709 -59.0808 732.577 -54.4449 732.577 -47.2013C732.577 -34.8872 733.156 -33.5834 738.653 -32.1347C741.112 -31.5552 743.572 -29.3821 745.018 -26.7744C747.188 -22.2834 748.201 -22.1385 754.711 -24.7462C756.881 -25.6154 757.17 -24.7462 757.17 -15.6193C757.17 -4.31929 758.762 1.18584 763.246 5.96661C767.442 10.4576 768.744 10.1679 775.832 3.50378C779.16 0.316606 783.21 -2.29109 784.802 -2.29109C790.878 -2.29109 798.979 -8.52057 802.451 -16.0539C808.238 -28.368 809.684 -33.0039 810.697 -45.0283C811.71 -55.459 816.484 -77.0449 818.654 -80.6667C819.232 -81.3911 820.1 -85.0129 820.824 -88.9244C824.006 -106.164 825.598 -111.09 831.963 -123.983C838.762 -137.456 838.762 -138.036 838.473 -149.915C838.039 -161.94 836.014 -167.59 831.24 -169.618C828.491 -170.632 824.006 -168.024 822.994 -164.547C821.836 -160.926 816.484 -160.636 816.484 -164.258C816.484 -166.865 813.88 -170.342 811.999 -170.342C811.565 -170.342 809.395 -169.038 807.37 -167.445Z" fill="#FAEADE"/>
<path d="M50.3293 -137.891C48.4486 -136.442 46.7126 -136.297 43.6746 -137.312C41.3599 -138.181 36.8753 -138.326 33.4033 -137.891C30.0759 -137.312 24.1446 -136.732 20.2386 -136.442C15.7539 -136.153 12.4266 -134.994 11.4139 -133.545C10.4013 -132.241 7.79726 -131.227 5.48259 -131.227C-0.0147426 -131.227 -5.80141 -127.895 -17.6641 -118.188C-33.1434 -105.295 -37.0494 -101.238 -37.0494 -98.1962C-37.0494 -96.4577 -37.6281 -94.7192 -38.4961 -94.2846C-39.3641 -93.85 -39.9427 -91.3872 -39.9427 -89.0692C-39.9427 -84.4333 -45.0061 -73.2782 -47.1761 -73.2782C-49.0567 -73.2782 -49.7801 -69.9462 -51.5161 -54.4449C-52.8181 -42.5654 -53.6861 -40.1026 -57.1581 -36.3359C-64.1021 -28.8026 -65.9827 -24.4564 -66.9954 -13.591C-67.4294 -7.79617 -69.3101 0.316651 -71.1907 4.37306C-74.5181 12.0513 -74.6627 18.2808 -72.0587 33.0577C-70.7567 40.0115 -70.0334 40.8808 -62.6554 44.9372C-59.4727 46.6756 -58.7494 47.9795 -58.7494 52.7602C-58.7494 55.8025 -59.4727 58.8449 -60.1961 59.2795C-60.9194 59.7141 -61.6427 61.3077 -61.6427 62.7564C-61.6427 64.2051 -62.9447 67.1025 -64.5361 69.1307C-68.7314 74.3461 -68.1527 79.7064 -63.0894 84.9218C-60.0514 87.8192 -58.7494 90.5718 -58.7494 93.759C-58.7494 99.409 -57.3027 101.727 -52.8181 104.045C-50.3587 105.204 -49.0567 107.377 -48.6227 110.854C-47.4654 118.822 -36.3261 132.44 -30.8287 132.44C-28.9481 132.44 -25.1867 134.178 -22.4381 136.206C-17.9534 139.683 -16.6514 139.828 -7.10341 139.249C7.94192 138.09 8.37592 138.669 7.50792 156.488C6.92926 165.615 5.91659 172.424 4.32526 175.177C3.02326 177.495 2.01059 180.247 2.01059 181.117C2.01059 181.841 0.56392 185.463 -1.17208 189.085C-3.92075 194.445 -4.49941 198.936 -5.22275 216.9C-5.80141 230.228 -6.81408 238.92 -7.82675 239.935C-10.7201 242.832 -9.85208 250.51 -6.23541 253.842C-4.35475 255.581 -1.89541 257.029 -0.593414 257.029C0.56392 257.029 4.18059 259.058 7.21859 261.52C10.9799 264.418 13.7286 265.577 15.7539 264.997C17.3453 264.563 20.6726 263.838 23.1319 263.259C27.7613 262.535 27.7613 262.535 30.0759 270.937C34.5606 287.018 33.8373 286.294 49.7506 288.756C56.8393 289.915 58.1413 289.77 61.0346 287.018C62.7706 285.424 64.2173 283.251 64.2173 282.237C64.2173 281.223 65.8086 278.47 67.8339 276.153C69.8593 273.835 73.3313 268.185 75.7906 263.549C80.4199 254.856 85.3386 247.033 87.9426 244.715C90.6913 242.253 95.4653 234.864 98.9373 228.055C100.673 224.433 103.567 219.942 105.303 217.914C110.366 212.264 115.14 199.37 116.008 189.374C116.876 178.654 113.404 164.456 108.341 157.792C105.447 154.026 101.975 143.45 96.1886 121.14C94.5973 115.49 91.1253 111.288 85.6279 108.391C75.7906 103.32 75.0673 97.6705 81.1433 72.3179C86.0619 51.4564 87.3639 20.7436 83.6026 13.3551C82.3006 10.7474 75.6459 3.06922 68.7019 -3.59489L56.2606 -15.7641L55.8266 -26.05C55.2479 -37.6398 57.8519 -43.8692 67.1106 -54.0103C79.8413 -67.6282 85.9173 -82.4051 85.9173 -99.0654C85.9173 -108.337 85.1939 -111.379 82.3006 -116.595C80.2753 -119.927 78.6839 -123.983 78.6839 -125.432C78.6839 -126.881 75.9353 -130.213 72.6079 -132.965C65.3746 -138.76 54.8139 -141.078 50.3293 -137.891Z" fill="#FAEADE"/>
<path d="M907.624 -85.5925C905.598 -84.4335 902.705 -82.9848 901.114 -82.1155C897.208 -80.3771 892.723 -75.5963 884.911 -65.3104C876.81 -54.5899 874.206 -49.3745 873.627 -43.7245C872.036 -28.0784 869.577 -18.6617 865.96 -14.1707C858.148 -4.31938 858.148 -4.46426 860.029 -0.262974C861.475 2.92421 861.331 3.93831 859.161 6.40113C857.714 7.99472 855.399 9.29856 853.953 9.29856C852.072 9.29856 849.757 12.196 846.719 18.2806C840.354 30.8845 836.737 35.3755 832.976 35.3755C831.24 35.3755 826.466 37.1139 822.415 39.1422C817.063 41.8947 815.037 43.9229 815.037 46.096C815.037 53.4845 811.855 60.2934 807.081 63.046C804.477 64.6396 801.873 67.3922 801.294 69.1306C800.137 72.3178 800.137 72.3178 799.558 68.8409C799.124 66.6678 799.703 64.6396 801.005 63.6255C803.753 61.5973 809.251 52.6152 809.251 50.0075C809.251 48.1242 814.314 37.1139 820.245 26.2486C821.403 24.0755 822.994 19.005 823.573 14.9486C824.296 10.8922 825.453 6.98062 826.466 5.96651C827.334 5.09728 828.057 0.171642 828.057 -4.754C828.057 -15.9091 825.309 -21.1245 819.522 -21.1245C816.339 -21.1245 814.893 -19.9655 812.433 -14.7502C810.697 -11.2732 809.251 -7.50656 809.251 -6.20272C809.251 -4.89887 806.936 -2.14631 804.332 -0.118102C798.835 4.08318 793.916 12.9204 792.469 20.8883C790.733 31.4639 786.827 43.0537 783.934 46.096C778.581 51.8909 776.411 56.237 775.399 63.3357C774.531 69.4204 773.952 70.1447 771.493 69.4204C767.587 68.1165 763.391 73.6216 762.089 81.4447C761.655 84.7768 760.643 87.9639 759.919 88.3986C759.196 88.8332 758.617 93.0345 758.617 97.6704C758.617 104.769 759.051 106.508 761.511 107.811C763.681 108.97 765.127 108.825 767.442 107.377C771.203 104.624 775.977 95.2075 775.977 90.4268C775.977 85.2114 777.135 84.3421 781.185 87.0947C785.67 89.9921 787.985 88.978 791.457 82.3139C796.231 72.8973 797.533 74.4909 797.099 89.5575C796.809 100.568 797.243 104.624 799.413 109.405C801.149 113.317 802.017 118.822 802.017 125.341C802.017 130.701 802.741 135.627 803.464 136.061C804.332 136.496 804.911 138.959 804.911 141.422C804.911 143.884 806.357 148.086 807.949 150.838C810.842 155.474 810.987 156.633 809.54 167.643C808.383 176.625 808.527 183.29 809.974 194.734C811.131 203.137 811.999 210.091 811.999 210.236C812.144 210.525 814.314 213.133 817.063 216.031C820.969 220.377 822.126 223.274 822.994 230.083C824.875 245.729 833.699 249.061 838.618 236.023C840.065 231.966 841.656 227.186 842.09 225.158C842.524 223.129 844.115 219.942 845.562 218.059C847.009 216.175 850.915 206.179 854.097 195.604C857.425 185.173 860.607 175.467 861.475 174.163C862.199 172.714 862.777 169.672 862.777 167.499C862.777 162.573 869.287 153.011 875.508 148.52C877.823 146.927 880.282 143.74 880.716 141.711C881.294 139.538 882.741 136.931 883.754 135.772C884.911 134.613 885.924 132.44 885.924 130.991C885.924 125.775 896.195 125.486 898.076 130.701C901.114 139.249 901.548 141.856 900.39 148.81C898.654 159.965 896.774 166.629 891.71 179.523C885.634 195.169 884.477 197.487 879.993 203.427C875.797 209.077 868.998 227.765 866.973 238.631C866.394 242.397 863.79 249.641 861.475 254.422C856.701 263.983 855.978 269.054 858.727 275.428C859.739 277.601 860.897 288.611 861.331 299.766L862.054 320.193L867.117 326.568C872.036 332.797 872.036 333.087 872.181 346.995C872.181 360.468 873.772 365.683 877.533 365.683C879.848 365.683 893.012 352.5 894.025 349.168C895.038 345.546 903.284 332.073 905.309 330.624C908.492 328.451 908.492 331.493 905.309 344.097C900.969 360.613 898.51 365.683 892.289 371.333C887.66 375.679 887.37 376.404 887.37 385.965C887.37 391.47 886.792 396.251 886.068 396.686C885.49 397.12 884.477 404.364 883.898 412.766C883.32 421.169 882.307 429.716 881.439 431.89C879.269 437.54 878.98 476.365 881.15 478.828C882.018 479.987 883.175 484.768 883.754 489.549C885.2 501.718 887.804 506.209 893.302 506.209C899.956 506.209 902.126 512.873 902.126 533.734C902.126 546.483 902.705 551.264 904.441 554.306C907.479 559.666 909.36 559.377 913.7 553.147C918.04 547.063 920.21 548.801 917.75 556.334C915.002 564.592 916.448 586.468 920.065 590.379C922.235 592.697 923.103 597.043 924.26 608.778C925.562 622.251 925.996 624.279 928.311 624.279C930.192 624.279 931.928 621.527 934.676 613.414C936.846 607.04 940.318 600.375 943.212 597.188C948.275 591.538 953.049 582.701 954.64 576.037C955.219 573.864 957.389 568.793 959.414 564.882C963.754 556.769 967.66 555.175 973.447 558.942C975.328 560.246 979.523 561.26 982.561 561.26C987.48 561.26 989.071 560.391 993.556 555.465C996.449 552.278 998.764 548.801 998.764 547.642C998.764 546.483 999.487 545.324 1000.21 545.034C1001.8 544.6 1007.44 523.738 1007.44 518.523C1007.44 516.929 1009.32 510.555 1011.78 504.47C1014.53 497.082 1016.27 489.549 1016.85 482.015C1018.15 462.023 1019.16 454.924 1021.19 448.26C1023.65 440.727 1029.14 416.243 1029.87 409.869C1030.16 407.406 1031.31 402.915 1032.18 399.583C1033.63 394.802 1033.63 391.615 1031.89 382.923C1030.45 374.955 1030.16 369.015 1031.17 359.599C1032.76 343.663 1029.29 310.052 1025.53 304.258C1023.21 300.781 1022.2 300.491 1013.09 300.491C1001.66 300.491 1001.08 299.766 1001.95 286.583C1002.38 279.774 1002.53 279.484 1007.01 279.05C1013.23 278.47 1017.28 273.11 1024.08 256.45C1028.85 244.86 1029.29 242.687 1028.85 232.546C1028.57 226.461 1027.41 218.493 1026.25 214.727C1024.37 208.497 1024.51 207.193 1027.12 199.66C1030.45 189.664 1033.77 186.911 1037.53 191.113C1039.85 193.72 1040.14 195.893 1039.13 213.568C1038.69 224.288 1037.53 235.733 1036.67 238.92C1035.8 242.108 1034.79 251.524 1034.5 259.927C1034.06 268.329 1033.05 277.456 1032.18 280.209C1029.58 288.466 1030.16 291.654 1034.21 292.668C1036.23 293.102 1038.69 295.275 1039.7 297.449C1041.01 300.201 1042.45 301.07 1045.06 300.781C1049.83 300.201 1050.84 298.173 1050.55 288.901C1050.27 282.382 1051.13 279.195 1055.04 271.516C1059.67 262.534 1059.81 261.375 1059.67 247.613C1059.38 237.761 1058.66 232.111 1057.21 229.938C1053.45 223.999 1055.47 209.077 1061.4 200.384C1063 197.922 1064.15 192.996 1064.44 186.622C1064.73 181.117 1065.74 174.597 1066.61 171.99C1068.64 166.774 1067.19 162.428 1062.42 159.965C1060.1 158.806 1059.52 156.923 1059.52 151.708C1059.52 146.347 1060.39 144.174 1064.01 139.973C1068.35 135.047 1068.49 134.613 1067.63 123.892C1066.18 105.059 1066.03 103.61 1064.15 101.727C1061.26 98.8293 1046.36 99.4088 1041.59 102.451C1036.52 105.783 1035.65 108.536 1037.25 114.91C1039.13 121.719 1038.26 125.196 1034.79 125.196C1031.46 125.196 1029.87 119.981 1031.02 111.868C1032.04 104.19 1029 99.1191 1023.36 99.1191C1021.19 99.1191 1018.58 100.133 1017.57 101.292C1016.56 102.451 1014.68 103.465 1013.38 103.465C1012.07 103.465 1009.18 104.479 1006.87 105.638C1004.7 106.797 1002.24 107.522 1001.66 107.087C1000.93 106.652 999.342 103.031 998.04 99.1191C996.738 95.2075 995.002 91.5857 994.279 91.1511C993.556 90.5716 992.977 78.1127 992.977 63.046C992.977 37.6934 992.832 35.5204 989.939 31.8986C987.769 29.146 986.178 28.2768 983.574 29.0011C981.838 29.4357 979.957 29.146 979.378 28.4216C978.944 27.6973 975.038 28.8563 970.264 31.1742C965.635 33.4922 961.295 35.3755 960.427 35.3755C959.704 35.5204 957.678 37.2588 956.087 39.287C947.841 49.8627 944.224 53.1947 941.765 52.3255C939.45 51.4563 939.161 49.428 939.595 35.6652C939.74 27.1178 939.161 17.5563 938.293 14.3691C937.425 11.1819 936.412 6.98062 935.978 4.95241C935.544 2.92421 931.928 -2.58092 927.877 -7.36169C923.971 -11.9976 920.644 -17.3578 920.644 -19.2412C920.644 -20.9796 922.958 -27.4989 925.852 -33.7284L931.06 -45.0284L930.047 -61.6886C928.89 -82.8399 926.43 -87.7655 917.316 -87.7655C913.989 -87.7655 909.649 -86.7514 907.624 -85.5925Z" fill="#FAEADE"/>
<path d="M681.654 -67.7735C679.484 -66.3248 675.868 -61.9786 673.842 -57.9222C671.672 -54.0107 669.068 -49.2299 668.056 -47.2017C666.898 -45.1735 666.03 -41.1171 666.03 -38.2196C666.03 -35.3222 665.452 -31.4107 664.728 -29.5273C664.005 -27.644 662.992 -24.4568 662.414 -22.1389C661.98 -19.9658 658.652 -15.4748 655.18 -12.1427C651.564 -8.66579 648.67 -5.18887 648.67 -4.17476C648.67 -3.16066 648.092 -1.13246 647.368 0.316261C646.5 1.62011 645.488 5.2419 645.054 8.13934C644.475 11.6163 643.318 13.7893 641.582 14.3688C635.94 16.1073 634.204 20.3086 632.034 36.2445C627.404 72.4624 625.379 82.8932 621.328 92.5996C619.882 96.2214 619.014 102.451 619.014 109.984C619.014 120.705 619.448 122.298 623.064 127.079C626.247 131.28 626.97 133.743 626.97 140.262C626.97 147.506 627.549 148.955 632.034 154.025C635.94 158.371 637.097 160.834 637.097 165.325C637.097 171.7 639.122 174.452 643.752 174.452C647.079 174.452 651.564 167.209 651.564 161.848C651.564 158.661 655.759 154.17 658.652 154.17C659.52 154.17 661.98 152.432 663.86 150.403C666.609 147.361 667.477 144.898 667.477 139.828C667.477 132.294 668.056 131.425 680.931 123.747C685.56 120.994 690.19 117.373 691.202 115.779C694.385 110.709 697.712 97.3804 698.436 85.7906C698.87 77.2432 700.027 72.897 703.065 67.3919C706.537 60.8727 706.826 59.1342 706.103 49.5727C705.235 38.2727 707.116 25.8137 710.154 22.3368C712.468 19.7291 713.626 6.256 714.638 -26.9196C715.651 -59.8055 713.047 -67.7735 701.04 -68.2081C698.146 -68.353 693.372 -68.9325 690.624 -69.5119C686.862 -70.2363 684.548 -69.8017 681.654 -67.7735Z" fill="#FAEADE"/>
<path d="M452.647 -36.9152C448.741 -35.9011 445.269 -33.5831 441.508 -29.3819C438.47 -26.0498 436.01 -22.8626 436.01 -22.2831C436.01 -21.7037 432.104 -14.7498 427.33 -6.92674C422.556 1.04121 418.65 8.13993 418.65 9.00916C418.65 10.6028 409.392 17.9912 407.222 17.9912C404.762 17.9912 403.026 22.772 402.014 32.4784C401.001 41.0258 399.554 47.6899 395.359 60.8733C394.636 63.3361 393.912 72.463 393.768 81.1553C393.623 99.8438 392.321 103.755 382.628 114.621C372.936 125.486 371.634 128.818 368.74 149.535C365.413 173.004 366.281 187.057 371.634 197.777C373.948 202.123 376.263 207.484 376.842 209.946C377.42 212.264 380.024 219.798 382.484 226.607C385.088 233.416 387.981 242.108 389.138 246.164C394.202 265.432 396.806 277.022 396.95 280.934C397.095 287.308 398.831 289.481 402.882 288.177C409.97 286.004 413.008 280.934 418.072 263.549C420.82 253.843 428.777 243.991 433.84 243.991C435.576 243.991 438.036 245.15 439.193 246.454C444.69 252.828 445.414 256.016 445.558 280.354C445.848 301.65 446.282 305.127 448.886 310.343C452.358 317.151 455.83 319.614 459.302 317.876C460.604 317.151 464.51 311.791 467.982 305.996C471.454 300.201 475.36 294.262 476.662 292.813C477.964 291.364 481.436 284.121 484.474 276.877C487.367 269.489 490.694 261.376 491.852 258.768C493.009 256.16 493.877 251.235 493.877 247.758C493.877 243.412 494.745 240.804 496.77 238.921C498.362 237.472 499.808 236.603 500.098 236.893C505.74 244.716 506.029 246.019 506.463 270.068C506.752 293.248 509.067 308.604 513.986 321.208C514.854 323.526 515.577 327.872 515.577 331.059C515.577 338.013 521.364 347.864 526.572 349.748C528.597 350.617 531.78 350.762 533.805 350.327C539.013 349.023 545.957 339.896 545.957 334.391C545.957 331.928 547.259 325.409 548.85 319.904C550.586 314.399 552.612 307.3 553.48 304.113C555.071 298.753 559.845 289.046 561.87 287.453C562.449 287.018 564.04 283.831 565.487 280.209C567.802 274.559 568.091 269.054 568.236 238.921C568.38 212.989 568.959 203.282 570.406 200.675C572.72 196.473 572.865 136.351 570.55 129.977C569.682 127.804 566.644 122.589 563.896 118.532C559.266 111.868 557.964 110.999 551.02 109.405C546.68 108.391 542.774 106.943 542.34 106.218C536.988 97.8156 513.262 131.281 508.344 154.171C507.331 158.517 505.306 164.167 503.859 166.63C501.544 170.541 501.11 174.163 501.11 193.866C501.11 206.325 500.532 216.466 499.953 216.466C498.362 216.466 495.468 199.226 494.456 183.869C493.877 174.887 494.311 167.789 495.758 160.835C497.638 151.998 497.783 149.1 495.758 136.207C494.6 128.094 492.43 119.257 490.839 116.359C487.367 109.55 487.367 107.232 491.128 99.4092C493.877 94.0489 494.166 91.731 493.154 83.4733C492.575 78.113 491.852 65.2194 491.562 54.9335C490.839 24.8002 487.078 1.04121 480.134 -18.9511C474.347 -35.6114 472.032 -38.5088 464.51 -38.3639C461.182 -38.219 455.83 -37.6396 452.647 -36.9152Z" fill="#FAEADE"/>
<path d="M246.497 110.998C246.497 112.012 244.471 116.793 242.157 121.574C239.842 126.355 237.817 130.991 237.817 131.715C237.817 132.584 235.936 134.902 233.622 136.93C230.873 139.393 227.256 146.057 222.916 156.923C214.381 178.219 211.343 180.682 201.94 173.438C197.744 170.396 196.442 169.961 194.272 171.265C192.826 172.279 190.8 173.003 189.788 173.003C187.184 173.003 179.95 180.537 179.95 183.289C179.95 184.738 179.372 186.042 178.504 186.332C176.478 187.056 171.415 202.123 171.126 208.642C170.836 214.582 167.509 226.027 162.88 236.747C160.854 241.673 159.986 247.902 159.408 261.665C158.974 271.806 157.961 280.933 157.238 281.947C156.37 282.961 155.212 286.728 154.634 290.35C153.621 297.448 152.753 300.925 148.558 314.253C146.243 321.932 145.954 327.871 146.243 368.87C146.388 408.71 146.822 415.809 148.992 421.748C152.753 432.034 153.91 432.903 165.05 432.903L174.887 433.048L175.755 441.016C177.202 452.751 176.189 455.503 170.836 455.503C166.062 455.503 158.25 461.588 158.25 465.21C158.25 466.369 156.37 471.294 154.055 476.22C147.4 490.852 146.098 495.778 147.834 501.717C151.162 513.307 152.464 527.215 150.728 533.155C148.558 540.398 145.375 544.165 141.758 543.585C138.865 543.151 138.72 541.992 138.286 524.462C137.997 511.569 138.576 503.456 140.022 498.385C141.18 494.329 142.482 482.45 143.06 472.164C143.639 461.733 144.652 452.606 145.52 451.592C146.243 450.723 146.677 447.68 146.388 445.073C146.098 441.451 145.23 440.147 142.916 439.857C141.18 439.568 139.154 437.829 138.286 435.801C137.129 433.483 135.393 432.324 133.078 432.324C128.738 432.324 125.7 438.988 127.002 445.652C128.015 451.157 124.543 461.588 119.48 467.817C116.586 471.294 116.152 473.033 117.02 477.959C117.454 481.146 117.888 486.216 117.744 489.259C117.744 492.301 118.612 498.53 119.914 503.021C122.807 512.873 121.939 521.13 116.731 532.141C114.706 536.487 112.825 543.296 112.536 547.352C112.391 551.409 111.668 558.073 111.234 561.984C110.366 568.503 110.655 569.517 113.982 572.705C118.901 577.341 119.19 586.323 114.706 591.103C110.076 596.029 109.064 603.852 110.944 618.484L112.68 631.523L118.612 633.551C123.964 635.434 125.122 635.289 131.198 632.826C139.154 629.494 141.035 626.017 139.878 616.311C139.01 609.067 139.154 608.778 142.482 609.357C145.664 609.792 145.954 610.516 146.388 619.933C146.822 630.074 149.136 635.144 153.476 635.144C154.489 635.144 157.816 633.551 160.854 631.812C169.1 626.597 174.887 625.873 177.346 629.784C183.567 639.491 184.724 646.589 184.869 673.535C185.014 693.528 185.448 700.482 187.039 702.22C189.209 704.973 199.914 705.552 204.254 703.379C205.556 702.655 209.752 700.771 213.513 699.033C218.142 696.86 222.482 693.093 226.533 687.878C235.792 675.998 236.949 677.157 237.962 699.612C239.119 724.675 242.157 735.251 249.679 740.611C252.862 742.929 256.623 749.883 256.623 753.65C256.623 755.098 254.309 760.748 251.56 766.398C247.075 775.38 246.497 777.553 246.641 787.984C246.641 803.485 248.377 812.757 251.849 817.393C254.453 820.725 255.755 821.305 261.108 820.87C268.486 820.435 280.638 813.771 284.833 808.121C286.425 805.948 290.041 801.312 292.935 797.835C301.036 787.984 304.363 780.161 304.363 770.889C304.363 766.398 304.942 762.487 305.665 762.052C306.244 761.617 307.257 758.575 307.691 755.388C308.125 751.766 310.15 747.71 312.899 744.523C316.371 740.611 317.383 738.003 317.383 733.512C317.383 727.573 321.289 722.212 325.629 722.067C326.642 722.067 330.114 716.562 333.441 709.753C339.083 698.019 339.662 697.439 344.147 697.439C355.865 697.439 362.809 691.21 364.255 679.62C365.268 672.232 365.702 671.217 369.174 670.348C371.344 669.914 373.514 668.755 374.093 667.885C374.671 667.016 375.539 666.726 375.973 667.306C376.407 667.741 374.816 671.073 372.357 674.694C370.042 678.316 368.017 682.662 368.017 684.401C368.017 686.284 365.123 692.514 361.507 698.598C357.022 705.987 354.997 711.057 354.997 714.679C354.852 717.576 353.695 722.502 352.103 725.689C349.065 731.919 348.342 742.784 350.657 748.724C352.248 752.925 356.733 755.678 359.915 754.519C362.953 753.36 368.017 744.957 368.017 741.191C368.017 739.452 370.765 735.396 374.237 731.919C380.747 725.4 383.062 720.184 387.691 701.061C389.427 693.817 391.453 689.471 394.78 685.85C399.554 680.634 402.303 674.839 403.026 668.465C403.315 665.857 404.473 664.698 407.221 664.409C411.272 663.974 413.876 659.193 416.914 646.3C420.386 632.102 418.071 623.7 411.127 625.438C407.077 626.452 402.592 634.855 401.435 644.126L400.567 649.921L396.516 646.734C393.044 643.982 392.176 643.837 390.151 645.575C388.849 646.589 386.968 649.632 385.811 652.094C382.483 660.207 381.037 657.6 381.037 643.402C381.037 632.826 380.458 628.77 378.143 624.279C376.552 621.092 375.25 615.732 375.25 611.965C375.105 599.506 372.646 587.771 368.885 581.687C365.557 576.616 365.268 575.167 366.859 572.415C367.872 570.387 368.451 562.709 368.451 551.119C368.306 531.996 367.293 528.229 357.89 512.003C356.299 509.251 354.997 505.484 354.997 503.746C354.997 498.675 350.512 490.562 347.185 489.693C343.279 488.534 339.662 492.88 337.492 500.848C336.624 504.18 334.454 509.685 332.573 513.017C330.693 516.35 328.812 521.13 328.233 523.593C327.655 525.911 326.642 528.229 325.919 528.664C325.195 529.243 324.617 531.416 324.617 533.589C324.617 535.907 323.749 538.515 322.591 539.384C321.434 540.398 320.132 544.455 319.553 548.656C318.975 552.712 317.962 557.059 317.239 558.362C316.66 559.521 315.647 562.998 315.213 565.896C314.635 569.807 312.175 573.864 306.678 579.659C302.483 584.294 297.564 591.103 295.683 595.015C290.765 605.011 288.161 607.039 282.808 604.866C278.179 602.838 276.877 599.071 276.877 587.337C276.877 580.817 280.927 565.026 284.833 556.189C285.846 553.726 288.45 548.221 290.331 543.875C292.356 539.384 295.539 533.444 297.419 530.692C300.891 525.476 306.389 509.83 310.873 491.721C312.32 486.506 314.056 481.291 315.069 480.132C320.711 472.888 321.145 469.411 317.528 451.882C316.805 447.825 316.081 438.264 316.081 430.441C315.937 415.519 314.49 410.448 308.125 403.639C305.521 400.742 304.942 397.844 304.363 384.806C303.64 370.464 303.351 369.305 300.602 368.87C296.407 368.291 286.569 378.287 282.085 387.703C278.757 394.802 272.392 403.35 270.367 403.35C269.065 403.35 269.643 397.555 271.669 390.601C272.826 386.834 274.562 380.605 275.719 376.693C277.021 371.478 279.191 368.146 283.821 364.234C289.752 358.874 289.897 358.584 289.897 349.457C289.897 344.387 290.765 337.288 291.922 333.666C293.079 330.189 294.381 320.773 294.815 312.66C295.249 304.547 296.262 295.13 297.13 291.509C300.168 279.774 297.13 250.365 291.199 233.125C289.318 227.91 288.595 227.33 283.965 226.896C279.191 226.461 278.613 225.882 276.732 220.377C275.719 217.044 274.417 206.179 273.983 196.328C273.405 181.551 272.826 178.074 270.801 176.77C268.92 175.611 267.618 175.901 264.869 178.509C262.989 180.247 261.253 181.696 260.819 181.696C260.529 181.696 260.24 173.583 260.24 163.732C260.24 146.347 260.095 145.768 256.623 142.87C253.296 140.262 253.007 138.814 252.862 128.238C252.717 121.719 252.139 114.91 251.705 112.882C250.837 109.26 246.497 107.811 246.497 110.998Z" fill="#FAEADE"/>
<path d="M653.155 256.015C648.815 259.202 646.211 262.389 645.343 265.577C644.764 268.184 642.45 273.11 640.424 276.297C638.399 279.629 636.084 284.555 635.506 287.307C633.625 295.855 638.399 326.133 643.028 335.55C643.752 336.998 644.33 339.606 644.33 341.489C644.33 343.373 646.356 347.574 648.815 350.906C651.274 354.383 653.589 359.598 654.023 362.786C654.602 366.987 656.048 369.739 659.376 372.347C670.949 381.764 675 385.82 680.063 392.774C684.403 398.714 686.428 400.452 689.611 400.452C691.781 400.452 693.517 399.728 693.517 399.003C693.517 396.975 698.725 397.12 702.631 399.293C704.367 400.162 709.43 403.639 713.77 406.971C718.11 410.303 724.042 414.07 726.79 415.374C733.011 417.982 756.302 419.865 759.919 417.837C761.366 417.112 763.97 413.056 765.85 409C770.335 398.424 769.612 384.227 764.259 377.128C760.642 372.347 751.962 354.818 748.78 346.125C747.912 343.662 746.899 339.027 746.61 335.695C745.742 328.306 740.823 317.586 736.483 313.674C733.156 310.632 722.595 302.084 715.072 296.289C712.613 294.261 708.562 290.06 706.248 286.873C700.75 279.195 686.284 264.273 684.258 264.273C683.535 264.273 680.063 261.665 676.736 258.333C668.345 250.075 661.98 249.496 653.155 256.015Z" fill="#FAEADE"/>
<path d="M34.2709 393.354C26.1696 396.541 21.9743 401.612 20.0936 410.594C19.5149 413.346 18.5023 416.244 17.9236 417.113C17.3449 417.837 16.3323 421.894 15.7536 425.95C14.7409 434.353 16.6216 437.25 23.2763 436.381C27.0376 435.946 27.3269 436.236 26.8929 441.017C24.7229 467.094 24.5783 465.935 28.1949 465.355C31.6669 464.921 41.6489 450.289 43.3849 442.9C43.9636 440.727 47.0016 434.063 50.0396 427.978C57.4176 413.636 59.8769 406.827 59.8769 399.439C59.8769 392.774 59.5876 392.63 48.3036 391.181C43.6743 390.601 39.6236 391.326 34.2709 393.354Z" fill="#FAEADE"/>
<path d="M633.914 414.071C631.6 416.244 629.14 422.039 627.838 428.123C627.26 430.876 625.813 432.18 623.064 432.759C616.41 434.208 615.252 435.802 614.384 444.784C613.372 454.78 611.491 457.387 601.509 462.168C597.458 464.052 593.118 466.804 591.672 468.398C588.055 472.309 583.57 486.362 583.57 493.75C583.57 502.877 580.822 514.757 577.639 520.262C575.324 524.028 574.89 527.216 575.18 539.095C575.324 550.395 574.746 554.886 572.431 561.26C568.236 572.705 565.776 598.782 566.5 624.28C567.223 651.516 568.38 653.978 580.098 653.978C584.294 653.978 588.2 654.558 588.634 655.427C589.936 657.455 596.88 657.166 599.918 654.703C606.138 650.067 614.674 631.378 615.976 619.499C617.133 608.778 620.171 603.128 627.115 598.493C631.166 595.74 632.323 593.857 633.625 586.903C635.506 577.486 638.544 571.981 642.739 570.677C644.62 570.098 645.922 568.069 646.356 565.172C646.79 562.564 647.802 555.9 648.67 550.395C652.287 526.491 657.35 500.559 659.665 493.171C663.282 481.291 663.86 472.164 661.112 466.514C659.81 463.762 658.797 461.009 658.797 460.14C658.797 459.416 657.784 457.967 656.627 456.953C655.18 455.794 654.457 452.462 654.457 446.667C654.457 439.423 653.878 437.685 650.551 434.643C647.947 432.18 645.922 427.978 644.33 421.894C642.594 414.65 641.437 412.622 638.978 412.332C637.386 412.043 635.072 412.912 633.914 414.071Z" fill="#FAEADE"/>
<path d="M73.6202 435.946C71.3056 437.105 67.5442 438.264 65.3742 438.698C62.3362 439.423 60.7449 441.451 57.7069 447.97C55.6816 452.461 52.9329 458.111 51.9202 460.574C50.7629 462.892 49.4609 467.238 49.0269 469.991C48.5929 472.743 46.7122 477.958 44.8316 481.58C32.9689 504.18 33.9816 500.848 33.8369 522.869C33.8369 549.091 37.7429 561.26 46.4229 561.26C51.0522 561.26 55.6816 550.829 56.6942 537.646C57.4176 528.084 57.5622 527.65 66.5316 517.653C71.4502 512.003 78.1049 503.746 81.1429 499.255L86.6402 490.997L87.0742 466.079L87.6529 441.161L83.8916 437.394C79.6962 433.338 79.5516 433.193 73.6202 435.946Z" fill="#FAEADE"/>
<path d="M804.043 487.085C802.451 488.099 796.086 498.53 793.482 504.035C792.759 505.629 790.444 508.526 788.419 510.41C786.393 512.438 784.657 514.611 784.657 515.335C784.657 516.639 782.198 522.724 778.147 531.561C773.084 542.426 770.191 551.698 770.191 557.058C770.191 560.246 769.178 564.447 767.876 566.33C765.417 570.097 765.706 585.598 768.889 612.399C769.757 620.078 770.046 629.494 769.467 633.261C766.14 658.034 767.731 682.372 773.229 690.485C776.845 695.556 776.701 699.612 772.939 705.697C770.046 710.333 769.901 711.637 771.059 728.297C771.782 738.003 772.216 747.855 772.071 750.317C771.637 756.981 775.688 797.111 777.135 800.008C777.858 801.312 778.871 805.514 779.449 809.135C780.751 817.538 787.261 834.778 791.167 839.558C795.363 844.774 798.111 845.353 808.238 843.035C818.799 840.572 824.007 835.647 830.951 821.305C833.41 816.379 836.593 811.164 838.039 809.86C839.631 808.411 842.235 804.065 843.826 800.153C846.141 795.083 848.455 792.185 852.651 789.867C859.161 786.101 862.777 779.002 862.777 770.02C862.777 766.978 863.79 761.328 865.092 757.416C868.709 745.537 870.3 735.251 871.023 718.011L871.602 701.496L878.112 695.121C881.584 691.499 884.477 688.167 884.477 687.443C884.477 686.864 885.635 685.27 887.081 683.821C892 679.475 895.761 661.511 897.063 635.434C897.642 624.279 897.208 620.802 894.604 613.848C892.868 609.212 890.987 604.866 890.264 603.997C889.685 603.272 888.528 600.23 887.66 597.478C886.792 594.725 884.477 587.771 882.307 582.266C875.942 565.316 870.155 543.44 868.709 530.692C867.407 519.392 866.539 517.798 862.199 517.798C858.727 517.798 849.757 525.621 849.757 528.664C849.757 534.458 843.103 550.539 838.473 555.465C832.542 562.274 830.083 562.564 824.296 557.638L820.101 554.016L819.233 529.098C818.365 502.297 817.063 495.778 811.421 489.693C807.804 485.781 806.647 485.347 804.043 487.085Z" fill="#FAEADE"/>
<path d="M-23.1615 672.232C-23.5955 673.536 -24.0295 676.433 -24.0295 678.751C-24.0295 681.938 -24.7528 682.952 -26.9228 682.952C-28.5142 682.952 -30.2502 684.111 -30.8288 685.415C-31.2628 686.864 -32.8542 690.631 -34.1562 693.818C-35.6028 697.005 -37.1942 703.669 -37.6282 708.74C-38.2068 713.665 -40.0875 722.647 -42.1128 728.587C-47.3208 744.813 -47.6102 748 -45.0062 762.052C-41.8235 779.872 -40.3768 783.638 -36.3262 785.811C-34.3008 786.825 -32.7095 788.274 -32.7095 788.854C-32.7095 789.433 -31.6968 790.882 -30.5395 792.186C-27.9355 794.649 -20.9915 793.2 -16.6515 789.288C-14.1922 787.115 -13.7582 787.115 -10.1415 790.013C-7.97151 791.751 -5.80151 793.055 -5.07817 793.055C-2.47417 793.055 0.563826 788.129 0.563826 783.783C0.563826 781.32 1.14249 778.568 1.72116 777.699C2.44449 776.974 4.18049 773.208 5.62716 769.296C8.66516 760.893 7.94183 749.593 3.60183 740.467C2.15516 737.134 -0.0148407 730.615 -0.882841 725.834C-1.89551 721.199 -3.77617 713.52 -5.36751 709.029C-6.81417 704.538 -8.26084 695.846 -8.55017 690.051C-8.98417 681.359 -9.70751 678.317 -12.4562 674.55C-16.2175 669.479 -21.7148 668.32 -23.1615 672.232Z" fill="#FAEADE"/>
</g>
</g>
<defs>
<filter id="filter0_f_2236_161" x="-149.803" y="-408.6" width="1325.73" height="1521.71" filterUnits="userSpaceOnUse" color-interpolation-filters="sRGB">
<feFlood flood-opacity="0" result="BackgroundImageFix"/>
<feBlend mode="normal" in="SourceGraphic" in2="BackgroundImageFix" result="shape"/>
<feGaussianBlur stdDeviation="125" result="effect1_foregroundBlur_2236_161"/>
</filter>
<radialGradient id="paint0_radial_2236_161" cx="0" cy="0" r="1" gradientUnits="userSpaceOnUse" gradientTransform="translate(535.5 368.502) rotate(107.283) scale(665.433 728.24)">
<stop stop-color="#E7C4A9"/>
<stop offset="1" stop-color="#BC7853"/>
</radialGradient>
<clipPath id="clip0_2236_161">
<rect y="0.00244141" width="1024" height="677" rx="40" fill="white"/>
</clipPath>
<clipPath id="clip1_2236_161">
<rect width="1302" height="1130" fill="white" transform="translate(-168.696 -205.111)"/>
</clipPath>
</defs>
</svg>
